<svg width="768" height="694" viewBox="0 0 768 694" fill="none" xmlns="http://www.w3.org/2000/svg">
<g opacity="0.3">
<path d="M179.213 693.484C173.909 693.484 168.747 692.918 163.785 691.788C153.38 689.415 143.767 684.545 135.213 677.311C126.019 669.539 117.955 658.948 111.244 645.833C97.7548 619.474 91.0063 587.906 84.4794 557.377C83.197 551.383 81.8715 545.184 80.5255 539.17C71.3414 498.178 59.6992 462.271 44.9362 429.397C15.4861 363.82 -25.9304 307.856 -74.8382 267.553C-131.399 220.946 -192.212 197.728 -246.075 202.18C-277.733 204.798 -319.562 229.689 -338.256 272.2C-349.35 297.429 -350.245 325.427 -340.841 353.162L-341.028 353.279C-345.959 338.733 -348.107 324.151 -347.411 309.937C-346.773 296.899 -343.753 284.153 -338.432 272.054C-329.971 252.812 -316.016 235.757 -298.077 222.732C-281.5 210.698 -263.037 203.299 -246.087 201.898C-217.899 199.57 -187.919 204.736 -156.982 217.256C-128.937 228.606 -101.264 245.446 -74.7315 267.31C-25.795 307.635 15.6461 363.631 45.1127 429.246C59.8839 462.142 71.5322 498.069 80.7224 539.083C82.0705 545.098 83.396 551.299 84.6763 557.294C91.1971 587.8 97.9415 619.345 111.412 645.666C124.439 671.124 142.073 686.546 163.82 691.503C193.937 698.368 230.509 684.009 261.648 653.09C306.522 608.534 337.665 543.68 367.784 480.964C373.063 469.971 378.521 458.603 383.926 447.627C397.956 419.124 416.958 382.19 439.541 349.286C462.624 315.653 486.081 290.943 511.253 273.74C526.66 263.21 542.989 256.116 559.785 252.655C575.299 249.457 591.72 249.259 608.592 252.061C637.534 256.869 668.713 270.452 703.915 293.583C773.226 339.133 842.464 394.419 909.703 457.911C973.611 518.258 1036.29 586.545 1096 660.868L1095.86 661.074C972.089 507.005 840.19 383.449 703.824 293.834C626.782 243.205 565.621 236.898 511.345 273.988C456.128 311.721 417.555 379.815 384.096 447.781C378.693 458.754 373.235 470.121 367.956 481.114C337.829 543.853 306.676 608.726 261.771 653.313C247.26 667.722 230.936 678.961 214.564 685.812C205.916 689.432 197.318 691.799 189.009 692.848C185.697 693.275 182.428 693.484 179.213 693.484Z" fill="#FFE492"/>
<path d="M184.399 677.854C170.873 677.854 158.344 674.351 147.148 667.438C134.662 659.73 123.888 647.785 115.122 631.938C114.347 630.535 113.577 629.083 112.835 627.621C99.4893 601.376 92.4413 570.219 85.6271 540.086C84.2483 533.996 82.8243 527.697 81.3798 521.585C72.7764 485.193 62.4167 453.117 49.7055 423.532C48.1399 419.889 46.519 416.239 44.8836 412.683C15.0006 347.671 -26.7524 292.414 -75.8612 252.888C-132.831 207.076 -193.816 184.819 -247.582 190.219C-279.01 193.409 -320.646 218.708 -339.421 260.892C-350.663 286.152 -351.935 314.205 -343.104 342.022L-343.292 342.133C-347.921 327.554 -349.824 312.944 -348.943 298.713C-348.135 285.644 -344.991 272.87 -339.597 260.747C-331.049 241.537 -317.136 224.463 -299.365 211.371C-282.94 199.27 -264.557 191.659 -247.601 189.94C-219.447 187.113 -189.435 191.785 -158.399 203.824C-130.286 214.731 -102.482 231.158 -75.7586 252.648C-26.6211 292.197 15.1545 347.486 45.056 412.536C46.6913 416.094 48.3144 419.747 49.8799 423.392C62.5993 452.997 72.9652 485.089 81.5727 521.502C83.0192 527.614 84.4432 533.913 85.8221 540.005C92.6342 570.118 99.6761 601.253 113.003 627.462C113.744 628.919 114.513 630.37 115.287 631.771C133.4 664.527 158.289 677.854 184.462 677.854C184.606 677.854 184.748 677.854 184.891 677.854C184.727 677.851 184.563 677.854 184.399 677.854ZM189.982 677.658C214.315 675.959 239.423 663.241 260.963 644.321C307.427 603.343 340.821 540.052 373.117 478.846C374.447 476.323 375.776 473.806 377.106 471.289C380.026 465.763 383.487 459.221 387.021 452.626C402.871 423.051 422.054 388.64 444.146 357.667C467.652 324.71 491.135 300.254 515.936 282.898C531.175 272.245 547.28 264.74 563.803 260.593C579.112 256.75 595.291 255.664 611.884 257.364C640.551 260.303 671.373 271.444 706.115 291.426C739.987 310.879 767.83 329.19 793.739 349.052C830.443 377.217 865.404 409.669 894.764 437.698C963.02 503.049 1029.99 577.254 1093.82 658.256L1093.68 658.46C1029.86 577.469 962.895 503.269 894.647 437.927C865.291 409.901 830.336 377.455 793.641 349.298C767.738 329.441 739.903 311.135 706.037 291.689C630.355 248.157 569.977 245.442 516.03 283.149C460.039 322.327 420.166 391.258 387.187 452.794C383.651 459.388 380.192 465.927 377.272 471.456C375.943 473.971 374.613 476.491 373.283 479.014C340.977 540.239 307.571 603.553 261.074 644.561C249.545 654.687 237.277 662.73 224.609 668.465C212.817 673.798 201.193 676.882 189.982 677.658Z" fill="#FFE492"/>
<path d="M190.12 662.578C188.493 662.578 186.876 662.531 185.272 662.433C171.758 661.621 159.252 657.404 148.103 649.894C135.909 641.681 125.344 629.515 116.703 613.733C115.936 612.326 115.171 610.872 114.432 609.41C101.237 583.293 93.895 552.552 86.7977 522.826C85.3183 516.631 83.7877 510.223 82.2365 504.005C73.2083 467.735 62.5757 435.916 49.7271 406.73C48.1369 403.121 46.4913 399.501 44.8313 395.974C14.5153 331.527 -27.5742 276.98 -76.8841 238.229C-134.26 193.213 -195.417 171.913 -249.089 178.262C-279.309 181.893 -320.824 205.749 -340.563 249.543C-351.967 274.845 -353.627 302.974 -345.364 330.888L-345.555 330.992C-349.884 316.368 -351.536 301.724 -350.469 287.468C-349.488 274.357 -346.213 261.55 -340.737 249.398C-332.099 230.233 -318.23 213.153 -300.63 200C-284.358 187.84 -266.06 180.023 -249.108 177.986C-220.987 174.662 -190.942 178.837 -159.809 190.397C-131.627 200.862 -103.693 216.874 -76.7815 237.989C-27.4428 276.765 14.6692 331.343 45.0037 395.826C46.6636 399.356 48.3113 402.976 49.9015 406.59C62.7563 435.794 73.3951 467.632 82.4273 503.921C83.9785 510.142 85.5091 516.55 86.9885 522.746C94.0838 552.454 101.419 583.173 114.598 609.259C115.337 610.722 116.098 612.173 116.865 613.574C151.975 677.702 214.195 670.817 260.281 635.549C308.684 598.182 344.655 536.077 379.442 476.018L379.799 475.402C383.168 469.58 386.652 463.563 390.12 457.621C426.71 394.938 466.929 330.52 520.625 292.048C535.7 281.27 551.584 273.355 567.83 268.524C582.942 264.031 598.875 262.058 615.185 262.66C643.621 263.71 674.087 272.412 708.324 289.263C744.305 306.909 771.381 323.13 796.118 341.859C831.363 368.598 865.504 402.387 895.625 432.199C962.689 498.931 1028.64 574.106 1091.65 655.629L1091.51 655.83C1028.51 574.315 962.56 499.149 895.504 432.422C865.386 402.616 831.252 368.833 796.018 342.102C771.291 323.378 744.223 307.163 708.254 289.522C634.041 252.996 574.451 253.875 520.72 292.291C467.058 330.738 426.856 395.128 390.28 457.788C386.812 463.73 383.328 469.75 379.959 475.569L379.602 476.186C362.266 506.115 344.341 537.063 324.984 564.706C303.23 595.771 282.098 619.022 260.38 635.786C237.658 653.173 212.906 662.578 190.12 662.578Z" fill="#FFE492"/>
<path d="M1089.33 653.199C1027.15 571.159 962.221 495.027 896.359 426.919C893.568 424.056 890.773 421.178 887.969 418.293C859.44 388.927 829.94 358.563 798.395 334.907C767.792 312.022 736.776 298.029 710.472 287.36C637.863 257.726 579.059 262.2 525.41 301.434C470.336 341.829 427.662 408.896 393.374 462.787C391.316 466.022 389.262 469.262 387.204 472.505C385.685 474.9 384.165 477.294 382.644 479.686C363.121 510.402 345.362 537.864 325.741 562.923C303.324 591.549 281.718 612.514 259.684 627.018C239.034 640.612 216.974 647.804 196.456 647.807C192.717 647.807 189.034 647.57 185.415 647.087C172.201 645.326 159.968 640.378 149.056 632.379C137.149 623.652 126.794 611.255 118.272 595.531C117.511 594.122 116.752 592.665 116.017 591.2C102.978 565.22 95.3513 534.911 87.9769 505.602C86.3888 499.289 84.7453 492.758 83.0833 486.42C73.6243 450.265 62.7166 418.7 49.7408 389.921C48.126 386.34 46.4537 382.754 44.7712 379.257C14.0202 315.377 -28.4037 261.539 -77.9127 223.561C-135.695 179.34 -197.022 159.003 -250.6 166.293C-287.228 171.375 -324.682 200.919 -341.683 238.135C-353.266 263.49 -355.32 291.708 -347.628 319.739L-347.821 319.837C-351.848 305.16 -353.252 290.472 -351.992 276.18C-350.833 263.021 -347.423 250.172 -341.858 237.987C-333.129 218.878 -319.306 201.798 -301.882 188.597C-285.767 176.387 -267.563 168.366 -250.621 166.016C-222.533 162.193 -192.457 165.874 -161.228 176.954C-132.978 186.978 -104.911 202.576 -77.8101 223.315C-28.2703 261.315 14.1761 315.185 44.9456 379.103C46.6302 382.603 48.3025 386.192 49.9173 389.773C62.9013 418.569 73.813 450.15 83.2782 486.322C84.9402 492.663 86.5837 499.191 88.1718 505.507C95.5421 534.8 103.165 565.089 116.188 591.038C116.922 592.501 117.679 593.955 118.439 595.361C155.091 662.995 217.387 654.547 259.595 626.764C309.954 593.614 348.489 532.991 382.491 479.502C384.011 477.107 385.529 474.713 387.05 472.321C389.106 469.078 391.162 465.838 393.22 462.603C412.792 431.842 432.121 401.949 453.37 374.404C477.805 342.725 501.34 318.776 525.315 301.188C540.232 290.279 555.89 281.954 571.855 276.448C586.776 271.298 602.465 268.441 618.486 267.949C646.739 267.084 676.85 273.347 710.533 287.092C736.846 297.767 767.876 311.766 798.496 334.665C830.055 358.328 859.561 388.701 888.096 418.072C890.899 420.958 893.695 423.835 896.486 426.699C962.354 494.812 1027.29 570.952 1089.48 653.001L1089.33 653.199Z" fill="#FFE492"/>
<path d="M1087.16 650.57C1024.62 566.437 960.718 489.337 897.217 421.416C893.417 417.353 889.531 413.164 885.772 409.114C858.85 380.111 831.012 350.121 800.776 327.713C770.583 305.417 739.307 293.707 712.693 285.195C641.851 262.318 583.831 270.383 530.103 310.577C478.856 349.055 438.708 406.915 399.881 462.869L395.617 469.011C392.25 473.865 388.768 478.88 385.335 483.8C346.469 539.433 307.562 591.574 258.993 618.244C247.207 624.716 235.105 629.201 223.02 631.581C210.042 634.135 197.435 634.171 185.549 631.687C172.639 628.989 160.683 623.32 150.013 614.839C138.402 605.61 128.253 592.987 119.853 577.324C119.096 575.907 118.343 574.447 117.615 572.985C104.735 547.158 96.8334 517.296 89.1923 488.416C87.4872 481.972 85.7227 475.307 83.9417 468.835C74.0436 432.792 62.8651 401.481 49.7661 373.115C48.1288 369.57 46.4319 366.012 44.7227 362.543C13.5388 299.23 -29.2196 246.1 -78.9317 208.895C-137.122 165.475 -198.622 146.096 -252.107 154.331C-288.4 160.039 -325.685 189.789 -342.772 226.681C-354.548 252.101 -357.008 280.428 -349.888 308.601L-350.083 308.694C-353.809 293.952 -354.96 279.208 -353.505 264.874C-352.164 251.66 -348.612 238.76 -342.949 226.536C-334.126 207.492 -320.352 190.428 -303.112 177.188C-287.157 164.934 -269.052 156.72 -252.132 154.058C-224.077 149.738 -193.97 152.922 -162.643 163.522C-134.323 173.105 -106.127 188.288 -78.8353 208.653C-29.0945 245.877 13.6886 299.04 44.891 362.39C46.6002 365.861 48.2991 369.422 49.9365 372.967C63.0436 401.347 74.2282 432.674 84.1305 468.738C85.9114 475.21 87.6761 481.877 89.3811 488.321C97.0181 517.184 104.916 547.032 117.781 572.828C118.507 574.285 119.26 575.742 120.015 577.16C155.785 643.853 215.219 641.98 258.913 617.987C307.443 591.34 346.334 539.218 385.183 483.61C388.616 478.69 392.098 473.675 395.465 468.822L399.729 462.679C418.788 435.214 438.494 406.812 459.897 380.391C484.138 350.467 507.069 327.551 530 310.332C544.766 299.286 560.201 290.55 575.878 284.371C590.616 278.561 606.06 274.815 621.781 273.238C649.912 270.417 679.662 274.24 712.738 284.921C739.365 293.439 770.657 305.152 800.871 327.468C831.123 349.884 858.969 379.883 885.897 408.893C889.656 412.943 893.542 417.129 897.342 421.196C960.849 489.122 1024.76 566.228 1087.3 650.369L1087.16 650.57Z" fill="#FFE492"/>
<path d="M1084.98 647.941C1022.98 562.873 960.095 484.807 898.07 415.915C893.408 410.738 888.63 405.355 884.009 400.15C858.539 371.46 832.202 341.793 803.15 320.524C773.099 298.61 741.681 289.275 714.908 283.034C646.03 266.733 588.796 278.393 534.789 319.726C487.658 355.948 448.962 407.283 411.539 456.927C407.601 462.151 403.528 467.552 399.56 472.784C394.9 478.93 391.34 483.599 388.018 487.919C370.227 511.044 349.044 537.672 326.814 559.82C303.257 583.288 280.844 599.531 258.295 609.478C246.437 614.708 234.387 618.006 222.476 619.279C209.686 620.647 197.304 619.642 185.674 616.29C173.073 612.659 161.396 606.271 150.963 597.304C139.649 587.581 129.712 574.731 121.426 559.119C120.68 557.704 119.931 556.242 119.204 554.774C106.495 529.121 98.3288 499.719 90.4291 471.286C88.5969 464.691 86.703 457.873 84.7927 451.25C74.4494 415.307 62.998 384.253 49.7821 356.308C48.1201 352.794 46.3986 349.27 44.6648 345.828C13.0479 283.082 -30.047 230.661 -79.9602 194.229C-138.555 151.607 -200.227 133.191 -253.618 142.367C-283.998 147.703 -323.676 172.285 -343.838 215.169C-355.825 240.666 -358.701 269.122 -352.154 297.457L-352.349 297.541C-355.773 282.725 -356.668 267.916 -355.01 253.527C-353.479 240.245 -349.78 227.29 -344.01 215.018C-335.093 196.052 -321.37 179.016 -304.321 165.749C-288.526 153.458 -270.529 145.057 -253.643 142.091C-225.621 137.274 -195.481 139.961 -164.059 150.081C-135.672 159.224 -107.344 173.993 -79.8637 193.984C-29.9218 230.435 13.1977 282.886 44.8331 345.669C46.5669 349.111 48.2904 352.641 49.9524 356.157C63.1745 384.116 74.632 415.187 84.9815 451.147C86.8938 457.772 88.7877 464.59 90.62 471.185C98.5134 499.604 106.678 528.989 119.372 554.615C120.099 556.08 120.846 557.54 121.593 558.952C151.35 615.031 202.431 633.819 258.231 609.207C308.764 586.919 349.986 536.966 387.877 487.713C391.199 483.392 394.757 478.723 399.417 472.578C403.385 467.345 407.458 461.945 411.395 456.72C429.819 432.281 448.868 407.01 469.187 383.346C492.164 356.584 513.591 335.692 534.691 319.477C549.314 308.286 564.524 299.14 579.903 292.297C594.469 285.814 609.669 281.184 625.08 278.53C653.141 273.702 682.536 275.083 714.943 282.752C741.73 288.998 773.17 298.337 803.246 320.27C832.317 341.553 858.66 371.228 884.138 399.926C888.759 405.131 893.538 410.515 898.199 415.692C960.229 484.592 1023.12 562.664 1085.13 647.737L1084.98 647.941Z" fill="#FFE492"/>
<path d="M1082.8 645.312C1021.34 559.303 959.477 480.269 898.922 410.411C893.77 404.469 888.481 398.232 883.363 392.201C858.987 363.472 833.785 333.766 805.525 313.328C775.453 291.677 743.963 284.77 717.125 280.868C651.37 271.053 593.259 286.754 539.476 328.868C496.652 362.553 459.943 407.617 424.442 451.199C417.27 460.002 409.857 469.106 402.649 477.782C398.24 483.093 394.333 487.757 390.701 492.038C373.812 511.926 351.347 537.426 327.34 558.265C303.219 579.202 280.404 593.086 257.594 600.708C232.715 609.022 207.886 609.084 185.792 600.89C173.507 596.332 162.107 589.227 151.907 579.768C140.895 569.557 131.169 556.484 122.997 540.92C122.256 539.502 121.513 538.037 120.791 536.569C108.263 511.111 99.8419 482.192 91.7001 454.227C89.7304 447.462 87.695 440.469 85.6411 433.673C74.8443 397.824 63.12 367.022 49.7974 339.509C48.1108 336.026 46.3647 332.532 44.6062 329.122C12.5564 266.942 -30.8729 215.227 -80.9872 179.574C-139.986 137.753 -201.831 120.296 -255.129 130.413C-291.25 137.418 -327.315 166.834 -344.871 203.606C-357.087 229.195 -360.389 257.799 -354.418 286.324L-354.615 286.399C-357.736 271.494 -358.372 256.607 -356.507 242.156C-354.783 228.799 -350.926 215.777 -345.043 203.453C-336.031 184.575 -322.362 167.579 -305.512 154.3C-289.883 141.984 -272 133.399 -255.158 130.134C-227.169 124.82 -196.996 127.014 -165.478 136.651C-137.021 145.353 -108.562 159.709 -80.8928 179.323C-30.7498 214.998 12.7042 266.741 44.7745 328.96C46.5329 332.37 48.279 335.867 49.9677 339.353C63.2965 366.882 75.0269 397.699 85.8298 433.564C87.8837 440.36 89.9192 447.356 91.8889 454.121C100.027 482.072 108.443 510.977 120.959 536.41C121.682 537.878 122.422 539.337 123.163 540.755C152.41 596.472 202.645 618.782 257.545 600.438C307.593 583.712 351.055 538.352 390.566 491.829C394.195 487.547 398.104 482.887 402.512 477.576C409.718 468.899 417.133 459.798 424.302 450.996C459.811 407.405 496.527 362.33 539.372 328.631C553.866 317.28 568.855 307.727 583.921 300.231C598.331 293.064 613.287 287.547 628.372 283.832C656.427 276.925 685.465 275.867 717.143 280.594C744 284.499 775.516 291.409 805.619 313.086C833.9 333.537 859.113 363.254 883.497 391.994C888.614 398.025 893.904 404.26 899.056 410.202C959.614 480.065 1021.49 559.105 1082.95 645.119L1082.8 645.312Z" fill="#FFE492"/>
<path d="M1080.63 642.684C1019.71 555.726 958.865 475.729 899.776 404.911C894.347 398.403 888.76 391.512 883.359 384.848C859.874 355.876 835.59 325.916 807.899 306.137C777.7 284.67 746.185 280.224 719.339 278.706C656.068 274.866 598.766 294.265 544.163 338.014C505.869 368.842 471.733 407.858 438.719 445.588C427.368 458.563 416.645 470.817 405.739 482.782C401.303 487.652 397.263 492.028 393.385 496.155C368.363 522.766 347.545 542.006 327.868 556.703C303.182 575.142 279.967 586.668 256.896 591.938C247.946 593.98 239.029 594.999 230.274 594.999C214.753 594.999 199.736 591.806 185.911 585.482C160.891 574.037 140.253 552.919 124.571 522.713C123.832 521.281 123.095 519.816 122.381 518.354C110.044 493.116 101.387 464.711 93.0155 437.238C90.8939 430.277 88.7025 423.082 86.4926 416.086C75.2342 380.321 63.235 349.775 49.8159 322.701C48.1046 319.249 46.3339 315.785 44.5509 312.406C12.0681 250.792 -31.6977 199.786 -82.0131 164.906C-141.416 123.889 -203.431 107.39 -256.637 118.447C-292.908 126.141 -327.933 154.999 -345.864 191.966C-358.329 217.662 -362.067 246.435 -356.679 275.178L-356.878 275.248C-359.691 260.239 -360.065 245.263 -357.986 230.737C-356.062 217.291 -352.042 204.196 -346.034 191.813C-336.928 173.039 -323.318 156.098 -306.674 142.819C-291.213 130.484 -273.454 121.732 -256.668 118.171C-228.712 112.36 -198.507 114.057 -166.894 123.214C-138.367 131.477 -109.779 145.42 -81.9187 164.655C-31.5746 199.557 12.2159 250.591 44.7191 312.241C46.5022 315.623 48.2729 319.087 49.9862 322.542C63.4135 349.63 75.4188 380.193 86.6814 415.971C88.8912 422.968 91.0847 430.166 93.2042 437.126C101.572 464.585 110.224 492.979 122.552 518.195C123.266 519.654 124 521.12 124.739 522.548C154.023 578.957 202.18 604.147 256.861 591.658C308.915 579.769 355.02 536.598 393.258 495.932C397.134 491.804 401.174 487.431 405.61 482.561C416.513 470.597 427.236 458.345 438.587 445.37C471.605 407.632 505.75 368.611 544.058 337.772C558.444 326.245 573.209 316.282 587.945 308.155C602.218 300.285 616.929 293.88 631.67 289.122C659.782 280.048 688.463 276.549 719.347 278.424C746.216 279.942 777.759 284.394 807.993 305.886C835.707 325.679 860.001 355.653 883.495 384.636C888.897 391.3 894.482 398.191 899.91 404.696C959.003 475.52 1019.85 555.525 1080.77 642.488L1080.63 642.684Z" fill="#FFE492"/>
<path d="M1078.46 640.055C1017.24 550.904 959.077 472.188 900.638 399.408C895.061 392.464 889.573 385.373 883.76 377.865C861.04 348.517 837.546 318.172 810.281 298.945C779.704 277.487 746.807 275.7 721.563 276.543C661.173 278.296 604.68 301.396 548.858 347.163C515.365 374.756 484.442 407.892 454.536 439.939C438.819 456.782 423.974 472.687 408.836 487.783C404.342 492.268 400.167 496.354 396.075 500.275C370.712 524.544 349.209 541.976 328.399 555.137C303.141 571.112 279.526 580.28 256.205 583.166C244.222 584.648 232.321 584.369 220.833 582.337C208.67 580.185 196.962 576.058 186.036 570.071C161.818 556.801 141.671 534.745 126.153 504.511C125.42 503.077 124.69 501.609 123.98 500.146C111.849 475.168 102.975 447.304 94.3924 420.359C92.1025 413.169 89.7347 405.735 87.3525 398.506C75.6221 362.82 63.3521 332.528 49.8407 305.9C48.1028 302.479 46.3074 299.046 44.5038 295.697C11.5881 234.65 -32.5122 184.353 -83.0286 150.246C-129.655 118.896 -177.738 102.539 -221.83 102.539C-234.295 102.539 -246.431 103.845 -258.137 106.488C-293.971 114.738 -328.776 143.699 -346.812 180.27C-359.541 206.085 -363.733 235.054 -358.934 264.043L-359.135 264.104C-361.64 248.978 -361.745 233.899 -359.447 219.289C-357.317 205.745 -353.123 192.564 -346.984 180.114C-337.784 161.457 -324.237 144.586 -307.806 131.321C-292.296 118.799 -275.133 110.116 -258.174 106.215C-230.251 99.9074 -200.012 101.11 -168.303 109.784C-139.709 117.604 -110.987 131.131 -82.9383 149.992C-32.3932 184.119 11.7338 234.443 44.67 295.527C46.4756 298.876 48.2731 302.311 50.011 305.736C63.5285 332.377 75.8047 362.683 87.5413 398.386C89.9235 405.615 92.2933 413.049 94.5832 420.241C103.162 447.176 112.032 475.029 124.152 499.987C124.862 501.447 125.593 502.915 126.323 504.347C155.342 560.881 202.674 589.504 256.189 582.884C310.339 576.183 359.329 535.091 395.96 500.04C400.052 496.119 404.225 492.033 408.719 487.551C423.855 472.461 438.698 456.553 454.413 439.713C484.323 407.663 515.25 374.519 548.755 346.917C577.495 323.354 605.698 306.182 634.978 294.416C663.215 283.068 691.539 277.129 721.563 276.259C738.692 275.686 752.667 276.68 765.545 279.382C782.171 282.87 796.835 289.186 810.38 298.691C837.669 317.934 861.173 348.296 883.905 377.659C889.716 385.166 895.207 392.255 900.78 399.198C959.22 471.981 1017.39 550.703 1078.61 639.859L1078.46 640.055Z" fill="#FFE492"/>
<path d="M1076.28 637.425C1015.62 547.297 958.446 467.643 901.487 393.904C895.852 386.608 890.296 379.092 884.413 371.136C862.373 341.324 839.583 310.493 812.652 291.75C781.823 270.392 748.961 271.245 723.777 274.374C666.787 281.209 611.102 308.009 553.541 356.302C525.181 380.212 498.178 407.573 472.064 434.036C451.421 454.953 431.924 474.713 411.923 492.772C407.403 496.858 402.971 500.765 398.754 504.382C373.342 526.162 350.499 542.246 328.92 553.554C303.081 567.096 279.066 573.911 255.503 574.385C243.514 574.625 231.66 573.152 220.279 570.001C208.347 566.696 196.865 561.531 186.15 554.643C162.763 539.608 143.105 516.615 127.722 486.298C127 484.866 126.273 483.395 125.565 481.924C113.663 457.25 104.595 429.975 95.8259 403.599C93.3452 396.136 90.7784 388.417 88.1992 380.912C75.9887 345.292 63.4457 315.257 49.8543 289.085C48.0918 285.694 46.2718 282.292 44.4436 278.973C11.095 218.493 -33.3418 168.905 -84.0593 135.571C-144.269 96.1641 -206.63 81.5847 -259.652 94.5175C-295.022 103.295 -329.595 132.331 -347.732 168.486C-360.749 194.438 -365.406 223.625 -361.204 252.896L-361.405 252.949C-363.596 237.691 -363.428 222.495 -360.902 207.784C-358.557 194.129 -354.185 180.853 -347.902 168.327C-338.611 149.804 -325.133 133.017 -308.923 119.78C-293.592 107.261 -276.567 98.4303 -259.689 94.2412C-231.796 87.4399 -201.527 88.1432 -169.724 96.3371C-141.06 103.722 -112.209 116.836 -83.9711 135.317C-33.2228 168.668 11.2386 218.286 44.6057 278.803C46.436 282.121 48.258 285.526 50.0205 288.92C63.6201 315.107 76.1672 345.156 88.3839 380.789C90.9651 388.294 93.5299 396.013 96.0126 403.479C104.778 429.844 113.841 457.108 125.736 481.765C126.444 483.233 127.17 484.704 127.89 486.133C157.215 543.926 202.534 575.172 255.498 574.101C298.474 573.235 343.96 551.003 398.643 504.139C402.858 500.523 407.288 496.618 411.808 492.532C431.803 474.475 451.3 454.722 471.939 433.804C498.057 407.339 525.064 379.972 553.432 356.057C582.454 331.707 610.203 313.276 638.266 299.704C666.696 285.956 694.661 277.575 723.758 274.087C748.969 270.952 781.87 270.101 812.747 291.493C839.706 310.259 862.508 341.103 884.559 370.929C890.44 378.886 895.996 386.399 901.628 393.691C958.592 467.434 1015.77 547.094 1076.43 637.227L1076.28 637.425Z" fill="#FFE492"/>
<path d="M1074.1 634.797C1014.01 543.689 957.83 463.092 902.344 388.403C896.711 380.821 891.149 372.942 885.262 364.6C863.845 334.255 841.697 302.878 815.032 284.559C783.911 263.278 751.102 266.781 725.996 272.209C672.375 283.582 619.068 313.21 558.231 365.449C535.414 385.13 513.117 406.72 491.554 427.598C465.365 452.956 440.627 476.91 415.014 497.771C410.4 501.533 405.832 505.145 401.439 508.499C375.572 528.242 352.023 542.464 329.446 551.975C316.801 557.303 304.317 561.163 292.343 563.448C279.57 565.885 266.941 566.613 254.806 565.614C230.186 563.585 207.127 554.705 186.273 539.221C163.749 522.498 144.581 498.57 129.301 468.093C128.583 466.651 127.863 465.177 127.159 463.715C115.511 439.403 106.281 412.776 97.3578 387.028C94.6556 379.233 91.863 371.173 89.054 363.33C76.3511 327.769 63.5352 297.988 49.8741 272.282C48.0869 268.919 46.2403 265.547 44.3895 262.262C10.6079 202.346 -34.1633 153.467 -85.0819 120.911C-145.693 82.3111 -208.225 68.6917 -261.159 82.5595C-317.837 97.6385 -373.067 162.791 -363.464 241.758L-363.667 241.803C-366.07 222.049 -364.662 202.588 -359.485 183.957C-354.758 166.941 -347 150.927 -336.427 136.364C-326.596 122.823 -314.802 111.132 -301.375 101.615C-288.604 92.5647 -274.711 85.8778 -261.2 82.2832C-233.34 74.9851 -203.038 75.1944 -171.138 82.9083C-142.404 89.8548 -113.422 102.556 -84.9958 120.66C-34.0485 153.238 10.7495 202.145 44.5516 262.095C46.4044 265.383 48.251 268.754 50.0403 272.12C63.7076 297.837 76.5295 327.635 89.2387 363.21C92.0477 371.053 94.8403 379.113 97.5425 386.91C106.464 412.65 115.689 439.267 127.331 463.564C128.033 465.026 128.751 466.5 129.469 467.94C158.837 526.509 203.354 561.096 254.818 565.338C298.387 568.924 346.314 550.256 401.339 508.259C405.73 504.905 410.295 501.296 414.91 497.534C440.517 476.678 465.25 452.727 491.435 427.372C513 406.491 535.3 384.898 558.12 365.214C618.982 312.953 672.313 283.314 725.963 271.933C742.833 268.285 756.8 267.119 769.922 268.266C786.696 269.731 801.479 274.978 815.122 284.307C841.818 302.646 863.978 334.043 885.408 364.405C891.295 372.744 896.855 380.623 902.485 388.202C957.975 462.897 1014.16 543.497 1074.25 634.61L1074.1 634.797Z" fill="#FFE492"/>
<path d="M1071.93 632.167C1012.41 540.066 957.219 458.532 903.204 382.899C897.615 375.074 892.091 366.877 886.244 358.195C865.407 327.269 843.861 295.289 817.412 277.363C785.615 255.904 751.279 262.907 728.219 270.04C665.629 289.163 609.538 333.621 562.926 374.594C546.173 389.38 529.463 405.042 513.3 420.188C480.879 450.572 450.257 479.27 418.113 502.769C413.386 506.227 408.683 509.54 404.132 512.618C377.759 530.421 353.505 542.779 329.982 550.392C303.316 559.025 277.794 561.196 254.117 556.842C229.795 552.368 207.011 541.25 186.402 523.793C164.786 505.485 146.108 480.621 130.884 449.891C130.174 448.448 129.457 446.972 128.758 445.504C117.399 421.639 108.055 395.743 99.0164 370.698C96.0555 362.49 92.9922 354.006 89.9144 345.748C76.5261 309.74 63.8108 281.058 49.9013 255.477C48.0896 252.145 46.2203 248.807 44.3429 245.55C10.1243 186.203 -34.9835 138.033 -86.1031 106.248C-147.117 68.4568 -209.821 55.7947 -262.664 70.5974C-319.546 86.7425 -373.647 151.01 -365.722 230.619L-365.926 230.656C-367.891 210.905 -366.19 191.464 -360.872 172.874C-355.997 155.841 -348.193 139.811 -337.676 125.231C-327.868 111.634 -316.135 99.8567 -302.803 90.2199C-290.108 81.0436 -276.241 74.1641 -262.705 70.3211C-234.876 62.5262 -204.544 62.2416 -172.549 69.4727C-143.746 75.981 -114.632 88.2691 -86.0169 105.994C-34.8665 137.796 10.2659 185.994 44.5009 245.377C46.3783 248.637 48.2496 251.978 50.0634 255.31C63.9811 280.902 76.7005 309.6 90.0949 345.622C93.1727 353.88 96.2361 362.367 99.1969 370.575C108.233 395.612 117.575 421.5 128.926 445.353C129.626 446.821 130.34 448.295 131.05 449.738C160.646 509.473 204.36 547.412 254.142 556.566C298.79 564.777 347.821 550.317 404.039 512.367C408.588 509.292 413.291 505.982 418.015 502.524C450.151 479.03 480.768 450.338 513.183 419.956C529.346 404.81 546.058 389.145 562.813 374.357C594.157 346.808 620.232 326.454 644.867 310.304C673.867 291.292 701.116 278.033 728.172 269.767C744.664 264.665 759.039 262.354 772.12 262.706C788.962 263.158 803.807 267.869 817.503 277.112C843.986 295.06 865.544 327.06 886.393 358.005C892.241 366.685 897.763 374.881 903.35 382.701C957.369 458.336 1012.56 539.877 1072.09 631.98L1071.93 632.167Z" fill="#FFE492"/>
<path d="M1069.75 629.536C1010.81 536.439 956.607 453.964 904.055 377.394C898.544 369.364 893.09 360.883 887.316 351.902C867.03 320.354 846.054 287.732 819.786 270.169C787.64 248.761 753.396 258.604 730.434 267.872C673.725 290.565 623.143 333.773 567.612 383.737C557.597 392.783 547.467 402.118 537.67 411.149C499.99 445.879 461.029 481.788 421.201 507.766C416.362 510.925 411.52 513.942 406.811 516.733C380.26 532.451 354.588 543.24 330.505 548.802C303.224 555.104 277.288 554.856 253.413 548.068C229.431 541.25 206.924 527.891 186.517 508.36C165.865 488.595 147.673 462.799 132.449 431.69C131.745 430.244 131.035 428.765 130.339 427.297C119.323 403.991 109.919 378.937 100.826 354.71C97.5489 345.98 94.1613 336.954 90.7572 328.171C76.8457 292.2 63.8658 263.764 49.9091 238.68C48.0768 235.387 46.1809 232.077 44.2768 228.845C9.63138 170.056 -35.8087 122.594 -87.1336 91.5853C-148.547 54.6037 -211.422 42.9017 -264.179 58.6365C-319.255 75.2421 -374.355 137.255 -367.992 219.479L-368.195 219.507C-369.724 199.756 -367.73 180.337 -362.27 161.789C-357.249 144.737 -349.398 128.692 -338.938 114.096C-319.638 87.1702 -292.406 66.8556 -264.224 58.3602C-236.428 50.0714 -206.063 49.2899 -173.972 56.0382C-145.098 62.1111 -115.855 73.9834 -87.0515 91.3286C-35.6979 122.354 9.76886 169.846 44.4368 228.664C46.343 231.898 48.2389 235.208 50.0732 238.504C64.0361 263.602 77.0222 292.049 90.9378 328.035C94.3418 336.82 97.7314 345.846 101.008 354.576C110.1 378.798 119.502 403.845 130.512 427.141C131.205 428.609 131.915 430.085 132.619 431.531C163.079 493.772 204.862 533.975 253.452 547.792C298.445 560.585 350.012 550.05 406.725 516.476C411.432 513.685 416.27 510.671 421.106 507.515C460.92 481.546 499.877 445.641 537.549 410.917C547.346 401.886 557.476 392.551 567.493 383.506C591.801 361.634 620.086 336.547 648.157 315.602C677.521 293.693 704.413 277.995 730.371 267.607C746.712 261.012 761.085 257.591 774.307 257.15C790.982 256.592 806.309 260.89 819.87 269.921C831.637 277.788 843.481 289.529 856.077 305.817C867.2 320.198 877.502 336.223 887.466 351.718C893.238 360.696 898.692 369.178 904.201 377.204C956.755 453.777 1010.96 536.255 1069.9 629.355L1069.75 629.536Z" fill="#FFE492"/>
<path d="M1067.58 626.907C1009.21 532.805 956.003 449.389 904.912 371.892C899.502 363.687 894.142 354.949 888.469 345.7C868.712 313.497 848.284 280.196 822.166 262.979C797.759 246.94 768.479 247.833 732.654 265.709C682.564 290.561 637.789 332.131 590.383 376.146C584.48 381.627 578.378 387.292 572.304 392.888C569.926 395.084 567.546 397.286 565.168 399.485C519.999 441.262 473.293 484.461 424.297 512.766C419.343 515.63 414.366 518.351 409.501 520.851C382.367 534.786 355.97 543.655 331.044 547.211C303.133 551.191 276.781 548.528 252.725 539.296C229.117 530.234 206.887 514.633 186.654 492.926C167.042 471.886 149.339 445.161 134.034 413.487C133.337 412.039 132.633 410.557 131.941 409.086C121.344 386.511 111.971 362.468 102.904 339.217C99.233 329.801 95.4351 320.063 91.6207 310.586C77.1716 274.639 63.929 246.449 49.9395 221.873C48.0805 218.607 46.1621 215.331 44.2333 212.13C9.14883 153.91 -36.6278 107.155 -88.1537 76.9215C-149.966 40.752 -213.015 30.0072 -265.683 46.6742C-319.747 63.9244 -374.77 126.445 -370.25 208.34L-370.455 208.362C-371.544 188.609 -369.259 169.212 -363.657 150.712C-358.488 133.64 -350.593 117.576 -340.188 102.968C-320.97 75.9865 -293.833 55.3705 -265.731 46.4035C-237.965 37.6179 -207.569 36.3397 -175.384 42.6079C-146.44 48.2399 -117.064 59.6991 -88.0717 76.6647C-36.517 106.918 9.28836 153.698 44.3872 211.949C46.3159 215.15 48.2385 218.432 50.0975 221.697C64.0931 246.287 77.3439 274.486 91.7971 310.446C95.6136 319.924 99.4095 329.664 103.082 339.08C112.145 362.325 121.518 386.363 132.112 408.93C132.803 410.401 133.505 411.88 134.203 413.328C165.323 477.73 206.325 521.192 252.779 539.02C298.635 556.619 351.339 550.415 409.427 520.583C414.288 518.083 419.263 515.365 424.214 512.504C473.194 484.21 519.892 441.019 565.051 399.248C567.431 397.046 569.809 394.847 572.187 392.651C578.261 387.055 584.363 381.39 590.266 375.911C637.682 331.888 682.47 290.307 732.582 265.444C748.767 257.367 763.136 252.837 776.508 251.59C793.245 250.03 808.636 253.778 822.254 262.725C833.951 270.436 845.647 282.231 858.009 298.783C868.915 313.388 878.936 329.723 888.627 345.519C894.3 354.765 899.658 363.5 905.066 371.703C956.159 449.202 1009.37 532.62 1067.74 626.725L1067.58 626.907Z" fill="#FFE492"/>
<path d="M1065.4 624.278C1012.13 536.589 958.419 449.821 905.764 366.389C900.403 357.944 895.09 348.871 889.466 339.267C871.174 308.026 850.44 272.619 824.538 255.787C799.846 239.776 770.515 242.313 734.866 263.54C692.479 288.697 654.969 325.687 615.256 364.848C602.819 377.111 589.959 389.796 576.987 402.031C554.345 423.434 529.852 446.082 504.177 466.709C476.68 488.801 451.56 505.499 427.379 517.762C422.298 520.338 417.185 522.763 412.176 524.965C384.468 537.142 357.353 544.071 331.584 545.562C303.057 547.208 276.289 542.151 252.02 530.519C207.203 508.773 168.034 463.273 135.6 395.282C134.909 393.831 134.211 392.346 133.523 390.876C123.463 369.297 114.255 346.532 105.35 324.515C101.158 314.152 96.8242 303.435 92.4641 293.006C77.4651 257.068 63.9557 229.126 49.9498 205.072C48.0642 201.834 46.1211 198.589 44.1698 195.421C8.65851 137.762 -37.4547 91.7186 -89.1817 62.2583C-151.394 26.8982 -214.613 17.1163 -267.196 34.7126C-321.588 53.0178 -375.231 114.71 -372.517 197.202L-372.722 197.213C-373.372 177.454 -370.791 158.079 -365.052 139.626C-359.734 122.532 -351.793 106.451 -341.448 91.833C-331.702 78.0601 -320.15 66.0176 -307.114 56.0375C-294.459 46.3504 -281.046 39.0831 -267.247 34.4391C-239.512 25.1595 -209.083 23.3845 -176.804 29.1699C-147.791 34.3693 -118.285 45.4127 -89.1037 61.9988C-37.3459 91.4758 8.79388 137.547 44.3257 195.234C46.277 198.405 48.2242 201.653 50.1098 204.89C64.1219 228.959 77.6374 256.912 92.6425 292.861C97.0027 303.293 101.336 314.01 105.528 324.375C114.433 346.389 123.64 369.152 133.696 390.722C134.381 392.196 135.081 393.678 135.77 395.129C168.179 463.067 207.314 508.53 252.087 530.254C298.207 552.357 353.543 550.437 412.113 524.697C417.117 522.495 422.23 520.073 427.307 517.5C481.371 490.085 530.837 445.311 576.868 401.799C589.84 389.564 602.698 376.882 615.135 364.619C654.856 325.45 692.374 288.451 734.782 263.283C770.486 242.023 799.875 239.486 824.624 255.533C836.225 263.071 847.744 274.888 859.84 291.652C870.505 306.436 880.225 323.038 889.626 339.091C895.251 348.695 900.561 357.765 905.92 366.205C958.577 449.64 1012.29 536.408 1065.56 624.099L1065.4 624.278Z" fill="#FFE492"/>
<path d="M1063.23 621.649C1010.77 533.474 958.079 445.741 906.621 360.885C901.428 352.348 896.276 343.116 890.82 333.342C872.977 301.373 852.752 265.137 826.915 248.59C801.928 232.606 772.543 236.787 737.083 261.366C699.931 287.081 665.796 323.39 632.786 358.507C616.234 376.115 599.117 394.322 581.677 411.171C554.149 437.79 530.988 458.096 508.785 475.079C481.407 496.018 455.79 511.614 430.472 522.755C425.275 525.043 420.022 527.17 414.862 529.076C387.974 539.003 361.571 544.027 336.313 544.029C334.91 544.029 333.514 544.013 332.119 543.982C302.917 543.334 275.734 535.849 251.326 521.739C239.544 514.89 228.006 506.197 217.035 495.898C206.723 486.22 196.589 474.819 186.914 462.015C169.508 438.979 153.237 411.193 137.175 377.075C136.486 375.607 135.799 374.136 135.115 372.66C125.796 352.529 116.979 331.486 108.454 311.135C103.531 299.389 98.4427 287.24 93.3172 275.415C77.5364 238.984 64.1687 212.102 49.9679 188.26C48.0576 185.053 46.0899 181.838 44.114 178.701C8.17178 121.614 -38.2758 76.2796 -90.2039 47.5924C-152.814 13.0445 -216.206 4.22258 -268.702 22.7483C-322.075 41.6368 -375.648 103.797 -374.776 186.058L-374.981 186.061C-375.388 147.745 -364.224 111.31 -342.698 80.6975C-332.968 66.8605 -321.478 54.7314 -308.543 44.6397C-295.957 34.8215 -282.571 27.3643 -268.753 22.4748C-241.051 12.6984 -210.59 10.4294 -178.216 15.732C-149.133 20.496 -119.496 31.1264 -90.128 47.3301C-38.1671 76.0368 8.30722 121.399 44.2719 178.52C46.2479 181.659 48.2197 184.877 50.1299 188.084C64.3369 211.94 77.7109 238.83 93.4957 275.276C98.6212 287.103 103.712 299.252 108.632 310.999C117.158 331.347 125.972 352.387 135.29 372.512C135.973 373.988 136.658 375.459 137.348 376.924C171.478 449.425 208.787 496.71 251.406 521.482C310.435 555.609 372.846 544.303 414.808 528.808C419.965 526.902 425.213 524.778 430.409 522.49C488.638 496.864 541.773 449.417 581.558 410.945C598.996 394.102 616.111 375.894 632.661 358.29C665.679 323.167 699.82 286.847 736.991 261.121C752.858 250.122 767.219 243.368 780.892 240.477C797.755 236.91 813.269 239.556 827.001 248.341C838.572 255.751 849.98 267.662 861.879 284.754C872.362 299.813 881.829 316.773 890.984 333.178C896.438 342.948 901.588 352.178 906.779 360.709C958.238 445.565 1010.93 533.299 1063.39 621.473L1063.23 621.649Z" fill="#FFE492"/>
<path d="M1061.05 619.019L907.479 355.384C902.464 346.774 897.483 337.406 892.209 327.49C874.808 294.764 855.083 257.674 829.296 241.4C804.358 225.665 774.081 231.655 739.304 259.203C705.871 285.685 675.379 320.903 645.89 354.963C626.668 377.164 606.792 400.119 586.37 420.322C524.989 481.045 471.345 516.91 417.552 533.195C395.236 539.949 373.222 543.348 351.873 543.348C345.401 543.348 338.995 543.036 332.657 542.41C302.766 539.463 275.169 529.556 250.635 512.967C227.896 497.589 207.094 475.882 187.048 446.6C171.039 423.219 155.694 395.344 138.756 358.876C129.816 339.63 121.159 319.633 112.788 300.296C93.8408 256.535 74.2498 211.284 49.9949 171.459C12.7909 110.375 -36.043 62.473 -91.2274 32.9291C-154.233 -0.803973 -217.797 -8.66859 -270.208 10.7864C-320.95 29.6219 -376.023 89.0168 -377.037 174.919L-377.242 174.914C-376.789 136.517 -365.276 100.088 -343.949 69.5646C-324.666 41.9658 -298.496 20.9954 -270.261 10.5157C-242.59 0.245389 -212.095 -2.52035 -179.629 2.29946C-150.476 6.62528 -120.708 16.8454 -91.1514 32.6695C-63.8455 47.288 -37.9122 66.5309 -14.0698 89.8653C9.97165 113.395 31.5796 140.784 50.1509 171.274C74.416 211.114 94.0132 256.376 112.964 300.148C121.336 319.483 129.992 339.476 138.93 358.719C163.643 411.93 198.684 477.517 250.727 512.71C310.411 553.069 374.365 545.974 417.507 532.916C471.273 516.643 524.892 480.791 586.249 420.09C606.662 399.896 626.537 376.941 645.756 354.745C675.251 320.68 705.752 285.454 739.201 258.957C774.038 231.361 804.38 225.367 829.382 241.143C840.928 248.43 852.231 260.445 863.939 277.879C874.244 293.226 883.462 310.56 892.376 327.322C897.649 337.238 902.629 346.601 907.641 355.208L1061.22 618.843L1061.05 619.019Z" fill="#FFE492"/>
<path d="M1059.82 598.753C1020.71 525.347 987.156 465.782 954.223 411.302C938.237 384.836 921.911 358.787 905.697 333.875C900.793 326.34 895.934 318.325 890.791 309.838C877.864 288.507 864.496 266.451 849.114 250.083C840.855 241.278 832.904 234.973 824.807 230.809C799.953 217.902 770.792 226.436 738.137 256.178C721.236 271.547 705.848 289.038 693.024 304.119C679.447 320.086 666.054 337.693 653.101 354.72C634.484 379.196 615.234 404.504 594.539 426.239C581.947 439.504 569.182 451.356 556.598 461.47C531.422 481.704 504.4 498.377 476.281 511.025C458.908 518.753 441.451 524.594 424.398 528.384C409.701 531.638 394.977 533.516 380.632 533.966C359.164 534.641 338.247 532.065 318.463 526.302C297.428 520.173 277.521 510.391 259.296 497.224C243.046 485.483 227.696 470.7 212.371 452.026C183.813 417.258 161.036 377.056 144.383 345.915C136.202 330.546 128.214 314.873 120.489 299.715C98.2451 256.064 77.2342 214.834 50.9419 178.11C29.498 148.354 5.03189 122.675 -21.7837 101.783C-42.3904 85.7268 -64.8026 72.5959 -88.3968 62.7525C-94.0168 60.411 -99.7435 58.2286 -105.413 56.2722C-129.821 47.8633 -157.3 42.3877 -187.082 39.9959C-217.109 37.5288 -243.087 39.6638 -266.497 46.5293C-279.731 50.3807 -292.553 56.4229 -304.612 64.4857C-347.184 92.9524 -374.52 140.74 -377.738 192.321L-377.994 192.29C-377.136 178.539 -374.619 164.995 -370.513 152.029C-366.613 139.713 -361.255 127.835 -354.591 116.725C-341.999 95.7376 -324.755 77.5636 -304.725 64.1703C-292.648 56.0936 -279.805 50.043 -266.55 46.186C-243.116 39.3149 -217.117 37.1772 -187.066 39.6471C-157.267 42.0388 -129.774 47.5201 -105.349 55.9345C-99.6737 57.8937 -93.945 60.0761 -88.3209 62.4204C-64.7083 72.2693 -42.2775 85.4115 -21.6544 101.481C5.17963 122.387 29.6664 148.088 51.1204 177.864C77.4292 214.611 98.4442 255.852 120.696 299.515C128.42 314.672 136.407 330.342 144.586 345.709C161.231 376.835 183.998 417.018 212.539 451.764C227.848 470.418 243.181 485.187 259.413 496.914C295.081 522.682 335.861 535.032 380.624 533.617C394.956 533.167 409.67 531.289 424.355 528.038C441.396 524.248 458.84 518.412 476.199 510.69C504.301 498.05 531.307 481.389 556.467 461.166C569.043 451.061 581.799 439.213 594.381 425.96C615.064 404.236 634.31 378.934 652.92 354.466C665.876 337.437 679.27 319.824 692.853 303.851C705.683 288.761 721.08 271.265 737.994 255.885C752.533 242.643 766.611 233.494 779.839 228.691C796.088 222.791 811.249 223.394 824.898 230.483C833.019 234.661 840.992 240.982 849.271 249.807C864.677 266.2 878.053 288.27 890.99 309.615C896.131 318.099 900.99 326.114 905.89 333.644C922.108 358.558 938.437 384.61 954.424 411.082C987.359 465.567 1020.91 525.138 1060.02 598.549L1059.82 598.753Z" fill="#FFE492"/>
<path d="M1058.58 578.48C1022.32 503.833 988.287 441.368 954.541 387.518C938.083 361.214 921.05 335.929 903.916 312.366C899.369 306.115 894.881 299.617 890.129 292.741C875.898 272.147 861.182 250.853 844.699 236.12C836.377 228.649 828.404 223.447 820.317 220.215C789.355 207.835 757.904 231.289 736.969 253.144C722.136 268.583 708.59 286.04 694.87 304.06C682.86 319.834 671.561 336.803 659.598 354.765C641.844 381.429 623.484 408.999 602.707 432.15C590.377 445.961 577.51 457.903 564.462 467.644C540.158 485.79 513.544 499.881 483.099 510.726C466.06 516.793 448.611 521.116 431.236 523.569C416.576 525.615 401.942 526.346 387.739 525.735C366.609 524.837 345.955 520.795 326.348 513.726C305.756 506.3 286.107 495.449 267.95 481.475C252.042 469.234 236.682 454.047 220.992 435.046C192.496 400.588 168.085 362.387 150.004 332.954C143.311 322.059 136.725 311.096 130.354 300.491C104.983 258.26 81.0191 218.367 51.887 184.76C30.1149 159.642 5.67123 138.404 -20.7606 121.636C-40.7599 108.949 -61.9576 99.4435 -85.562 92.5752C-91.0096 90.9928 -96.5517 89.5667 -102.032 88.3359C-126.104 82.9579 -151.796 80.9234 -182.879 78.8191C-205.285 77.2255 -234.616 76.1762 -262.794 82.2658C-276.139 85.0957 -289.039 90.0104 -301.139 96.8676C-343.739 121.017 -372.638 163.203 -378.444 209.721L-378.748 209.652C-377.209 197.316 -374.09 185.218 -369.484 173.689C-365.093 162.704 -359.323 152.171 -352.337 142.375C-339.059 123.766 -321.397 107.894 -301.258 96.4796C-289.136 89.6085 -276.211 84.6855 -262.843 81.85C-234.639 75.752 -205.285 76.8041 -182.865 78.3977C-151.771 80.502 -126.072 82.5365 -101.983 87.9173C-96.4983 89.1508 -90.9522 90.577 -85.4984 92.1594C-61.8714 99.0361 -40.6533 108.55 -20.6313 121.251C5.82718 138.035 30.2913 159.291 52.086 184.433C81.2386 218.066 105.212 257.97 130.592 300.217C136.961 310.82 143.547 321.782 150.24 332.675C168.317 362.096 192.717 400.284 221.197 434.725C236.869 453.706 252.213 468.877 268.102 481.104C303.804 508.58 344.061 523.452 387.749 525.311C401.94 525.919 416.559 525.191 431.205 523.145C448.564 520.695 465.998 516.377 483.021 510.313C513.441 499.479 540.033 485.399 564.317 467.27C577.348 457.541 590.199 445.615 602.514 431.817C623.272 408.687 641.624 381.127 659.373 354.477C671.339 336.507 682.641 319.536 694.658 303.753C708.385 285.722 721.937 268.259 736.785 252.804C750.355 238.635 763.742 228.442 776.572 222.503C792.129 215.303 806.878 214.396 820.408 219.805C828.523 223.05 836.525 228.269 844.872 235.763C861.383 250.524 876.111 271.837 890.355 292.448C895.105 299.322 899.594 305.816 904.137 312.065C921.278 335.636 938.315 360.93 954.779 387.242C988.532 441.105 1022.57 503.581 1058.83 578.245L1058.58 578.48Z" fill="#FFE492"/>
<path d="M1057.34 558.207C1023.41 481.305 989.888 417.694 954.865 363.738C937.932 337.596 920.193 313.078 902.141 290.86C898.284 286.11 894.312 281.07 890.47 276.197C874.608 256.064 858.205 235.247 840.297 222.161C831.89 215.976 823.89 211.874 815.841 209.621C784.944 200.973 755.266 226.866 735.811 250.108C722.623 265.799 710.569 283.582 698.91 300.782L696.727 304.003C686.142 319.606 676.213 336.72 665.699 354.841C648.958 383.695 631.649 413.53 610.882 438.061C598.799 452.44 585.829 464.471 572.332 473.82C548.799 490.122 522.61 501.754 489.918 510.428C473.012 514.913 455.572 517.715 438.078 518.753C423.454 519.588 408.911 519.169 394.847 517.503C352.272 512.482 312.49 495.062 276.608 465.727C261.096 453.045 245.726 437.458 229.621 418.067C202.366 385.322 178.125 351.665 155.635 319.997C152.619 315.752 149.636 311.535 146.675 307.352C115.957 263.957 86.9435 222.967 52.8459 191.419C30.5855 170.823 6.16647 154.028 -19.7299 141.497C-38.7422 132.298 -59.3469 126.052 -82.7174 122.402C-87.9845 121.584 -93.3418 120.911 -98.6418 120.403C-111.975 119.148 -126.116 118.944 -141.088 118.729C-153.114 118.556 -165.548 118.377 -178.67 117.649C-204.012 116.122 -232.734 114.395 -259.088 118.012C-272.685 119.879 -285.663 123.663 -297.662 129.262C-340.246 149.132 -370.708 185.723 -379.147 227.142L-379.494 227.011C-377.27 216.091 -373.552 205.438 -368.445 195.349C-363.562 185.701 -357.381 176.508 -350.077 168.027C-336.106 151.806 -318.021 138.243 -297.781 128.798C-285.756 123.186 -272.751 119.393 -259.127 117.523C-232.746 113.904 -204.01 115.634 -178.658 117.16C-165.544 117.886 -153.11 118.067 -141.088 118.241C-126.11 118.455 -111.964 118.659 -98.6192 119.918C-93.3152 120.429 -87.9517 121.101 -82.6805 121.919C-59.2812 125.572 -38.652 131.826 -19.6129 141.039C6.31418 153.584 30.7599 170.399 53.045 191.018C87.1733 222.593 116.201 263.602 146.931 307.017C149.892 311.2 152.877 315.414 155.892 319.662C178.378 351.324 202.61 384.974 229.857 417.707C245.945 437.076 261.299 452.649 276.792 465.314C312.628 494.612 352.358 512.008 394.878 517.023C408.925 518.686 423.454 519.105 438.061 518.27C455.537 517.232 472.961 514.433 489.848 509.954C522.507 501.288 548.666 489.67 572.168 473.391C585.636 464.061 598.581 452.052 610.644 437.698C631.384 413.197 648.683 383.38 665.414 354.542C675.932 336.413 685.867 319.291 696.46 303.676L698.644 300.455C710.308 283.247 722.369 265.452 735.57 249.746C755.088 226.428 784.87 200.459 815.911 209.147C823.997 211.41 832.028 215.527 840.465 221.737C858.412 234.851 874.833 255.69 890.713 275.846C894.552 280.718 898.524 285.759 902.379 290.506C920.44 312.735 938.188 337.267 955.13 363.423C990.167 417.4 1023.7 481.035 1057.64 557.962L1057.34 558.207Z" fill="#FFE492"/>
<path d="M1056.1 537.931C1024.94 459.868 990.989 393.258 955.183 339.959C937.775 313.981 919.331 290.228 900.364 269.358C897.624 266.344 894.819 263.216 892.105 260.19C874.178 240.205 855.639 219.536 835.895 208.205C827.418 203.291 819.396 200.29 811.363 199.029C780.552 194.195 752.639 222.486 734.646 247.071C723.474 262.259 713.389 279.149 703.637 295.484C701.95 298.311 700.264 301.132 698.575 303.943C689.298 319.382 680.625 336.629 671.443 354.887C655.833 385.927 639.691 418.022 619.049 443.977C606.927 459.217 594.218 471 580.192 480.004C550.854 498.834 521.536 505.802 496.727 510.139C479.947 513.07 462.514 514.353 444.909 513.946C430.331 513.569 415.876 511.998 401.948 509.28C360.65 501.239 321.39 481.29 285.259 449.985C270.226 436.963 254.847 420.972 238.241 401.098C221.468 381.071 205.837 361.8 190.719 343.163C180.445 330.495 170.74 318.531 161.262 307.052C125.437 263.66 92.6219 225.509 53.8031 198.086C31.0646 182.024 6.6702 169.666 -18.7029 161.358C-36.8884 155.402 -56.3276 152.503 -79.8766 152.226C-84.957 152.176 -90.1317 152.257 -95.2552 152.469C-103.038 152.812 -111.089 153.53 -119.611 154.292C-135.964 155.751 -154.502 157.406 -174.471 156.48C-182.075 156.125 -189.833 155.626 -197.337 155.14C-216.636 153.892 -236.592 152.603 -255.393 153.756C-269.2 154.604 -282.258 157.261 -294.2 161.654C-336.712 177.297 -368.735 208.295 -379.865 244.573L-380.244 244.358C-377.331 234.858 -373.013 225.654 -367.414 216.999C-362.036 208.688 -355.446 200.837 -347.829 193.668C-333.152 179.853 -314.647 168.597 -294.311 161.115C-282.34 156.711 -269.254 154.046 -255.416 153.198C-236.594 152.042 -216.63 153.334 -197.32 154.582C-189.819 155.067 -182.061 155.567 -174.458 155.921C-154.508 156.848 -135.984 155.196 -119.639 153.736C-111.114 152.974 -103.06 152.257 -95.2696 151.914C-90.14 151.702 -84.9611 151.621 -79.8746 151.671C-56.2927 151.944 -36.8248 154.853 -18.6085 160.817C6.79535 169.136 31.2226 181.508 53.9899 197.592C71.5249 209.977 89.2939 225.67 108.312 245.564C125.339 263.372 141.901 282.858 161.533 306.636C171.011 318.117 180.716 330.082 190.992 342.749C206.107 361.384 221.738 380.655 238.508 400.679C255.097 420.533 270.459 436.508 285.475 449.516C321.557 480.78 360.761 500.701 402.001 508.73C415.913 511.445 430.349 513.014 444.911 513.391C462.496 513.798 479.91 512.517 496.669 509.587C521.447 505.258 550.727 498.298 580.013 479.501C594 470.523 606.677 458.771 618.766 443.569C639.373 417.659 655.503 385.589 671.101 354.574C680.289 336.305 688.966 319.05 698.253 303.594C699.941 300.783 701.626 297.962 703.312 295.138C713.071 278.792 723.162 261.89 734.349 246.683C746.055 230.688 758.064 218.383 770.043 210.111C784.231 200.313 798.147 196.4 811.402 198.482C819.474 199.749 827.535 202.763 836.046 207.697C855.845 219.059 874.406 239.753 892.355 259.763C895.07 262.789 897.875 265.917 900.612 268.929C919.593 289.815 938.052 313.591 955.474 339.587C974.486 367.89 993.107 400.135 1010.81 435.428C1026.47 466.622 1041.82 501.022 1056.45 537.668L1056.1 537.931Z" fill="#FFE492"/>
<path d="M1054.86 517.65C1026.02 437.349 992.598 369.565 955.506 316.178C937.623 290.366 918.475 267.38 898.594 247.855C897.649 246.926 896.703 245.997 895.755 245.065C875.082 224.736 853.706 203.715 831.505 194.251C822.904 190.584 814.855 188.684 806.9 188.438C776.212 187.495 750.043 218.15 733.495 244.029C723.757 259.17 715.112 275.764 706.753 291.811C704.687 295.78 702.549 299.883 700.44 303.879C692.402 319.1 684.932 336.406 677.024 354.731C662.639 388.062 647.765 422.527 627.23 449.888C615.35 465.718 602.538 477.59 588.062 486.186C559.544 503.118 530.586 507.564 503.543 509.847C486.867 511.253 469.441 511.013 451.748 509.135C437.217 507.544 422.854 504.823 409.055 501.05C369.163 490.166 330.424 467.688 293.92 434.24C279.301 420.846 264.351 404.922 246.875 384.124C213.662 344.706 188.999 316.943 166.909 294.105C122.973 248.684 89.4393 221.962 54.7857 204.753C31.5855 193.233 7.21573 185.315 -17.6506 181.218C-34.9025 178.377 -53.2111 178.631 -77.0125 182.05C-81.8897 182.759 -86.8798 183.593 -91.8453 184.534C-96.5358 185.435 -101.3 186.468 -106.346 187.559C-124.974 191.592 -146.09 196.163 -170.257 195.309C-182.994 194.86 -196.005 193.629 -208.587 192.44C-222.886 191.089 -237.672 189.691 -251.69 189.501C-265.745 189.312 -278.883 190.841 -290.729 194.051C-333.099 205.524 -366.688 230.934 -380.577 262.022L-380.971 261.695C-377.364 253.619 -372.447 245.863 -366.36 238.643C-360.483 231.671 -353.486 225.166 -345.562 219.302C-330.169 207.91 -311.239 198.962 -290.819 193.434C-278.941 190.219 -265.774 188.684 -251.686 188.873C-237.656 189.063 -222.862 190.462 -208.556 191.815C-195.978 193.004 -182.974 194.235 -170.246 194.684C-146.123 195.535 -125.03 190.969 -106.422 186.942C-101.374 185.848 -96.6056 184.818 -91.913 183.914C-86.9414 182.974 -81.9472 182.139 -77.0659 181.428C-53.2275 178.006 -34.8881 177.749 -17.5993 180.599C7.30191 184.701 31.7065 192.63 54.9396 204.167C89.6404 221.398 123.209 248.148 167.184 293.609C189.282 316.455 213.953 344.226 247.175 383.656C264.638 404.436 279.571 420.344 294.174 433.723C330.63 467.124 369.311 489.571 409.143 500.439C422.924 504.206 437.27 506.922 451.781 508.513C469.453 510.388 486.857 510.628 503.512 509.224C530.514 506.944 559.423 502.51 587.875 485.617C602.298 477.054 615.064 465.221 626.904 449.447C647.393 422.144 662.253 387.716 676.622 354.421C684.536 336.085 692.011 318.765 700.06 303.522C702.169 299.528 704.307 295.426 706.374 291.457C714.739 275.396 723.39 258.79 733.144 243.624C743.943 226.734 755.265 213.374 766.794 203.913C780.299 192.831 793.798 187.419 806.908 187.819C814.908 188.064 822.998 189.976 831.641 193.66C853.916 203.157 875.323 224.206 896.024 244.565C896.971 245.497 897.919 246.429 898.863 247.356C918.766 266.903 937.937 289.916 955.841 315.757C992.963 369.191 1026.42 437.028 1055.27 517.385L1054.86 517.65Z" fill="#FFE492"/>
<path d="M513.754 509.557C512.603 509.557 511.468 509.554 510.352 509.546C493.763 509.451 476.343 507.693 458.58 504.316C444.102 501.511 429.829 497.64 416.158 492.815C396.625 485.933 377.021 476.042 357.888 463.419C339.411 451.228 320.803 436.113 302.578 418.489C284.721 401.222 268.042 381.982 255.505 367.148C226.172 332.536 198.262 303.606 172.553 281.159C130.913 244.806 93.8051 222.644 55.77 211.416C32.8242 204.643 8.20621 201.07 -15.4967 201.07C-15.864 201.07 -16.2292 201.07 -16.5965 201.073C-36.959 201.168 -56.2915 206.314 -74.1466 211.862C-78.7941 213.316 -83.6015 214.904 -88.4357 216.587C-91.0846 217.52 -93.7376 218.48 -96.5446 219.495C-116.343 226.671 -138.784 234.8 -166.047 234.133C-182.65 233.726 -199.609 231.387 -216.009 229.124C-226.599 227.661 -237.547 226.152 -247.991 225.239C-262.348 223.986 -275.56 224.388 -287.264 226.439C-329.408 233.818 -364.563 253.644 -381.304 279.476L-381.689 279.016C-373.102 265.768 -360.186 254.297 -343.299 244.92C-327.172 235.967 -307.817 229.336 -287.329 225.75C-275.595 223.696 -262.348 223.288 -247.958 224.547C-237.504 225.46 -226.549 226.972 -215.956 228.435C-199.566 230.698 -182.617 233.037 -166.036 233.441C-138.843 234.108 -116.441 225.99 -96.6759 218.828C-93.8669 217.81 -91.2139 216.85 -88.5629 215.918C-83.7246 214.235 -78.9131 212.644 -74.2615 211.19C-56.3756 205.633 -37.0103 200.479 -16.5985 200.381C7.4819 200.266 32.5411 203.85 55.8788 210.741C75.5088 216.537 94.5396 225.069 114.055 236.824C132.85 248.146 152.075 262.458 172.828 280.579C198.558 303.042 226.488 331.995 255.839 366.629C268.366 381.454 285.033 400.68 302.872 417.928C339.852 453.69 378.01 478.66 416.285 492.148C429.938 496.968 444.192 500.833 458.65 503.635C476.39 507.006 493.785 508.765 510.352 508.857C536.275 509.002 566.376 507.813 595.733 491.724C610.593 483.58 623.448 471.671 635.034 455.32C655.383 426.602 668.871 389.743 681.919 354.096C688.631 335.76 694.969 318.44 701.861 303.447C704.069 298.644 706.297 293.696 708.452 288.91C715.731 272.739 723.258 256.022 731.929 240.569C741.839 222.791 752.474 208.371 763.536 197.71C776.362 185.349 789.436 178.434 802.397 177.155C810.397 176.366 818.517 177.172 827.221 179.623C850.491 186.17 873.555 205.192 897.102 225.78C917.633 243.731 938.067 266.602 956.195 291.924C976.33 319.969 995.25 352.87 1012.43 389.712C1027.73 422.536 1041.75 458.666 1054.09 497.102L1053.62 497.381C1027.11 414.838 994.214 345.876 955.828 292.412C937.727 267.127 917.325 244.289 896.825 226.369C873.319 205.817 850.3 186.831 827.116 180.306C818.459 177.87 810.385 177.069 802.434 177.853C778.619 180.206 753.724 202.628 732.337 240.993C723.682 256.418 716.162 273.122 708.889 289.275C706.734 294.064 704.504 299.015 702.296 303.818C695.416 318.783 689.082 336.089 682.379 354.408C675.977 371.898 669.358 389.986 661.762 407.373C653.15 427.085 644.53 442.926 635.406 455.805C623.768 472.23 610.856 484.191 595.926 492.374C582.76 499.591 568.608 504.361 552.663 506.962C539.16 509.153 525.597 509.557 513.754 509.557Z" fill="#FFE492"/>
<path d="M546.656 510.955C536.194 510.955 526.144 510.106 517.153 509.247C500.621 507.667 483.209 504.388 465.403 499.498C450.987 495.482 436.805 490.464 423.25 484.578C386.134 468.495 349.49 441.722 311.226 402.737C294.538 385.737 278.806 367.446 264.128 350.171C235.147 316.164 206.237 288.591 178.194 268.212C136.952 238.241 98.3652 222.308 56.7579 218.071C33.0509 215.657 8.05124 216.642 -15.5409 220.918C-35.2878 224.496 -53.9042 233.131 -71.2833 241.665C-75.6312 243.811 -80.256 246.156 -85.0266 248.631C-86.2187 249.254 -87.4211 249.887 -88.6399 250.526C-108.656 261.053 -131.304 272.965 -160.37 272.965C-160.861 272.965 -161.349 272.962 -161.844 272.953C-181.508 272.683 -201.586 268.865 -221.004 265.17C-228.703 263.705 -236.664 262.192 -244.303 260.967C-259.224 258.578 -272.147 257.872 -283.811 258.815C-326.237 262.248 -362.048 276.135 -382.058 296.924L-382.4 296.313C-372.508 286.037 -358.205 277.115 -341.041 270.511C-324.159 264.017 -304.381 259.708 -283.846 258.048C-272.149 257.101 -259.193 257.808 -244.239 260.202C-236.592 261.427 -228.629 262.943 -220.928 264.405C-201.528 268.095 -181.469 271.91 -161.841 272.18C-132.17 272.593 -109.152 260.484 -88.8471 249.803C-87.6303 249.164 -86.4259 248.531 -85.2338 247.906C-80.4592 245.427 -75.8322 243.083 -71.4803 240.937C-54.0724 232.386 -35.4212 223.74 -15.6209 220.151C8.00818 215.869 33.0489 214.881 56.7949 217.298C77.4138 219.397 97.0726 224.354 116.893 232.447C137.307 240.783 157.444 252.257 178.455 267.528C206.532 287.935 235.48 315.542 264.491 349.582C279.164 366.852 294.885 385.132 311.558 402.114C349.772 441.047 386.36 467.78 423.416 483.839C436.95 489.713 451.114 494.726 465.51 498.736C483.291 503.62 500.679 506.897 517.186 508.471C544.964 511.122 574.514 512.484 603.585 497.813C618.881 490.09 631.826 478.106 643.156 461.174C663.343 431.013 675.906 389.873 686.992 353.576C692.569 335.312 697.838 318.062 703.651 303.357C705.748 298.052 707.859 292.568 709.901 287.265C716.286 270.673 722.889 253.518 730.705 237.496C739.747 218.83 749.695 203.35 760.27 191.483C772.417 177.855 785.07 169.438 797.876 166.471C805.88 164.615 814.03 164.32 822.787 165.559C847.256 169.028 872.114 186.169 895.332 204.178C916.772 220.806 937.937 242.899 956.543 268.067C977.24 295.981 996.31 329.211 1013.22 366.829C1028.34 400.47 1041.69 437.466 1052.9 476.795L1052.37 477.071C1028.55 393.474 995.28 321.389 956.147 268.608C937.578 243.488 916.452 221.437 895.055 204.843C871.892 186.875 847.098 169.776 822.732 166.321C814.026 165.087 805.927 165.383 797.974 167.225C774.329 172.703 750.608 197.807 731.179 237.914C723.378 253.903 716.783 271.042 710.404 287.617C708.362 292.922 706.251 298.406 704.152 303.717C698.351 318.389 693.088 335.622 687.516 353.866C676.411 390.22 663.827 431.426 643.575 461.688C632.181 478.712 619.164 490.763 603.782 498.53C590.432 505.267 576.033 509.169 559.755 510.45C555.354 510.812 550.971 510.955 546.656 510.955Z" fill="#FFE492"/>
<path d="M567.312 513.977C567.162 513.977 567.015 513.977 566.865 513.977C552.079 513.927 537.562 511.466 523.959 508.948C507.452 505.895 490.05 501.092 472.234 494.679C457.883 489.457 443.791 483.286 430.352 476.343C394.719 457.959 359.618 429.568 319.884 386.988C305.575 371.658 291.493 355.15 277.873 339.189C276.17 337.191 274.465 335.195 272.76 333.2C243.63 299.202 213.716 272.982 183.851 255.271C142.956 231.021 101.712 221.03 57.7611 224.728C33.6622 226.757 8.68512 232.302 -14.4699 240.764C-32.7396 247.442 -49.0189 258.157 -68.4048 271.469C-72.334 274.179 -76.53 277.104 -81.6063 280.676L-81.8895 280.877C-91.683 287.815 -102.783 295.677 -115.234 301.655C-129.533 308.52 -143.406 311.825 -157.631 311.786C-179.814 311.71 -202.452 306.095 -224.343 300.661C-229.706 299.33 -235.255 297.954 -240.61 296.709C-255.968 293.146 -268.968 291.345 -280.354 291.209C-322.277 290.706 -359.625 299.157 -382.819 314.389L-383.086 313.636C-371.725 306.173 -356.4 300.117 -338.768 296.121C-321.104 292.116 -300.901 290.129 -280.348 290.374C-268.929 290.511 -255.896 292.314 -240.505 295.886C-235.146 297.131 -229.598 298.507 -224.232 299.838C-202.368 305.263 -179.758 310.873 -157.629 310.948C-157.531 310.948 -157.43 310.948 -157.332 310.948C-125.678 310.948 -101.563 293.868 -82.1726 280.135L-81.8874 279.934C-76.8091 276.359 -72.6131 273.434 -68.6817 270.724C-49.2631 257.389 -32.955 246.655 -14.6279 239.957C8.5661 231.479 33.5842 225.925 57.7242 223.893C79.2316 222.085 99.5183 223.463 119.747 228.113C141.546 233.123 162.596 241.755 184.097 254.506C214.019 272.25 243.985 298.512 273.162 332.566C274.867 334.562 276.572 336.56 278.275 338.558C291.889 354.514 305.967 371.016 320.264 386.335C359.947 428.862 394.996 457.214 430.569 475.567C443.99 482.502 458.062 488.662 472.392 493.878C490.183 500.283 507.56 505.077 524.041 508.125C553.561 513.589 582.461 517.379 611.453 503.939C627.187 496.643 640.22 484.584 651.294 467.069C671.3 435.429 682.228 391.587 691.871 352.903C696.385 334.793 700.649 317.685 705.459 303.31C707.31 297.778 709.167 292.057 710.962 286.523C716.576 269.22 722.38 251.33 729.498 234.462C737.691 214.901 746.951 198.357 757.018 185.29C768.494 170.398 780.723 160.485 793.366 155.83C801.206 152.944 809.206 151.538 817.803 151.538C817.99 151.538 818.177 151.538 818.366 151.54C845.093 151.73 872.598 168.246 893.576 182.614C915.923 197.922 937.822 219.233 956.906 244.244C978.167 272.03 997.387 305.587 1014.03 343.986C1028.97 378.445 1041.65 416.309 1051.72 456.53L1051.14 456.801C1036.15 396.954 1007.56 311.604 956.479 244.85C937.44 219.894 915.592 198.633 893.299 183.362C872.383 169.033 844.962 152.565 818.364 152.378C809.604 152.308 801.485 153.709 793.528 156.639C770.102 165.266 747.552 193.052 730.032 234.878C722.93 251.707 717.132 269.577 711.524 286.86C709.729 292.398 707.87 298.122 706.019 303.656C701.222 317.995 696.962 335.081 692.454 353.171C682.794 391.925 671.845 435.85 651.762 467.613C640.614 485.246 627.493 497.386 611.653 504.729C598.227 510.949 583.717 513.977 567.312 513.977Z" fill="#FFE492"/>
<path d="M583.73 517.906C580.546 517.906 577.292 517.767 573.959 517.488C559.375 516.268 545.201 512.609 530.756 508.646C514.011 504.053 497.099 497.907 479.055 489.858C464.779 483.434 450.779 476.116 437.444 468.104C403.615 447.809 370.027 417.933 328.536 371.236C318.232 359.64 307.932 347.477 297.97 335.714C292.547 329.312 286.941 322.689 281.387 316.223C251.91 281.996 220.997 257.135 189.505 242.326C147.896 222.76 105.131 219.176 58.7638 231.372C34.2668 237.816 9.31232 247.922 -13.3996 260.595C-31.6446 270.776 -47.5381 285.074 -64.3653 300.212L-65.5287 301.258C-68.1571 303.63 -70.8143 306.036 -73.5042 308.47C-75.0534 309.873 -76.6128 311.286 -78.1866 312.709C-87.9985 321.631 -98.5963 330.939 -110.749 338.103C-124.86 346.42 -138.817 350.511 -153.422 350.612C-177.736 350.773 -202.537 343.087 -226.518 335.647C-229.941 334.584 -233.482 333.487 -236.919 332.446C-253.032 327.562 -265.735 324.752 -276.902 323.596C-318.107 319.334 -356.993 322.337 -383.593 331.837L-383.764 330.961C-357.094 321.436 -318.127 318.422 -276.85 322.692C-265.653 323.85 -252.918 326.669 -236.774 331.561C-233.335 332.605 -229.793 333.702 -226.369 334.765C-202.68 342.113 -178.193 349.707 -154.201 349.707C-153.943 349.707 -153.684 349.707 -153.424 349.705C-122.391 349.492 -100.301 331.726 -78.5538 311.955C-76.9801 310.532 -75.4207 309.12 -73.8715 307.716C-71.1815 305.28 -68.5265 302.877 -65.896 300.502L-64.7326 299.455C-47.8767 284.293 -31.9565 269.97 -13.6519 259.755C9.10098 247.057 34.0986 236.935 58.6387 230.479C105.123 218.253 148.003 221.847 189.725 241.467C221.294 256.314 252.279 281.231 281.822 315.533C287.376 322.003 292.984 328.622 298.407 335.027C308.365 346.788 318.663 358.948 328.961 370.535C370.402 417.179 403.944 447.013 437.713 467.275C451.029 475.273 465.008 482.583 479.265 488.996C497.282 497.034 514.169 503.171 530.889 507.756C556.27 514.719 587.859 523.388 619.315 510.036C635.488 503.174 648.608 491.039 659.423 472.937C679.235 439.782 688.422 393.15 696.528 352.01C700.049 334.137 703.375 317.255 707.257 303.245C708.77 297.786 710.286 292.14 711.751 286.679C716.667 268.362 721.752 249.424 728.281 231.411C735.645 210.941 744.215 193.333 753.754 179.077C764.564 162.924 776.37 151.518 788.845 145.174C796.851 141.102 805.057 138.593 813.931 137.502C825.815 136.04 838.465 137.602 852.602 142.269C864.564 146.221 877.388 152.355 891.809 161.026C915.064 175.011 937.696 195.543 957.258 220.401C979.086 248.056 998.455 281.945 1014.83 321.123C1029.58 356.403 1041.59 395.134 1050.54 436.246L1049.9 436.503C1031.01 349.707 997.947 273.196 956.803 221.066C937.294 196.275 914.726 175.801 891.538 161.858C860.469 143.176 835.83 135.721 813.99 138.406C805.176 139.489 797.028 141.981 789.077 146.022C759.397 161.113 739.958 201.005 728.878 231.811C722.365 249.778 717.287 268.694 712.377 286.988C710.91 292.453 709.393 298.102 707.881 303.563C704.011 317.532 700.69 334.394 697.173 352.244C689.049 393.474 679.843 440.204 659.94 473.51C649.038 491.753 635.814 503.986 619.512 510.904C608.463 515.593 596.68 517.906 583.73 517.906Z" fill="#FFE492"/>
<path d="M597.957 522.411C576.259 522.411 555.398 514.829 537.551 508.343C520.76 502.242 503.857 494.617 485.875 485.036C471.678 477.417 457.769 468.95 444.534 459.866C404.862 432.666 369.494 393.625 337.186 355.485C330.589 347.698 323.925 339.672 317.482 331.911C308.536 321.132 299.284 309.988 290.014 299.249C260.096 264.684 228.184 241.177 195.166 229.38C152.452 214.123 108.163 216.944 59.7684 238.01C34.8508 248.855 9.9209 263.521 -12.3273 280.422C-29.4868 293.455 -44.0057 309.91 -59.376 327.331C-60.4656 328.564 -61.5572 329.803 -62.6549 331.043L-63.2499 331.718C-66.9863 335.957 -70.85 340.339 -74.7669 344.737C-84.1521 355.323 -94.4872 366.272 -106.441 374.636C-120.318 384.345 -134.307 389.187 -149.214 389.438C-175.379 389.882 -202.047 379.877 -227.835 370.201C-229.642 369.523 -231.442 368.847 -233.233 368.18C-250.239 361.834 -262.644 358.072 -273.453 355.979C-313.624 348.204 -354.054 345.759 -384.376 349.272L-384.438 348.298C-354.066 344.776 -313.577 347.224 -273.353 355.01C-262.513 357.109 -250.081 360.88 -233.044 367.237C-231.253 367.904 -229.453 368.58 -227.644 369.261C-201.905 378.917 -175.289 388.897 -149.224 388.462C-116.852 387.915 -94.0543 365.217 -75.2266 343.984C-71.3096 339.585 -67.446 335.204 -63.7096 330.967L-63.1145 330.292C-62.0168 329.05 -60.9252 327.814 -59.8357 326.58C-44.4386 309.129 -29.8951 292.646 -12.6781 279.568C9.61105 262.636 34.5881 247.945 59.5488 237.08C82.4926 227.094 104.043 221.329 125.429 219.453C149.286 217.363 172.809 220.385 195.346 228.437C228.469 240.27 260.476 263.844 290.478 298.504C299.754 309.249 309.008 320.395 317.956 331.177C324.399 338.938 331.059 346.962 337.654 354.745C369.929 392.843 405.254 431.843 444.855 458.992C458.07 468.062 471.959 476.519 486.136 484.126C504.091 493.693 520.968 501.307 537.733 507.399C563.476 516.754 595.513 528.398 627.169 516.146C643.781 509.716 656.987 497.506 667.543 478.818C687.151 444.103 694.488 394.601 700.962 350.925C703.563 333.376 706.02 316.801 709.048 303.19C710.168 298.155 711.293 292.953 712.38 287.921C716.636 268.24 721.037 247.886 727.055 228.37C733.602 206.972 741.484 188.296 750.479 172.865C760.627 155.453 772.011 142.554 784.314 134.525C792.304 129.311 800.536 125.697 809.486 123.473C821.542 120.478 834.92 120.579 849.249 123.772C861.796 126.568 875.516 131.84 890.029 139.445C914.191 152.107 937.558 171.858 957.602 196.563C979.996 224.089 999.517 258.305 1015.62 298.264C1030.18 334.364 1041.52 373.966 1049.35 415.968L1048.65 416.208C1032.07 327.208 999.569 249.46 957.122 197.288C937.141 172.664 913.853 152.978 889.772 140.358C858.558 124 832.337 118.79 809.615 124.436C800.731 126.643 792.556 130.232 784.624 135.407C755.352 154.51 737.521 196.708 727.718 228.747C721.714 248.213 717.319 268.539 713.07 288.195C711.982 293.227 710.856 298.431 709.735 303.472C706.717 317.038 704.263 333.591 701.665 351.117C698.551 372.13 695.022 395.944 689.898 418.271C684.028 443.852 676.902 463.851 668.114 479.413C663.031 488.41 657.192 496.068 650.755 502.175C643.832 508.742 635.963 513.76 627.366 517.086C617.53 520.896 607.658 522.411 597.957 522.411Z" fill="#FFE492"/>
<path d="M610.786 527.354C603.613 527.354 596.097 526.405 588.158 524.51C572.523 520.779 557.557 514.008 544.351 508.039C527.707 500.512 510.328 491.148 492.7 480.211C478.594 471.409 464.775 461.791 451.631 451.621C413.903 422.465 381.4 383.698 345.842 339.731C342.682 335.823 339.473 331.838 336.37 327.981C324.152 312.802 311.518 297.106 298.647 282.275C268.233 247.306 235.323 225.155 200.832 216.436C157.324 205.438 110.202 214.926 60.7788 244.643C35.418 259.893 10.5107 279.116 -11.2491 300.24C-27.6331 316.145 -41.1199 334.897 -55.3987 354.751C-56.8493 356.769 -58.3062 358.792 -59.7712 360.824C-63.4173 365.886 -67.3445 371.32 -71.3395 376.76C-79.7172 388.205 -89.9271 401.247 -102.125 411.162C-115.78 422.264 -129.805 427.86 -144.997 428.265C-172.807 429.01 -201.117 416.485 -228.494 404.372L-229.537 403.912C-242.941 397.984 -257.122 391.995 -269.995 388.358C-309.234 377.276 -350.13 369.582 -385.145 366.693L-385.097 365.649C-350.046 368.541 -309.113 376.241 -269.839 387.334C-256.929 390.982 -242.724 396.979 -229.299 402.916L-228.256 403.376C-200.938 415.46 -172.686 427.955 -145.011 427.215C-113.049 426.361 -90.9756 402.103 -71.8832 376.014C-67.8883 370.578 -63.9651 365.144 -60.319 360.084C-58.854 358.055 -57.3972 356.029 -55.9465 354.014C-41.6431 334.127 -28.1317 315.341 -11.6944 299.383C10.1065 278.217 35.061 258.958 60.469 243.681C83.6569 229.74 106.475 220.134 128.287 215.133C153.208 209.42 177.664 209.509 200.975 215.401C235.598 224.153 268.629 246.382 299.146 281.472C312.027 296.316 324.667 312.017 336.891 327.205C339.994 331.059 343.203 335.045 346.363 338.952C381.886 382.877 414.355 421.603 452.014 450.709C465.14 460.862 478.939 470.465 493.025 479.257C510.627 490.177 527.978 499.526 544.598 507.042C570.65 518.825 603.073 533.486 635.045 522.252C652.098 516.26 665.39 503.978 675.682 484.699C695.074 448.376 700.686 393.628 705.196 349.635C706.952 332.5 708.61 316.315 710.859 303.143C711.567 298.99 712.283 294.711 712.974 290.573C716.565 269.072 720.281 246.837 725.852 225.336C734.455 191.877 750.798 147.117 779.801 123.889C787.809 117.475 796.072 112.753 805.059 109.455C828.573 100.7 856.57 103.532 888.269 117.869C913.339 129.208 937.44 148.178 957.966 172.729C980.927 200.124 1000.6 234.669 1016.44 275.413C1023.7 294.1 1030.12 314.06 1035.52 334.738C1040.68 354.489 1044.94 374.999 1048.17 395.698L1047.42 395.916C1033.17 304.705 1001.22 225.721 957.458 173.513C937.007 149.054 912.998 130.157 888.025 118.86C856.474 104.587 828.626 101.763 805.26 110.462C796.339 113.736 788.139 118.422 780.191 124.787C751.387 147.854 735.138 192.385 726.578 225.68C721.019 247.125 717.312 269.329 713.723 290.801C713.032 294.94 712.318 299.221 711.608 303.377C709.367 316.505 707.709 332.667 705.957 349.778C703.688 371.915 701.116 397.004 696.721 420.685C691.672 447.896 684.993 469.036 676.304 485.313C671.346 494.598 665.548 502.429 659.072 508.586C652.096 515.219 644.075 520.159 635.236 523.263C627.478 525.992 619.375 527.354 610.786 527.354Z" fill="#FFE492"/>
<path d="M622.601 532.573C614.004 532.573 604.937 531.058 595.252 528.018C579.56 523.098 564.462 514.932 551.142 507.726C534.372 498.656 517.003 487.774 499.517 475.38C485.503 465.403 471.776 454.636 458.718 443.374C422.786 412.41 391.968 372.501 359.339 330.253C357.724 328.162 356.11 326.069 354.491 323.976C339.317 304.351 323.629 284.056 307.274 265.301C276.33 229.888 242.423 209.091 206.495 203.487C161.367 196.445 112.679 212.523 61.7807 251.269C36.3214 270.649 10.7657 295.077 -10.1796 320.052C-25.9952 338.91 -38.6797 360.129 -52.109 382.595C-53.6992 385.255 -55.2935 387.923 -56.9001 390.597C-60.1092 395.947 -63.9276 402.29 -67.9246 408.779C-75.3277 420.827 -85.4146 436.138 -97.82 447.656C-111.258 460.134 -125.313 466.494 -140.79 467.094C-153.511 467.527 -167.55 464.856 -183.71 458.925C-197.585 453.835 -211.006 447.181 -225.857 439.646C-239.414 432.683 -253.721 425.491 -266.558 420.741C-304.58 406.669 -344.743 394.348 -385.928 384.111L-385.78 383.014C-344.571 393.254 -304.385 405.586 -266.342 419.663C-253.471 424.427 -239.143 431.631 -225.57 438.599C-200.677 451.234 -169.696 466.963 -140.812 465.978C-107.79 464.694 -86.5677 437.383 -68.5545 408.059C-64.5596 401.576 -60.7432 395.235 -57.5361 389.888C-55.9295 387.214 -54.3353 384.546 -52.7471 381.889C-39.2953 359.387 -26.5882 338.131 -10.7213 319.212C10.2671 294.187 35.872 269.711 61.3806 250.295C112.433 211.432 161.289 195.312 206.59 202.379C223.958 205.089 241.02 211.382 257.295 221.083C274.758 231.49 291.751 246.083 307.803 264.45C324.177 283.224 339.875 303.53 355.057 323.17C356.676 325.266 358.293 327.356 359.908 329.446C392.505 371.658 423.297 411.528 459.159 442.434C472.199 453.678 485.905 464.431 499.899 474.392C517.36 486.767 534.702 497.634 551.447 506.691C577.764 520.924 610.518 538.638 642.904 528.364C660.447 522.799 673.828 510.441 683.803 490.587C703.023 452.665 706.446 394.735 709.197 348.19C710.182 331.542 711.112 315.819 712.652 303.103C712.971 300.48 713.289 297.843 713.607 295.191C716.483 271.243 719.458 246.477 724.631 222.308C732.014 187.545 746.791 140.408 775.271 113.258C783.215 105.684 791.505 99.8567 800.615 95.4415C813.277 89.2486 827.388 86.3378 842.553 86.7843C856.399 87.1918 871.182 90.3929 886.491 96.2955C912.463 106.306 937.299 124.494 958.31 148.892C981.838 176.153 1001.66 211.033 1017.23 252.558C1024.38 271.611 1030.56 291.982 1035.62 313.103C1040.46 333.331 1044.29 354.302 1046.98 375.431L1046.17 375.621C1034.42 283.548 1002.2 201.218 957.778 149.74C936.856 125.449 912.127 107.336 886.265 97.3644C854.377 85.0679 824.856 84.7665 800.888 96.4881C791.848 100.87 783.622 106.652 775.739 114.168C747.456 141.131 732.763 188.025 725.417 222.615C720.259 246.72 717.288 271.45 714.415 295.367C714.097 298.018 713.779 300.659 713.461 303.282C711.924 315.95 710.997 331.654 710.014 348.276C707.254 394.956 703.821 453.053 684.479 491.218C679.669 500.788 673.918 508.798 667.387 515.018C660.359 521.711 652.185 526.567 643.091 529.453C636.525 531.529 629.725 532.573 622.601 532.573Z" fill="#FFE492"/>
<path d="M633.706 538.007C623.911 538.007 613.533 535.853 602.348 531.527C586.524 525.407 571.332 515.848 557.932 507.417C540.996 496.761 523.635 484.356 506.332 470.552C492.418 459.417 478.784 447.497 465.804 435.131C433.842 404.688 406.526 367.394 377.605 327.909C372.878 321.454 367.988 314.781 363.138 308.22C346.087 285.167 331.527 266.159 315.898 248.328C284.402 212.446 249.5 193.002 212.159 190.535C165.237 187.434 114.977 210.096 62.7784 257.889C36.8471 281.634 11.3139 310.743 -9.11627 339.857C-24.5072 361.79 -36.5392 385.666 -49.277 410.943C-50.8549 414.074 -52.4389 417.216 -54.0332 420.362C-56.873 425.974 -60.6319 433.37 -64.512 440.785C-80.8406 472.065 -102.174 504.269 -136.585 505.915C-137.658 505.963 -138.735 505.985 -139.811 505.985C-166.682 505.985 -194.115 491.52 -222.18 475.37L-223.932 474.354C-237.833 466.282 -250.965 458.661 -263.12 453.112C-308.928 432.203 -353.229 414.554 -386.707 401.515L-386.467 400.374C-352.981 413.418 -308.667 431.07 -262.843 451.988C-250.655 457.55 -237.509 465.183 -223.589 473.262L-221.839 474.278C-192.746 491.021 -164.334 505.954 -136.616 504.732C-102.586 503.102 -81.4315 471.147 -65.224 440.101C-61.346 432.692 -57.5911 425.302 -54.7514 419.692C-53.1571 416.544 -51.5751 413.404 -49.9972 410.273C-37.2389 384.957 -25.1884 361.042 -9.74823 339.039C10.723 309.864 36.3075 280.696 62.29 256.904C86.4053 234.823 110.529 217.869 133.99 206.507C160.908 193.471 187.223 187.699 212.2 189.349C249.734 191.827 284.813 211.366 316.456 247.415C332.108 265.274 346.682 284.302 363.749 307.374C368.602 313.935 373.491 320.611 378.221 327.066C407.113 366.512 434.402 403.77 466.302 434.151C479.264 446.504 492.878 458.404 506.771 469.523C524.049 483.309 541.383 495.695 558.295 506.334C584.842 523.037 617.88 543.824 650.763 534.466C668.737 529.35 682.202 516.92 691.923 496.466C710.901 456.816 712.042 395.626 712.959 346.46C713.258 330.418 713.541 315.264 714.446 303.054L714.467 302.775C716.496 275.433 718.595 247.161 723.407 219.267C727.574 194.936 733.379 173.061 740.656 154.246C748.864 133.032 758.984 115.662 770.737 102.615C778.599 93.885 786.917 86.9497 796.165 81.4154C821.15 66.3755 851.768 64.0535 884.708 74.7062C897.965 78.993 911.042 85.4873 923.578 94.005C936.187 102.573 947.989 113.019 958.657 125.048C982.756 152.178 1002.73 187.387 1018.03 229.699C1031.78 267.73 1041.38 311.114 1045.79 355.156L1044.93 355.315C1035.49 261.051 1003.84 177.454 958.101 125.96C936.71 101.842 911.261 84.5161 884.51 75.8672C851.756 65.2759 821.331 67.5728 796.52 82.5094C787.344 88.0018 779.094 94.8813 771.291 103.541C749.348 127.903 733.085 168.016 724.258 219.543C719.459 247.365 717.364 275.597 715.337 302.9L715.316 303.179C714.413 315.345 714.13 330.477 713.831 346.496C712.909 395.813 711.765 457.187 692.654 497.116C687.967 506.979 682.257 515.161 675.687 521.435C668.602 528.2 660.278 532.976 650.942 535.635C645.381 537.215 639.65 538.007 633.706 538.007Z" fill="#FFE492"/>
<path d="M-135.945 544.841C-147.961 544.841 -161.046 541.656 -175.813 535.154C-190.485 528.693 -204.996 519.773 -218.493 511.099C-220.937 509.52 -223.362 507.943 -225.771 506.377C-237.762 498.582 -249.088 491.22 -259.674 485.485C-301.882 462.625 -342.115 442.079 -381.024 422.213L-387.471 418.92L-387.147 417.745L-380.7 421.038C-341.788 440.909 -301.55 461.456 -259.333 484.321C-248.719 490.07 -237.378 497.441 -225.373 505.247C-222.966 506.813 -220.541 508.389 -218.099 509.966C-190.393 527.772 -160.957 545.028 -132.408 543.49C-97.3132 541.503 -76.2818 504.318 -61.8819 472.147C-58.1927 463.92 -54.6389 455.72 -51.9551 449.497C-50.4737 446.067 -49.0025 442.64 -47.5354 439.221C-35.368 410.88 -23.8756 384.11 -8.76172 358.869C11.1884 325.558 36.7482 291.694 63.2129 263.52C87.7653 237.381 112.541 216.728 136.856 202.138C164.744 185.401 191.985 176.716 217.819 176.322C256.694 175.535 292.8 193.726 325.121 230.384C343.037 250.729 359.101 272.738 372.455 291.585C379.72 301.841 386.986 312.354 394.013 322.521C418.888 358.515 444.61 395.731 473.457 425.875C486.342 439.344 499.868 452.394 513.654 464.66C530.716 479.806 548.041 493.71 565.154 505.984C591.901 525.168 625.189 549.044 658.632 540.571C677.039 535.907 690.587 523.404 700.052 502.347C718.777 460.9 717.513 396.359 716.496 344.499C716.196 329.164 715.911 314.676 716.253 303.013C717.023 276.721 718.182 246.164 722.198 216.234C725.581 190.874 730.69 167.93 737.383 148.043C744.955 125.546 754.656 106.685 766.216 91.9829C773.875 82.24 782.46 73.9707 791.729 67.401C804.955 57.9959 819.796 52.082 835.843 49.827C850.871 47.7144 866.715 48.8251 882.935 53.1258C896.615 56.7539 910.097 62.7208 923.01 70.8645C936.002 79.0584 948.116 89.2674 959.011 101.207C971.573 114.954 983.123 131.189 993.339 149.461C1003.02 166.772 1011.6 186.079 1018.84 206.843C1032.39 245.689 1041.3 289.969 1044.61 334.888L1043.7 335.013C1036.57 238.553 1005.5 153.691 958.433 102.186C936.878 78.57 910.005 61.5849 882.759 54.3594C849.069 45.4259 817.74 50.321 792.155 68.5146C782.961 75.0312 774.446 83.2363 766.846 92.9011C745.063 120.603 730.346 162.173 723.105 216.461C719.097 246.309 717.942 276.813 717.175 303.064C716.834 314.685 717.117 329.15 717.419 344.466C717.92 370.05 718.488 399.049 716.584 427.083C714.374 459.614 709.224 484.447 700.84 503.003C696.277 513.156 690.61 521.515 683.999 527.844C676.858 534.682 668.38 539.379 658.802 541.804C653.97 543.029 649.142 543.585 644.343 543.585C615.602 543.585 587.753 523.608 564.725 507.092C547.588 494.798 530.235 480.874 513.152 465.706C499.345 453.424 485.8 440.354 472.896 426.866C443.99 396.66 418.242 359.405 393.342 323.378C386.317 313.214 379.053 302.703 371.792 292.453C358.457 273.628 342.416 251.65 324.532 231.344C292.385 194.882 256.491 176.797 217.834 177.573C157.126 178.499 100.552 225.355 63.7833 264.502C37.3719 292.62 11.8634 326.412 -8.04358 359.656C-23.1123 384.822 -34.5883 411.55 -46.7373 439.846C-48.2043 443.265 -49.6776 446.692 -51.159 450.125C-53.8448 456.351 -57.4007 464.556 -61.0919 472.792C-67.1367 486.297 -76.6265 505.956 -89.1961 520.692C-95.3003 527.847 -101.796 533.471 -108.504 537.409C-115.983 541.799 -124.014 544.266 -132.369 544.737C-133.553 544.807 -134.745 544.841 -135.945 544.841Z" fill="#FFE492"/>
<path d="M-132.09 583.696C-144.12 583.696 -157.178 580.266 -171.867 573.266C-187.076 566.021 -202.111 555.835 -214.812 546.823C-218.715 544.049 -222.609 541.236 -226.377 538.515C-236.907 530.91 -246.854 523.723 -256.233 517.857C-289.914 496.786 -323.375 476.215 -355.737 456.319C-366.442 449.738 -377.509 442.934 -388.236 436.325L-387.834 435.117C-377.107 441.725 -366.039 448.529 -355.335 455.11C-322.973 475.006 -289.508 495.58 -255.825 516.654C-246.421 522.537 -236.461 529.729 -225.919 537.345C-222.154 540.066 -218.259 542.877 -214.361 545.651C-188.019 564.333 -157.465 584.109 -128.208 582.247C-92.2865 579.909 -72.1107 539.305 -58.5439 504.193C-55.066 495.198 -51.703 486.167 -49.1628 479.304C-47.8579 475.782 -46.5611 472.263 -45.2664 468.752C-33.6283 437.173 -22.6366 407.348 -7.77716 378.705C11.5492 341.453 37.0885 302.897 64.1318 270.141C101.793 224.72 160.002 169.316 223.433 163.307C263.772 159.383 300.9 176.223 333.781 213.364C348.554 230.059 363.164 249.315 381.154 275.809C390.246 289.197 399.268 303.073 407.992 316.488C430.692 351.394 454.161 387.488 480.607 417.615C493.419 432.214 506.852 446.411 520.534 459.813C537.1 476.025 554.42 491.447 572.008 505.652C599.025 527.34 632.649 554.336 666.494 546.695C685.051 542.592 699.073 529.657 708.175 508.251C726.642 464.928 722.68 394.052 719.784 342.301C718.972 327.777 718.204 314.06 718.055 302.995C717.718 278.402 717.747 245.975 720.983 213.224C726.568 156.472 740.264 112.109 761.691 81.3731C769.201 70.5446 777.815 61.1366 787.288 53.4088C800.765 42.4016 815.971 34.9975 832.486 31.4057C848.045 28.0232 864.419 28.0762 881.156 31.5648C895.279 34.5733 909.166 40.0266 922.433 47.7685C935.829 55.5884 948.253 65.5518 959.362 77.3822C972.204 91.0518 983.937 107.342 994.231 125.803C1003.99 143.299 1012.54 162.88 1019.64 184.007C1032.98 223.67 1041.2 268.843 1043.43 314.641L1042.46 314.728C1037.66 216.065 1007.16 129.937 958.763 78.4288C936.82 55.061 909.207 38.8824 881.01 32.8765C846.248 25.6342 814.015 33.1276 787.793 54.5474C778.395 62.2111 769.854 71.5437 762.403 82.2857C741.117 112.818 727.507 156.93 721.951 213.403C718.724 246.064 718.697 278.427 719.031 302.972C719.183 313.999 719.949 327.699 720.759 342.203C722.255 368.954 723.95 399.276 722.981 428.879C721.851 463.349 717.285 489.53 709.02 508.918C704.574 519.375 698.952 527.915 692.306 534.301C685.102 541.225 676.472 545.835 666.656 548.006C651.431 551.442 635.045 548.355 616.56 538.568C600.492 530.059 585.097 517.701 571.516 506.8C553.901 492.575 536.559 477.13 519.968 460.896C506.265 447.474 492.813 433.258 479.983 418.639C453.482 388.451 429.986 352.318 407.264 317.376C398.543 303.963 389.524 290.095 380.44 276.719C362.48 250.273 347.898 231.052 333.159 214.396C300.474 177.468 263.581 160.728 223.499 164.627C160.341 170.613 102.325 225.847 64.7761 271.132C37.7861 303.821 12.3001 342.296 -6.98514 379.47C-21.8036 408.031 -32.7789 437.815 -44.3985 469.346C-45.6932 472.86 -46.99 476.379 -48.2949 479.901C-50.8372 486.77 -54.2022 495.809 -57.6842 504.812C-71.37 540.237 -91.7489 581.204 -128.165 583.573C-129.46 583.654 -130.771 583.696 -132.09 583.696Z" fill="#FFE492"/>
<path d="M-128.155 622.552C-161.026 622.552 -195.515 595.093 -226.09 570.749C-235.485 563.269 -244.359 556.203 -252.792 550.227L-389 453.728L-388.526 452.492L-252.318 548.991C-243.863 554.98 -234.978 562.055 -225.571 569.546C-193.814 594.831 -157.819 623.49 -124.006 621.006C-87.2926 618.313 -67.9519 574.29 -55.2038 536.242C-51.0345 523.798 -47.0088 511.136 -43.1143 498.89C-32.4632 465.399 -21.451 430.768 -6.79465 398.536C4.84341 372.944 19.3007 346.104 35.0137 320.923C52.2513 293.296 70.7076 267.949 89.8657 245.589C110.989 220.937 132.468 200.545 153.703 184.98C177.19 167.766 200.329 156.527 222.481 151.574C266.856 141.652 307.216 156.709 342.436 196.331C371.705 229.254 396.582 269.967 420.64 309.341C441.581 343.612 463.234 379.048 487.753 409.34C516.075 444.326 546.727 476.613 578.861 505.3C605.936 529.472 639.631 559.557 674.358 552.795C703.688 547.085 720.646 520.393 726.198 471.19C730.922 429.339 726.428 379.692 722.819 339.803C721.588 326.208 720.426 313.368 719.856 302.955C716.708 245.553 718.715 198.167 725.989 158.093C730.528 133.09 737.225 110.802 745.894 91.8494C755.577 70.678 768.009 53.0286 782.844 39.3925C795.678 27.5955 810.141 19.0276 825.836 13.9259C840.775 9.06986 856.505 7.4428 872.587 9.0894C904.216 12.3268 935.156 28.1119 959.704 53.5337C972.828 67.1224 984.743 83.4712 995.117 102.122C1004.95 119.8 1013.47 139.657 1020.44 161.146C1033.56 201.628 1041.1 247.696 1042.24 294.368L1041.21 294.415C1038.79 195.027 1008.09 105.393 959.081 54.6473C907.038 0.755911 833.159 -5.17464 783.414 40.5507C734.137 85.8462 713.68 171.645 720.876 302.852C721.444 313.231 722.605 326.055 723.834 339.632C727.452 379.609 731.956 429.361 727.21 471.403C724.625 494.302 719.429 512.704 711.77 526.103C707.461 533.636 702.268 539.792 696.332 544.397C690.014 549.298 682.67 552.589 674.502 554.179C671.164 554.83 667.768 555.156 664.315 555.156C651.731 555.156 638.326 550.828 623.639 542.059C607.093 532.179 591.125 517.923 578.295 506.47C546.118 477.741 515.422 445.411 487.06 410.375C462.485 380.019 440.809 344.542 419.845 310.234C395.818 270.91 370.973 230.248 341.777 197.408C306.793 158.057 266.71 143.098 222.641 152.952C133.496 172.885 41.6679 294.61 -5.92874 399.273C-20.5461 431.415 -31.544 465.999 -42.1808 499.445C-46.0772 511.697 -50.105 524.367 -54.2784 536.823C-62.7423 562.083 -71.1015 580.171 -80.5851 593.74C-86.5047 602.207 -92.927 608.883 -99.6734 613.58C-107.175 618.802 -115.345 621.771 -123.959 622.405C-125.35 622.502 -126.752 622.552 -128.155 622.552Z" fill="#FFE492"/>
</g>
</svg>
