<svg width="106" height="29" viewBox="0 0 106 29" fill="none" xmlns="http://www.w3.org/2000/svg">
<path d="M99.7308 15.3251C99.5854 15.3493 99.4386 15.366 99.2961 15.4024C99.2036 15.4252 99.164 15.3585 99.1023 15.3236C99.0818 15.3114 99.0597 15.2872 99.0406 15.2902C98.8967 15.3145 98.7528 15.3418 98.6089 15.3691C98.5648 15.4282 98.5369 15.5071 98.4694 15.5359C98.4033 15.5632 98.3255 15.5632 98.252 15.5768C98.1551 15.5935 98.0582 15.6102 97.9613 15.6254C97.9128 15.633 97.8732 15.6618 97.857 15.7164C97.8541 15.7255 97.8864 15.7482 97.904 15.7619C97.9627 15.8074 98.02 15.859 98.0846 15.8938C98.1463 15.9272 98.2227 15.8726 98.2887 15.9151C98.4371 16.0106 98.4385 16.0091 98.5516 15.9909C98.6485 15.9742 98.7455 15.956 98.8424 15.9439C98.8615 15.9409 98.8835 15.9636 98.9041 15.9757C98.9657 16.0091 99.0054 16.085 99.0964 16.0561C99.1655 16.0334 99.2418 16.0288 99.3138 16.0167C99.374 16.0607 99.4298 16.1107 99.4944 16.1456C99.5546 16.179 99.5723 16.2048 99.5399 16.2488C99.5106 16.2897 99.4694 16.3064 99.4151 16.3094C99.3666 16.311 99.3182 16.3246 99.2697 16.3322C99.2448 16.3367 99.2213 16.3398 99.1978 16.3443C99.1052 16.361 99.1052 16.361 98.9364 16.2639C98.8703 16.226 98.7954 16.2791 98.7322 16.2427C98.6897 16.2184 98.6529 16.182 98.6118 16.1562C98.5942 16.1456 98.5663 16.1441 98.5443 16.1471C98.4708 16.1578 98.3974 16.1653 98.3269 16.1851C98.277 16.1987 98.2476 16.2412 98.2535 16.2836C98.255 16.3003 98.2902 16.3246 98.3108 16.3261C98.3578 16.3292 98.4077 16.3079 98.4532 16.3185C98.4973 16.3291 98.5428 16.3595 98.5751 16.3928C98.6412 16.4626 98.7161 16.4004 98.7792 16.4186C98.8453 16.4384 98.8996 16.499 98.9628 16.5354C98.9789 16.5445 99.0098 16.5294 99.0347 16.5248C99.1067 16.5142 99.1787 16.5051 99.2506 16.4945C99.3109 16.5385 99.3755 16.5779 99.4298 16.6279C99.5282 16.719 99.6339 16.7538 99.7617 16.7098C99.8336 16.6856 99.9041 16.6947 99.9614 16.7538C100.02 16.8145 100.088 16.8084 100.163 16.7963C100.232 16.7842 100.302 16.7508 100.373 16.7933C100.525 16.8873 100.527 16.8919 100.707 16.8555C100.762 16.8448 100.803 16.8418 100.844 16.8767C100.882 16.9085 100.923 16.9358 100.963 16.9662C101.035 16.9556 101.108 16.9449 101.18 16.9328C101.273 16.9161 101.324 16.9374 101.346 17.0223C101.359 17.0739 101.365 17.1209 101.398 17.1558C101.436 17.1982 101.477 17.1967 101.533 17.1846C101.586 17.174 101.624 17.1573 101.646 17.1027C101.655 17.0799 101.672 17.0587 101.688 17.0405C101.702 17.0268 101.722 17.0056 101.734 17.0086C101.756 17.0147 101.785 17.0314 101.793 17.0511C101.865 17.2346 101.865 17.2362 101.938 17.2892C102.019 17.3484 102.103 17.4015 102.176 17.4682C102.242 17.5274 102.308 17.5016 102.38 17.5016C102.434 17.5016 102.47 17.541 102.465 17.5805C102.462 17.6032 102.442 17.6366 102.424 17.6396C102.28 17.6699 102.135 17.6957 101.989 17.7169C101.972 17.72 101.95 17.6927 101.929 17.679C101.888 17.6517 101.851 17.6093 101.807 17.6002C101.763 17.5911 101.712 17.6138 101.663 17.6214C101.615 17.629 101.564 17.6487 101.52 17.6366C101.475 17.6244 101.44 17.5804 101.399 17.5516C101.38 17.538 101.354 17.5183 101.337 17.5228C101.23 17.5592 101.151 17.5092 101.075 17.4424C101.058 17.4288 101.031 17.4197 101.01 17.4227C100.84 17.4485 100.671 17.4788 100.5 17.5076C100.431 17.5198 100.376 17.4667 100.361 17.3772C100.353 17.3272 100.339 17.2771 100.339 17.227C100.339 17.136 100.258 17.086 100.199 17.0966C100.102 17.1118 100.004 17.1239 99.9085 17.1467C99.8307 17.1649 99.7646 17.1467 99.7117 17.0921C99.6501 17.0299 99.5796 17.042 99.5091 17.0587C99.4562 17.0708 99.4415 17.1209 99.4445 17.2468C99.4474 17.3484 99.4224 17.3802 99.327 17.3969C99.2066 17.4182 99.0847 17.4394 98.9628 17.4561C98.9437 17.4591 98.9217 17.4333 98.9026 17.4197C98.8615 17.3924 98.8247 17.3484 98.7807 17.3393C98.7366 17.3287 98.6852 17.3514 98.6368 17.3605C98.5883 17.3681 98.5369 17.3893 98.4929 17.3787C98.4488 17.3681 98.4121 17.3226 98.3724 17.2938C98.3533 17.2801 98.3299 17.2604 98.3108 17.2634C98.2138 17.2756 98.1169 17.2938 98.02 17.3105C97.9113 17.3287 97.9113 17.3287 97.7571 17.2346C97.6866 17.1922 97.6162 17.2255 97.5471 17.2377C97.4737 17.2498 97.4047 17.2559 97.3474 17.1952C97.3092 17.1558 97.2666 17.1315 97.2211 17.1391C97.0992 17.1573 96.9788 17.18 96.8569 17.1982C96.8364 17.2013 96.8085 17.1937 96.7923 17.18C96.7145 17.1163 96.6381 17.0663 96.5295 17.0981C96.4355 17.1254 96.3341 17.1269 96.2402 17.1527C96.1888 17.1664 96.1652 17.2149 96.1755 17.2528C96.1814 17.2726 96.2122 17.2953 96.2328 17.2953C96.2798 17.2968 96.3312 17.2741 96.3753 17.2832C96.4663 17.3014 96.5118 17.4288 96.6308 17.3939C96.7013 17.3726 96.7747 17.3651 96.8481 17.359C96.8672 17.3575 96.8877 17.3863 96.9083 17.4015C96.967 17.4424 97.0185 17.4955 97.1036 17.4682C97.1741 17.447 97.249 17.4409 97.321 17.4288C97.4355 17.4091 97.4355 17.4106 97.5838 17.5031C97.6543 17.5471 97.7248 17.5122 97.7938 17.5016C97.8452 17.494 97.8937 17.4788 97.9348 17.5001C97.998 17.5319 98.0435 17.6047 98.1213 17.6002C98.1947 17.5956 98.2667 17.5744 98.3401 17.5668C98.3857 17.5622 98.4283 17.5865 98.465 17.6275C98.5032 17.6684 98.5443 17.6866 98.5942 17.6775C98.6661 17.6654 98.7396 17.6502 98.813 17.6426C98.8335 17.6411 98.8571 17.6548 98.8762 17.6669C98.9173 17.6942 98.9569 17.726 98.9966 17.7549C99.0685 17.7458 99.142 17.7427 99.2125 17.7245C99.2668 17.7109 99.305 17.717 99.349 17.7473C99.4048 17.7882 99.4504 17.861 99.5414 17.8262C99.5869 17.8095 99.6398 17.814 99.6853 17.7989C99.7411 17.7791 99.7793 17.7867 99.8189 17.8322C99.8938 17.9187 99.9878 17.9202 100.085 17.8868C100.19 17.8504 100.27 17.8929 100.349 17.9596C100.433 18.0294 100.433 18.0279 100.497 18.1962C100.517 18.2448 100.571 18.2675 100.616 18.2584C100.693 18.2433 100.759 18.2508 100.815 18.3085C100.873 18.3707 100.944 18.3631 101.016 18.3464C101.111 18.3236 101.207 18.3039 101.285 18.3919C101.323 18.4344 101.364 18.445 101.415 18.4344C101.561 18.4071 101.707 18.3904 101.85 18.357C101.937 18.3358 101.986 18.3843 102.045 18.4253C102.125 18.4814 102.211 18.5314 102.211 18.6513C102.211 18.671 102.232 18.6937 102.249 18.7089C102.288 18.7407 102.329 18.768 102.368 18.7984C102.427 18.8439 102.484 18.8818 102.565 18.8575C102.636 18.8378 102.71 18.8317 102.782 18.8181C102.854 18.8044 102.92 18.7969 102.985 18.8545C103.06 18.9197 103.139 18.9819 103.224 19.0304C103.285 19.0653 103.364 19.0062 103.429 19.0532C103.468 19.082 103.506 19.1154 103.549 19.1396C103.567 19.1503 103.595 19.1427 103.618 19.1396C103.667 19.1336 103.716 19.129 103.763 19.1139C103.818 19.0972 103.859 19.1002 103.9 19.1351C103.938 19.167 103.976 19.2109 104.02 19.22C104.087 19.2337 104.16 19.173 104.226 19.2428C104.26 19.2777 104.302 19.311 104.346 19.3217C104.39 19.3323 104.442 19.3095 104.489 19.311C104.509 19.311 104.534 19.3353 104.546 19.355C104.553 19.3656 104.543 19.3945 104.533 19.4096C104.52 19.4278 104.501 19.4521 104.482 19.4551C104.336 19.4824 104.191 19.5052 104.045 19.531C103.959 19.5461 103.959 19.5461 103.784 19.4506C103.743 19.4278 103.697 19.4324 103.646 19.443C103.577 19.4566 103.506 19.4824 103.434 19.4551C103.34 19.352 103.224 19.3429 103.101 19.3823C103.05 19.399 103.003 19.399 102.965 19.3702C102.884 19.3125 102.799 19.2595 102.727 19.1912C102.671 19.1381 102.644 19.1336 102.621 19.2064C102.614 19.2291 102.606 19.2534 102.608 19.2746C102.616 19.3505 102.633 19.4248 102.641 19.5006C102.644 19.5219 102.633 19.5461 102.625 19.5689C102.602 19.6326 102.571 19.628 102.52 19.5749C102.468 19.5219 102.407 19.487 102.324 19.5112C102.254 19.5325 102.177 19.5294 102.107 19.5522C101.998 19.5856 101.922 19.537 101.844 19.4718C101.828 19.4582 101.8 19.4506 101.779 19.4536C101.561 19.4885 101.343 19.5279 101.124 19.5628C101.077 19.5704 101.035 19.5476 100.998 19.5067C100.96 19.4657 100.917 19.4445 100.87 19.4521C100.677 19.4839 100.483 19.5128 100.289 19.5522C100.21 19.5689 100.146 19.5492 100.092 19.4961C100.051 19.4566 100.013 19.4445 99.9614 19.4491C99.9056 19.4536 99.866 19.4688 99.8381 19.5128C99.8116 19.5552 99.8307 19.581 99.8894 19.6144C99.9526 19.6508 100.011 19.6978 100.072 19.7403C100.12 19.7342 100.168 19.7221 100.215 19.7236C100.236 19.7236 100.255 19.7509 100.276 19.766C100.334 19.81 100.389 19.854 100.472 19.8298C100.543 19.8085 100.618 19.804 100.69 19.7903C100.79 19.7736 100.79 19.7736 100.951 19.8692C100.992 19.8935 101.036 19.8919 101.089 19.8783C101.135 19.8677 101.182 19.8889 101.214 19.9344C101.227 19.9526 101.223 19.983 101.195 20.0831C101.195 20.1574 101.226 20.124 101.236 20.0755C101.252 20.0057 101.221 19.9829 101.163 20.0209C101.122 20.0482 101.101 20.0876 101.111 20.1195C101.117 20.1361 101.145 20.1574 101.195 20.0831C101.324 19.9921 101.423 19.9814 101.517 19.9572C101.572 19.9435 101.608 19.9496 101.652 19.989C101.705 20.036 101.757 20.0861 101.844 20.0618C101.938 20.0345 102.038 20.0315 102.133 20.0087C102.221 19.9875 102.267 20.0542 102.323 20.0937C102.39 20.1407 102.465 20.0876 102.527 20.1149C102.592 20.1422 102.637 20.2089 102.712 20.2211C102.821 20.1801 102.89 20.256 102.972 20.306C103.036 20.3439 103.113 20.3105 103.182 20.2939C103.26 20.2757 103.324 20.2924 103.379 20.347C103.44 20.4092 103.509 20.3955 103.58 20.3818C103.744 20.3515 103.75 20.347 103.846 20.4304C103.915 20.491 103.981 20.4637 104.05 20.4562C104.11 20.4971 104.169 20.5411 104.232 20.5775C104.248 20.5866 104.279 20.5714 104.304 20.5669C104.376 20.5547 104.449 20.5426 104.521 20.5305C104.57 20.5229 104.621 20.5001 104.665 20.5092C104.709 20.5199 104.746 20.5639 104.786 20.5927C104.825 20.6215 104.866 20.6503 104.904 20.6806C104.963 20.7261 105.019 20.7641 105.101 20.7413C105.172 20.7216 105.245 20.7155 105.319 20.7019C105.411 20.6852 105.408 20.6897 105.58 20.7807C105.673 20.8308 105.768 20.7701 105.862 20.7641C105.909 20.761 105.954 20.7777 105.987 20.8217C106 20.8399 105.996 20.8702 106 20.896C105.758 20.937 105.514 20.9718 105.275 21.0219C105.182 21.0416 105.134 20.987 105.084 20.9415C105.001 20.8687 104.893 20.9749 104.815 20.8808C104.768 20.8247 104.7 20.7929 104.62 20.8202C104.573 20.8354 104.523 20.8338 104.474 20.8475C104.351 20.8808 104.238 20.8824 104.139 20.7777C104.106 20.7413 104.057 20.7216 104.022 20.6867C103.981 20.6488 103.941 20.6275 103.893 20.6351C103.674 20.6715 103.457 20.7079 103.239 20.7474C103.22 20.7504 103.201 20.7732 103.185 20.7898C103.144 20.8323 103.157 20.8657 103.223 20.893C103.245 20.9021 103.263 20.9218 103.283 20.937C103.323 20.9658 103.36 21.0113 103.404 21.0219C103.448 21.0325 103.499 21.0113 103.548 21.0037C103.596 20.9961 103.647 20.9734 103.691 20.9825C103.736 20.9931 103.772 21.0371 103.813 21.0644C103.832 21.078 103.856 21.1008 103.875 21.0993C103.972 21.0902 104.067 21.0735 104.164 21.0598C104.225 21.1008 104.276 21.1599 104.348 21.1736C104.393 21.1827 104.442 21.166 104.489 21.169C104.509 21.1705 104.536 21.1933 104.546 21.213C104.552 21.2251 104.533 21.2555 104.518 21.2706C104.462 21.3283 104.386 21.3177 104.317 21.3359C104.242 21.3556 104.175 21.3495 104.117 21.2904C104.079 21.2509 104.037 21.2297 103.99 21.2373C103.868 21.257 103.747 21.2798 103.625 21.2964C103.605 21.2995 103.58 21.2858 103.561 21.2752C103.407 21.1827 103.407 21.1796 103.298 21.1994C103.138 21.2282 103.138 21.2282 103.031 21.1478C103.01 21.1326 102.988 21.1038 102.97 21.1053C102.8 21.1296 102.631 21.1539 102.462 21.1887C102.406 21.1994 102.368 21.1994 102.327 21.1599C102.292 21.1266 102.251 21.0886 102.207 21.0795C102.161 21.0704 102.111 21.0932 102.063 21.1008C102.014 21.1084 101.963 21.1281 101.92 21.1159C101.876 21.1038 101.838 21.0613 101.8 21.031C101.76 20.9992 101.718 21.0007 101.663 21.0128C101.496 21.0477 101.495 21.0431 101.329 20.9491C101.31 20.9385 101.285 20.9263 101.264 20.9294C101.142 20.9476 101.022 20.9703 100.9 20.9885C100.853 20.9961 100.807 20.9764 100.775 20.9324C100.762 20.9142 100.766 20.8839 100.757 20.8247C100.747 20.8111 100.759 20.8354 100.762 20.8581C100.784 20.8551 100.81 20.8581 100.826 20.846C100.867 20.8171 100.888 20.7792 100.878 20.7474C100.872 20.7307 100.844 20.7094 100.826 20.7094C100.794 20.7094 100.766 20.7428 100.757 20.8247C100.665 20.8748 100.566 20.8854 100.471 20.9097C100.415 20.9248 100.38 20.9173 100.336 20.8778C100.283 20.8293 100.229 20.7823 100.142 20.8065C100.048 20.8338 99.9482 20.8384 99.8512 20.8596C99.7396 20.8839 99.6912 20.7474 99.5972 20.7504C99.5003 20.7534 99.4034 20.7792 99.3064 20.7974C99.2213 20.8126 99.2213 20.8126 99.045 20.714C98.9804 20.6776 98.9041 20.7307 98.8409 20.6928C98.7983 20.6685 98.7616 20.6321 98.7205 20.6063C98.7029 20.5957 98.675 20.5957 98.6529 20.5987C98.5311 20.6169 98.4077 20.6291 98.2902 20.6624C98.1566 20.7019 98.0553 20.6594 97.9598 20.5699C97.8394 20.5866 97.7175 20.5957 97.5985 20.6245C97.5119 20.6458 97.462 20.5957 97.4032 20.5548C97.3827 20.5411 97.3651 20.5183 97.343 20.5123C97.321 20.5062 97.2945 20.5183 97.271 20.5229C97.1741 20.5396 97.0742 20.5472 96.9803 20.5745C96.8643 20.6094 96.8202 20.485 96.7306 20.4698C96.6704 20.5441 96.6381 20.6457 96.5192 20.6533C96.4222 20.6594 96.3253 20.6837 96.2284 20.7004C96.1799 20.7079 96.1315 20.717 96.083 20.7246C96.0052 20.7383 95.9685 20.7974 95.9846 20.8884C95.9934 20.9385 96.0008 20.9885 96.0081 21.0386C96.0228 21.1281 95.9861 21.2039 95.9244 21.2145C95.7541 21.2433 95.5852 21.2737 95.4148 21.2995C95.3693 21.307 95.3252 21.2813 95.2885 21.2403C95.2503 21.1993 95.2078 21.1812 95.1608 21.1887C94.9904 21.2176 94.8215 21.2479 94.6512 21.2737C94.6321 21.2767 94.6072 21.2615 94.5881 21.2494C94.5469 21.2221 94.5073 21.1903 94.4676 21.1614C94.3707 21.1751 94.2753 21.1842 94.1798 21.2024C94.0256 21.2297 94.0256 21.2312 93.9125 21.1478C93.892 21.1326 93.8714 21.1038 93.8523 21.1053C93.7789 21.1114 93.7069 21.1266 93.6335 21.1402C93.4176 21.1796 93.4176 21.1796 93.3545 21.1341C93.2972 21.0917 93.2458 21.0401 93.1591 21.0644C93.0652 21.0917 92.9653 21.1008 92.8684 21.1159C92.7964 21.1266 92.7245 21.1387 92.6525 21.1417C92.6334 21.1432 92.6129 21.1144 92.5923 21.0993C92.5336 21.0522 92.4763 21.0143 92.3955 21.0401C92.3485 21.0553 92.2986 21.0583 92.2501 21.0659C92.1238 21.0871 92.1238 21.0871 91.9168 20.9961C91.8962 20.987 91.8713 20.9764 91.8507 20.9809C91.6804 21.0082 91.5115 21.0386 91.3411 21.0644C91.3206 21.0674 91.2956 21.0583 91.275 21.0507C91.043 20.9627 91.043 20.9628 90.7963 21.0052C90.7023 21.0204 90.6994 21.0265 90.601 20.9461C90.5569 20.9112 90.5202 20.8945 90.4688 20.9051C90.275 20.9415 90.0797 20.9658 89.8873 21.0083C89.8007 21.0265 89.7507 20.9809 89.692 20.94C89.6714 20.9263 89.6494 20.896 89.6318 20.8975C89.4379 20.9264 89.244 20.9612 89.0502 20.9901C89.0326 20.9931 89.0106 20.9628 88.99 20.9491C88.9504 20.9218 88.9122 20.8808 88.8681 20.8717C88.8226 20.8626 88.7727 20.8854 88.7227 20.893C88.6008 20.9127 88.6008 20.9112 88.4598 20.8217C88.4408 20.8096 88.4158 20.7929 88.3967 20.7959C88.2029 20.8262 88.0076 20.852 87.8152 20.896C87.705 20.9203 87.6301 20.8763 87.5523 20.8126C87.5362 20.7989 87.5083 20.7929 87.4877 20.7959C87.2689 20.8308 87.0516 20.8702 86.8327 20.9051C86.7872 20.9127 86.7431 20.8869 86.7064 20.8475C86.6477 20.7853 86.5787 20.7929 86.5053 20.8065C86.3364 20.8384 86.3349 20.8369 86.235 20.7641C86.2145 20.7489 86.1969 20.7292 86.1748 20.7216C86.1543 20.714 86.1279 20.7186 86.1058 20.7216C86.0089 20.7368 85.912 20.7534 85.8151 20.7701C85.7181 20.7868 85.6197 20.7959 85.5243 20.8217C85.4068 20.8536 85.351 20.7549 85.2687 20.7094C85.1483 20.7292 85.025 20.7413 84.906 20.7732C84.815 20.7974 84.7724 20.7307 84.7122 20.6958C84.6916 20.6837 84.6696 20.6579 84.6505 20.6609C84.4317 20.6943 84.2129 20.7307 83.9955 20.7716C83.9427 20.7807 83.9074 20.7686 83.8634 20.7322C83.765 20.6503 83.7606 20.6533 83.5961 20.6837C83.5241 20.6973 83.4551 20.7095 83.3934 20.6473C83.3391 20.5912 83.273 20.5775 83.1952 20.5957C83.0997 20.6184 83.0013 20.6306 82.9044 20.6458C82.8075 20.6624 82.7106 20.6852 82.6137 20.6928C82.5358 20.7003 82.4888 20.6291 82.4272 20.5927C82.4081 20.5821 82.3816 20.5805 82.3596 20.5836C82.2627 20.5972 82.1628 20.6078 82.0688 20.6336C81.9543 20.6655 81.8911 20.5821 81.8104 20.5335C81.7928 20.5229 81.7634 20.529 81.7413 20.5335C81.571 20.5608 81.4021 20.5911 81.2318 20.62C81.1715 20.579 81.1099 20.5396 81.0497 20.4986C80.9527 20.5138 80.8558 20.5305 80.7589 20.5456C80.6855 20.5578 80.6106 20.5623 80.5415 20.5851C80.452 20.6154 80.4079 20.5441 80.3477 20.5092C80.3271 20.4971 80.3051 20.4713 80.286 20.4744C80.1641 20.491 80.0423 20.5093 79.9218 20.535C79.8073 20.5608 79.7618 20.4243 79.6678 20.4258C79.5709 20.4273 79.471 20.4471 79.377 20.4744C79.2683 20.5062 79.192 20.4577 79.1141 20.3925C79.098 20.3788 79.0701 20.3712 79.0495 20.3743C78.9276 20.3925 78.8072 20.4152 78.6853 20.4334C78.6648 20.4364 78.6398 20.4289 78.6193 20.4198C78.3872 20.3303 78.3872 20.3288 78.2859 20.347C78.2139 20.3591 78.1405 20.3743 78.0671 20.3818C78.0465 20.3849 78.0215 20.3712 78.0024 20.3591C77.8497 20.2666 77.8497 20.2651 77.7396 20.2833C77.6427 20.2999 77.5457 20.3166 77.4488 20.3333C77.3886 20.2923 77.3269 20.2529 77.2667 20.212C77.1463 20.2317 77.0229 20.2468 76.904 20.2741C76.8482 20.2863 76.8115 20.2817 76.7689 20.2438C76.716 20.1983 76.6632 20.1452 76.575 20.171C76.4811 20.1983 76.3812 20.2013 76.2857 20.2241C76.1712 20.2514 76.1242 20.1134 76.0317 20.1149C75.9348 20.1164 75.8349 20.1361 75.7409 20.1634C75.6323 20.1953 75.5559 20.1468 75.4781 20.0815C75.4619 20.0679 75.434 20.0603 75.4134 20.0633C75.1462 20.1073 74.8804 20.1513 74.6131 20.1983C74.4486 20.2271 74.4486 20.2286 74.1358 20.1452C74.1138 20.1392 74.0903 20.1331 74.0683 20.1361C73.9713 20.1498 73.8715 20.1604 73.7775 20.1862C73.6629 20.218 73.5998 20.1361 73.519 20.0861C73.5014 20.0755 73.4735 20.0815 73.45 20.0846C73.3766 20.0952 73.3046 20.1088 73.2312 20.121C73.1343 20.1377 73.0374 20.1543 72.9404 20.171C72.8802 20.1316 72.8185 20.0906 72.7583 20.0512C72.6379 20.0709 72.5146 20.0815 72.3956 20.1134C72.3046 20.1376 72.262 20.0739 72.2018 20.0375C72.1812 20.0254 72.1592 19.9996 72.1401 20.0011C71.9213 20.0345 71.7025 20.0694 71.4851 20.1119C71.3955 20.1301 71.3544 20.0618 71.2942 20.0269C71.2737 20.0163 71.2502 19.9966 71.2311 19.9996C71.0857 20.0209 70.9403 20.0466 70.7949 20.0724C70.7127 20.0876 70.7127 20.0876 70.5335 19.9936C70.513 19.9829 70.4895 19.9723 70.4689 19.9754C70.0078 20.0512 69.5481 20.1316 69.087 20.2074C69.04 20.215 68.9974 20.1923 68.9607 20.1513C68.9226 20.1103 68.88 20.0891 68.833 20.0967C68.6391 20.1286 68.4438 20.1574 68.2514 20.1968C68.1721 20.2135 68.109 20.1938 68.0546 20.1407C68.0135 20.1012 67.9753 20.0861 67.9239 20.0952C67.827 20.1134 67.7301 20.1285 67.6332 20.1452C67.5363 20.1619 67.4393 20.1786 67.3424 20.1953C67.2455 20.212 67.1471 20.2211 67.0516 20.2469C66.9342 20.2787 66.8769 20.1847 66.7961 20.1377C66.6507 20.1604 66.5053 20.1832 66.3614 20.2074C66.1676 20.2393 65.9737 20.2742 65.7799 20.3045C65.7623 20.3075 65.7402 20.2802 65.7197 20.2666C65.6595 20.2287 65.6154 20.1756 65.5258 20.1923C65.0911 20.2726 64.6535 20.3409 64.2174 20.4198C64.1263 20.4364 64.0867 20.3712 64.025 20.3363C64.0044 20.3257 63.9809 20.3045 63.9618 20.3075C63.7195 20.3454 63.4772 20.3879 63.2349 20.4289C63.1365 20.4455 63.1365 20.4455 62.9721 20.3515C62.953 20.3409 62.928 20.3272 62.9074 20.3303C62.5917 20.3818 62.2774 20.4364 61.9617 20.4895C61.9147 20.4971 61.8721 20.4759 61.834 20.4349C61.7972 20.394 61.7532 20.3712 61.7076 20.3788C61.4169 20.4273 61.1246 20.4744 60.8353 20.5274C60.7575 20.5426 60.6929 20.529 60.6371 20.4744C60.5974 20.4349 60.5578 20.4182 60.5079 20.4273C60.0717 20.5017 59.6355 20.573 59.1994 20.6518C59.1157 20.667 59.057 20.6382 59.0041 20.5881C58.9615 20.5487 58.9248 20.5411 58.8719 20.5472C58.8161 20.5547 58.7823 20.5714 58.7515 20.6169C58.7119 20.6761 58.6869 20.7504 58.5929 20.755C58.496 20.7595 58.3976 20.7777 58.3021 20.8035C58.2111 20.8293 58.1685 20.761 58.1112 20.7201C58.0686 20.6913 58.029 20.6867 57.9746 20.7004C57.9247 20.7125 57.8939 20.7383 57.8645 20.7868C57.7999 20.8899 57.794 20.8899 57.7147 20.8247C57.6721 20.7898 57.6339 20.7625 57.5869 20.7686C57.3931 20.7989 57.1992 20.8323 57.0054 20.8672C56.8938 20.8869 56.8923 20.8899 56.8086 20.8141C56.7675 20.7762 56.7279 20.758 56.6794 20.7671C56.1463 20.8581 55.6133 20.9461 55.0802 21.0416C54.9979 21.0568 54.9421 21.0249 54.8834 20.9794C54.8643 20.9643 54.8452 20.943 54.8232 20.937C54.8012 20.9309 54.7762 20.937 54.7527 20.94C54.365 21.0052 53.9758 21.0674 53.5896 21.1402C53.5015 21.1569 53.4545 21.1084 53.3943 21.0689C53.3738 21.0553 53.3561 21.034 53.3341 21.028C53.312 21.0234 53.2856 21.034 53.2621 21.0386C52.8744 21.1038 52.4853 21.166 52.0991 21.2388C52.0065 21.2555 51.9669 21.1918 51.9067 21.1584C51.8861 21.1463 51.8641 21.1235 51.845 21.1265C51.7231 21.1432 51.6027 21.166 51.4808 21.1857C51.19 21.2358 50.8992 21.2828 50.6085 21.3344C50.4969 21.3541 50.4484 21.2191 50.3544 21.2251C50.2325 21.2327 50.1121 21.2631 49.9902 21.2843C49.8933 21.301 49.7964 21.3162 49.6995 21.3344C49.604 21.351 49.604 21.351 49.3661 21.2631C49.3455 21.2555 49.3206 21.2449 49.3 21.2479C48.9608 21.304 48.6201 21.3601 48.2823 21.4208C48.2045 21.4345 48.1399 21.4269 48.0841 21.3708C48.0444 21.3313 48.0033 21.3116 47.9549 21.3207C47.4453 21.4071 46.9372 21.4936 46.4276 21.5785C46.4085 21.5816 46.3835 21.5664 46.3644 21.5543C46.3233 21.527 46.2837 21.4951 46.244 21.4663C46.2146 21.5012 46.1765 21.533 46.1574 21.5725C46.131 21.6256 46.0957 21.6407 46.0399 21.6498C45.9841 21.6589 45.9489 21.6559 45.9048 21.6165C45.8519 21.5679 45.7976 21.53 45.7109 21.5452C45.1779 21.6407 44.6448 21.7272 44.1117 21.8212C44.0236 21.8364 43.9825 21.7696 43.9208 21.7348C43.9003 21.7241 43.8767 21.7075 43.8576 21.7105C43.6388 21.7454 43.4215 21.7833 43.2027 21.8197C42.5962 21.9228 41.9897 22.0214 41.3847 22.1306C41.2745 22.1504 41.1996 22.1124 41.1218 22.0472C41.1056 22.0336 41.0777 22.026 41.0572 22.029C40.2084 22.1716 39.3596 22.3157 38.5122 22.4598C38.4667 22.4673 38.4226 22.4431 38.3859 22.4036C38.3477 22.3627 38.3052 22.343 38.2582 22.3506C37.8705 22.4158 37.4828 22.481 37.0951 22.5477C36.9982 22.5644 36.9967 22.5659 36.8968 22.4931C36.8763 22.478 36.8543 22.4491 36.8381 22.4522C36.8043 22.4598 36.772 22.4977 36.7485 22.5492C36.725 22.6038 36.6883 22.619 36.634 22.6296C36.5782 22.6402 36.5415 22.6357 36.4989 22.5993C36.4445 22.5538 36.3946 22.5098 36.3065 22.525C35.1919 22.7191 34.0772 22.9057 32.9626 23.0983C32.873 23.1135 32.8319 23.0498 32.7702 23.0149C32.7497 23.0043 32.7291 22.9891 32.7071 22.9861C32.6836 22.983 32.6586 22.9921 32.6352 22.9967C30.8171 23.3046 28.9991 23.614 27.181 23.9219C27.0724 23.9401 27.0738 23.9401 26.9549 24.0796C26.9402 24.0963 26.9211 24.119 26.9005 24.1221C26.344 24.2192 25.7859 24.3132 25.2279 24.4072C24.9856 24.4482 24.7433 24.4907 24.501 24.5301C24.4143 24.5437 24.4143 24.5437 24.2073 24.7076C24.1896 24.7212 24.1691 24.7394 24.1485 24.7424C23.1793 24.9078 22.21 25.0731 21.2393 25.2354C21.163 25.2475 21.1013 25.2748 21.0661 25.3476C21.0411 25.3992 21.0088 25.4295 20.9603 25.4386C20.2819 25.5539 19.6034 25.6707 18.9235 25.7829C18.8427 25.7966 18.7942 25.839 18.7546 25.9027C18.7414 25.924 18.7296 25.9482 18.7105 25.9634C18.6929 25.977 18.6665 25.9816 18.6445 25.9861C18.0629 26.0847 17.4814 26.1864 16.8984 26.2804C16.8117 26.2941 16.7765 26.3502 16.7339 26.4093C16.7192 26.429 16.7089 26.4563 16.6898 26.47C16.6707 26.4821 16.6428 26.4821 16.6193 26.4852C16.1347 26.5671 15.6501 26.6505 15.1655 26.7324C15.0715 26.7248 15.051 26.8128 15.0054 26.8659C14.9893 26.8841 14.9776 26.9083 14.9585 26.9205C14.9379 26.9326 14.9114 26.9311 14.8865 26.9341C14.4988 26.9993 14.1111 27.0691 13.7219 27.1298C13.6324 27.1434 13.6147 27.2208 13.5663 27.2738C13.5501 27.2905 13.534 27.3163 13.5149 27.3209C13.2726 27.3649 13.0303 27.4058 12.788 27.4452C12.7072 27.4589 12.7072 27.4574 12.5648 27.6075C12.5486 27.6242 12.5295 27.6424 12.5089 27.647C12.1462 27.7107 11.782 27.7713 11.4178 27.8335C11.3708 27.8411 11.3385 27.8775 11.315 27.9291C11.2915 27.9806 11.2578 28.014 11.2108 28.0216C10.92 28.0717 10.6292 28.1232 10.3384 28.1687C10.2577 28.1809 10.2048 28.2188 10.1696 28.287C10.1431 28.3386 10.1108 28.3644 10.0594 28.3735C9.76866 28.422 9.4779 28.4751 9.18567 28.5176C9.10049 28.5297 9.05642 28.5813 9.02117 28.645C8.99327 28.6965 8.96096 28.7147 8.90662 28.7238C8.37355 28.8118 7.83902 28.8998 7.30741 28.9968C7.21783 29.0135 7.17229 28.9604 7.11355 28.9225C7.02985 28.8694 6.95204 28.8118 6.95204 28.6935C6.95204 28.6753 6.92707 28.6541 6.90944 28.6389C6.77874 28.5251 6.77874 28.5252 6.75818 28.4038C6.74643 28.3295 6.73322 28.2537 6.72294 28.1778C6.70385 28.0535 6.65684 28.0216 6.52173 28.0444C6.47327 28.0519 6.42481 28.0625 6.37635 28.0686C6.30439 28.0792 6.25006 28.0292 6.23684 27.9382C6.2295 27.8881 6.2207 27.8381 6.21336 27.788C6.28679 27.7759 6.2853 27.7744 6.41453 27.5909C6.46887 27.5135 6.46889 27.5135 6.36462 27.4361C6.32497 27.4073 6.28678 27.3755 6.24419 27.3482C6.2251 27.336 6.20015 27.3284 6.17959 27.3315C6.0577 27.3497 5.93728 27.3709 5.81686 27.3922C5.62302 27.4255 5.623 27.4255 5.42621 27.2708C5.41006 27.2587 5.38509 27.2359 5.38803 27.2238C5.40418 27.1677 5.44383 27.1434 5.49376 27.1373C5.56719 27.1282 5.63914 27.1131 5.7111 27.1009C5.75956 27.0934 5.80802 27.0843 5.85648 27.0767C5.90201 27.019 5.94902 26.9629 5.99161 26.9038C6.05916 26.8128 6.05914 26.8097 5.96662 26.746C5.90788 26.7036 5.84474 26.6656 5.78453 26.6262C5.71257 26.6383 5.63914 26.652 5.56719 26.6626C5.47614 26.6763 5.43942 26.6474 5.41592 26.5488C5.39536 26.4624 5.42033 26.3881 5.49082 26.3699C5.56278 26.3517 5.63036 26.3396 5.66707 26.2622C5.70232 26.1879 5.76398 26.159 5.84035 26.153C5.88881 26.1484 5.93727 26.1378 5.98573 26.1287C6.04888 26.1166 6.08266 26.0392 6.06945 25.9528C6.06211 25.8967 6.04741 25.8496 5.99014 25.8375C5.73609 25.7844 5.73313 25.7859 5.60684 25.6828C5.59509 25.6737 5.5863 25.6464 5.59071 25.6328C5.59805 25.61 5.61421 25.5766 5.63183 25.5721C5.80071 25.5387 5.96958 25.5084 6.13846 25.4856C6.19427 25.4781 6.23539 25.4674 6.25448 25.4113C6.28092 25.3339 6.26917 25.2627 6.21777 25.2096C6.20162 25.1929 6.17516 25.1717 6.15754 25.1732C5.96369 25.2005 5.77132 25.2354 5.57748 25.2627C5.55985 25.2657 5.52756 25.2399 5.52022 25.2202C5.50553 25.1838 5.52755 25.1353 5.57895 25.1186C5.6465 25.0958 5.71552 25.0943 5.76104 25.0185C5.82419 24.9108 5.90201 24.8122 5.9725 24.7091C5.98425 24.6909 6.00337 24.656 5.99896 24.6529C5.96225 24.6196 5.91965 24.5938 5.88147 24.5619C5.81686 24.5089 5.81684 24.4345 5.83153 24.3633C5.84328 24.3056 5.88733 24.2829 5.94167 24.2829C5.96517 24.2829 5.99453 24.2829 6.01363 24.2692C6.06356 24.2358 6.07971 24.1934 6.05475 24.1615C6.04006 24.1433 6.01364 24.1175 5.99602 24.1206C5.68176 24.1706 5.366 24.2192 5.0532 24.2813C4.96068 24.2995 4.91812 24.2419 4.86232 24.201C4.81973 24.1691 4.78006 24.157 4.72719 24.1797C4.67726 24.201 4.62882 24.1888 4.59798 24.1388C4.57301 24.0978 4.61706 24.0629 4.73601 24.0235C4.75804 24.0159 4.78299 24.0114 4.79915 23.9962C4.9695 23.8324 4.96949 23.8309 5.08697 23.8096C5.20152 23.7899 5.20155 23.7884 5.26176 23.7004C5.28966 23.6595 5.32047 23.6185 5.34691 23.5761C5.35719 23.5594 5.37483 23.529 5.36896 23.5199C5.33665 23.4729 5.29258 23.4623 5.24118 23.4729C5.12663 23.4987 4.99155 23.4775 4.93134 23.6216C4.90784 23.6762 4.87112 23.6913 4.81826 23.7004C4.28665 23.7884 3.75502 23.8825 3.22195 23.9674C3.1353 23.981 3.09568 24.0372 3.0619 24.0993C3.03253 24.1509 3.00021 24.1661 2.94441 24.1752C2.88861 24.1843 2.84453 24.1888 2.81222 24.1388C2.79313 24.1084 2.80929 24.066 2.85334 24.0235C2.91649 23.9628 2.90474 23.887 2.88418 23.8157C2.86949 23.7687 2.82397 23.7353 2.77551 23.7384C2.70355 23.7444 2.63455 23.7611 2.57434 23.7004C2.53909 23.6656 2.49503 23.6413 2.45538 23.6109C2.37901 23.5488 2.30265 23.4851 2.19545 23.526C2.12202 23.5109 2.07062 23.4563 2.01188 23.4138C1.91349 23.344 1.90468 23.3334 1.97517 23.2591C2.05447 23.1757 1.99278 23.0664 2.03683 22.9845C2.08383 22.8966 2.14846 22.8192 2.20574 22.7373C2.22042 22.7161 2.23364 22.6964 2.24833 22.6751C2.21455 22.6448 2.18372 22.6069 2.14407 22.5857C2.09267 22.5584 2.06624 22.525 2.06917 22.4309C2.05889 22.4173 2.06327 22.4522 2.07502 22.4613C2.08823 22.4704 2.12057 22.4628 2.13672 22.4522C2.17784 22.4234 2.19838 22.3854 2.1881 22.3536C2.18222 22.3369 2.15434 22.3157 2.13672 22.3157C2.10441 22.3157 2.07651 22.349 2.0677 22.4309C1.90323 22.4931 1.73285 22.5235 1.5625 22.5477C1.54488 22.5508 1.52286 22.5204 1.5023 22.5053C1.43475 22.4537 1.43474 22.4552 1.23649 22.44C1.21593 22.4385 1.18804 22.4173 1.17776 22.3961C1.13518 22.3035 1.13666 22.2019 1.1161 22.1033C1.15428 22.0396 1.19243 21.9774 1.23208 21.9153C1.31138 21.7894 1.4142 21.6786 1.47588 21.5406C1.46266 21.4663 1.44504 21.392 1.50965 21.3313C1.69322 21.2555 1.69176 21.2555 1.74169 21.1827C1.88414 20.9764 2.02511 20.7686 2.17343 20.5654C2.21308 20.5123 2.21309 20.4835 2.1426 20.4607C2.12057 20.4547 2.09704 20.4531 2.07355 20.4562C2.00012 20.4668 1.92669 20.4941 1.85474 20.488C1.78278 20.4835 1.72991 20.4167 1.67117 20.3758C1.61096 20.3333 1.55075 20.2893 1.49054 20.2453C1.42152 20.2499 1.35252 20.2924 1.28349 20.2241C1.23063 20.171 1.16455 20.1331 1.10434 20.0891C1.14986 19.9738 1.23505 19.8859 1.30113 19.7842C1.36134 19.6917 1.36278 19.6933 1.52432 19.622C1.60068 19.5886 1.62712 19.4172 1.5625 19.3671C1.48467 19.3065 1.40245 19.2504 1.32315 19.1927C1.25413 19.1973 1.18365 19.2382 1.11757 19.17C1.06617 19.1184 1.00742 19.0835 0.922241 19.1032C0.778325 19.1366 0.631477 19.1533 0.486092 19.1806C0.436162 19.1897 0.381811 19.1836 0.359783 19.1321C0.345097 19.0957 0.387688 19.0456 0.436149 19.035C0.509576 19.0198 0.575652 19.0016 0.612366 18.9258C0.64761 18.85 0.712219 18.8272 0.788582 18.8166C0.809142 18.8135 0.832655 18.7953 0.842935 18.7771C0.895802 18.6892 0.954548 18.6133 1.06762 18.6164C1.11462 18.586 1.13957 18.5481 1.12488 18.5117C1.11607 18.492 1.08525 18.4662 1.06762 18.4693C0.945736 18.4844 0.823853 18.4996 0.704902 18.5269C0.649098 18.539 0.606487 18.542 0.571243 18.4965C0.546278 18.4662 0.559493 18.4253 0.606486 18.3813C0.647605 18.3434 0.659366 18.2994 0.656429 18.2478C0.649086 18.128 0.605022 18.0931 0.464043 18.1007C0.362714 18.1068 0.337748 18.087 0.31572 17.9839C0.309846 17.9596 0.295186 17.9263 0.305466 17.9096C0.368613 17.8064 0.409734 17.679 0.528685 17.6305C0.575678 17.6123 0.625588 17.6123 0.654959 17.5729C0.684329 17.5334 0.710776 17.4879 0.741615 17.45C0.779797 17.4045 0.806205 17.362 0.788582 17.3332C0.759212 17.2817 0.712234 17.2771 0.657899 17.2953C0.610906 17.3105 0.560977 17.312 0.512516 17.3211C0.425872 17.3378 0.355399 17.2983 0.345119 17.2316C0.317217 17.0557 0.287838 16.8812 0.262873 16.7053C0.259936 16.6841 0.267258 16.6568 0.279006 16.6386C0.320125 16.5749 0.364198 16.5142 0.406786 16.452C0.456716 16.3807 0.536029 16.3944 0.603582 16.3807C0.699036 16.361 0.699003 16.3625 0.826765 16.2169C0.876695 16.1593 0.963343 16.182 1.01474 16.1305C1.0309 16.1138 1.05586 16.0865 1.05145 16.0713C1.04558 16.0516 1.01623 16.0364 0.994198 16.0273C0.973639 16.0182 0.948679 16.0137 0.926651 16.0182C0.659379 16.0622 0.393582 16.1092 0.126309 16.1517C0.0807849 16.1593 0.0308535 16.1259 0.0146996 16.0789C-0.00145419 16.0349 0.00293706 15.9818 0 15.9318C0.0425874 15.8696 0.0910302 15.8119 0.127744 15.7452C0.155646 15.6936 0.187959 15.6709 0.243763 15.6678C0.31719 15.6633 0.389155 15.6451 0.471393 15.6314C0.62412 15.41 0.7739 15.178 0.938375 14.9565C1.00446 14.867 0.988331 14.776 1.00155 14.6805C1.01476 14.5925 1.11315 14.6062 1.17923 14.5804C1.2321 14.5591 1.2497 14.5106 1.22914 14.4772C1.21739 14.4575 1.19097 14.4347 1.17041 14.4347C1.12195 14.4347 1.07349 14.4484 1.02503 14.456C0.97657 14.4636 0.920769 14.459 0.881118 14.4848C0.842936 14.5091 0.817957 14.5606 0.792992 14.6046C0.76509 14.6532 0.728403 14.6699 0.672598 14.6729C0.60064 14.6759 0.528687 14.6896 0.456729 14.7002C0.377428 14.641 0.295173 14.5834 0.21881 14.5212C0.204124 14.5091 0.201171 14.4742 0.20264 14.4514C0.205577 14.3923 0.183555 14.3559 0.135093 14.3271C0.0939745 14.3028 0.0601954 14.2679 0.0220136 14.2376C0.0513842 14.1966 0.0837034 14.1572 0.1072 14.1132C0.158598 14.0207 0.223221 13.954 0.334829 13.957C0.378885 13.8978 0.41412 13.825 0.471393 13.7841C0.525728 13.7446 0.61825 13.7841 0.659369 13.6946C0.679928 13.6506 0.710784 13.6005 0.750435 13.5823C0.813582 13.5535 0.895818 13.5687 0.932531 13.4838C0.954559 13.4352 0.986854 13.3912 1.02944 13.3791C1.0779 13.3655 1.12782 13.3624 1.16306 13.3336C1.18216 13.3185 1.20272 13.2942 1.20272 13.2729C1.20272 13.2593 1.17337 13.2381 1.15281 13.229C1.13372 13.2183 1.10873 13.2108 1.0867 13.2138C1.01327 13.2229 0.941315 13.2396 0.867889 13.2487C0.847329 13.2517 0.82384 13.2411 0.801812 13.232C0.737197 13.2077 0.741594 13.1774 0.792992 13.1228C0.844391 13.0697 0.881124 13.0014 0.923711 12.9393C0.970704 12.9286 1.02944 12.9332 1.06174 12.9044C1.11608 12.8574 1.15425 12.7891 1.19831 12.7299C1.24677 12.7208 1.2967 12.7178 1.34222 12.7011C1.36131 12.6951 1.37013 12.6617 1.38628 12.642C1.41565 12.6041 1.44064 12.5495 1.48029 12.5313C1.54491 12.504 1.6242 12.5146 1.66239 12.4312C1.68441 12.3826 1.71818 12.3311 1.7593 12.328C1.87384 12.322 1.9223 12.2385 1.98105 12.1597C2.0251 12.1005 2.11909 12.1308 2.16755 12.0717C2.19986 12.0338 2.22337 11.9867 2.25568 11.9503C2.2689 11.9352 2.29679 11.9276 2.31882 11.9231C2.43923 11.9003 2.56112 11.8836 2.68154 11.8593C2.70063 11.8548 2.71827 11.8321 2.73295 11.8139C2.76379 11.7744 2.78286 11.7198 2.82104 11.694C2.85922 11.6682 2.91355 11.6683 2.96054 11.6607C3.1118 11.6379 3.12356 11.644 3.19258 11.515C3.24839 11.4104 3.38498 11.4847 3.4305 11.3694C3.45694 11.3027 3.50538 11.2481 3.59202 11.2405C3.71391 11.2299 3.83432 11.2011 3.95621 11.1814C4.06488 11.1632 4.06342 11.1632 4.1809 11.0221C4.23377 10.9584 4.31162 10.9675 4.38064 10.9554C4.45406 10.9433 4.52161 10.9251 4.55685 10.8492C4.5921 10.7749 4.65671 10.7506 4.7316 10.74C4.80062 10.7294 4.87847 10.737 4.93281 10.6763C5.06497 10.5307 5.06351 10.5292 5.15603 10.514C5.30141 10.4897 5.44679 10.4655 5.59218 10.4397C5.6891 10.423 5.79042 10.42 5.88147 10.3866C5.94756 10.3623 5.97692 10.2774 6.01951 10.2183C6.13992 10.1955 6.26034 10.1727 6.38076 10.1515C6.54964 10.1212 6.71998 10.0939 6.89033 10.0651C6.96376 10.0074 6.97406 9.88002 7.09742 9.87396C7.17085 9.87092 7.2428 9.85121 7.31623 9.83908C7.43812 9.81784 7.55853 9.79054 7.68042 9.77992C7.77294 9.77234 7.78907 9.69043 7.83753 9.63886C7.85368 9.62066 7.86838 9.59488 7.88747 9.59033C8.07838 9.54786 8.27515 9.53876 8.46165 9.47658C8.48074 9.47051 8.49837 9.43865 8.50278 9.4159C8.50571 9.40377 8.48075 9.38103 8.46459 9.37041C8.4455 9.35828 8.42055 9.34614 8.39999 9.34918C7.79348 9.4508 7.187 9.55394 6.58049 9.65556C6.49532 9.67073 6.49532 9.6692 6.28826 9.83604C6.27064 9.84969 6.25005 9.86485 6.22802 9.8694C6.1311 9.8876 6.03271 9.89823 5.93726 9.92099C5.85943 9.93919 5.79483 9.92097 5.73903 9.86637C5.69938 9.82693 5.65824 9.81481 5.60831 9.81784C5.55251 9.82239 5.51581 9.83908 5.48351 9.88003C5.44092 9.93615 5.41888 10.0089 5.3293 10.0241C4.91665 10.0893 4.50396 10.1621 4.09278 10.2319C4.0355 10.2107 4.0076 10.1788 4.02229 10.1409C4.0311 10.1182 4.04873 10.0878 4.06635 10.0848C4.23523 10.0529 4.40558 10.0256 4.57446 9.9953C4.59795 9.99075 4.63026 9.99377 4.64347 9.9786C4.70809 9.91035 4.73161 9.79963 4.8535 9.79205C4.92399 9.7875 4.99594 9.76476 5.06349 9.74352C5.08258 9.73745 5.10021 9.7056 5.10461 9.68285C5.10608 9.67072 5.08258 9.64796 5.06496 9.63734C5.00034 9.59336 4.92547 9.64646 4.86085 9.61612C4.83882 9.6055 4.80796 9.59033 4.80356 9.57213C4.80062 9.55545 4.82559 9.52814 4.84321 9.51146C4.85936 9.49629 4.88138 9.48265 4.90341 9.4781C5.09725 9.44321 5.29113 9.40681 5.48498 9.3795C5.56428 9.36889 5.62007 9.33096 5.65531 9.2612C5.68175 9.20963 5.71405 9.18233 5.76398 9.17475C6.10321 9.11863 6.44243 9.05645 6.78313 9.00488C6.86831 8.99274 6.91238 8.9427 6.94763 8.87748C6.97553 8.82591 7.00784 8.8077 7.06218 8.7986C7.54826 8.71973 8.03139 8.63177 8.51748 8.55593C8.60706 8.54228 8.6335 8.47706 8.67903 8.42094C8.69518 8.40122 8.70544 8.37696 8.726 8.36482C8.74656 8.35269 8.77299 8.35419 8.79795 8.35116C9.18565 8.28594 9.57336 8.21618 9.96252 8.15551C10.0536 8.14186 10.0712 8.06602 10.1182 8.01293C10.1343 7.99625 10.149 7.96895 10.1681 7.9644C10.4589 7.91284 10.7496 7.8643 11.0404 7.81425C11.2342 7.78088 11.4281 7.74751 11.6219 7.71566C11.7174 7.70049 11.7174 7.69897 11.8466 7.55488C11.8613 7.53819 11.8819 7.51847 11.901 7.51392C12.459 7.41685 13.0156 7.32435 13.5736 7.2288C13.6206 7.22121 13.6544 7.18631 13.6779 7.13474C13.7014 7.08317 13.7352 7.04829 13.7807 7.0407C14.2169 6.96487 14.653 6.89055 15.0906 6.81927C15.1699 6.80713 15.2257 6.77073 15.261 6.70248C15.2874 6.65091 15.3197 6.62362 15.3696 6.61603C15.8058 6.54323 16.242 6.46587 16.6796 6.3961C16.7633 6.38244 16.8044 6.33088 16.8455 6.27021C16.8602 6.24898 16.8719 6.21409 16.8896 6.21106C17.1069 6.16859 17.3228 6.1246 17.5416 6.09579C17.6326 6.08365 17.6635 6.01995 17.7002 5.95928C17.7296 5.91074 17.7634 5.89406 17.8192 5.888C17.941 5.87435 18.0615 5.84857 18.1804 5.82279C18.198 5.81824 18.2201 5.78487 18.2215 5.76363C18.2245 5.7242 18.1907 5.69689 18.1349 5.68324C17.5533 5.78183 16.9704 5.88041 16.3888 5.979C16.2934 5.99568 16.2934 5.99569 16.1641 6.13978C16.1494 6.15646 16.1289 6.17618 16.1083 6.18073C15.5503 6.27629 14.9937 6.37032 14.4357 6.46588C14.3887 6.47346 14.3549 6.50835 14.3314 6.55991C14.3079 6.61148 14.2741 6.64637 14.2286 6.65395C13.6955 6.74495 13.1624 6.83748 12.6279 6.92393C12.5486 6.93607 12.4928 6.97093 12.4576 7.0407C12.4311 7.09227 12.3988 7.11958 12.3489 7.12717C11.8393 7.2121 11.3312 7.30158 10.8201 7.38349C10.7687 7.39107 10.7306 7.34708 10.7335 7.30613C10.735 7.2849 10.757 7.25003 10.7746 7.247C11.0404 7.19694 11.3048 7.14537 11.572 7.10745C11.6616 7.09532 11.688 7.02858 11.7335 6.97246C11.7482 6.95274 11.76 6.92696 11.7791 6.91634C11.7996 6.90421 11.8261 6.90573 11.851 6.9027C12.481 6.79501 13.1111 6.68581 13.7425 6.58419C13.8336 6.56902 13.8512 6.49469 13.8982 6.4416C13.9143 6.4234 13.929 6.39611 13.9481 6.39308C14.1419 6.35668 14.3358 6.32482 14.5296 6.29297C14.8689 6.23533 15.2081 6.17769 15.5488 6.12006C15.6472 6.10338 15.6472 6.10337 15.7735 5.9608C15.7882 5.94411 15.8087 5.92289 15.8278 5.91986C16.7251 5.76667 17.6224 5.61348 18.5197 5.4618C18.5666 5.45422 18.6004 5.41934 18.6239 5.36777C18.6474 5.31772 18.6812 5.28131 18.7267 5.27221C19.9397 5.06594 21.1512 4.85966 22.3643 4.65641C22.4436 4.64276 22.4993 4.61091 22.5346 4.53962C22.5596 4.48805 22.5933 4.46076 22.6433 4.45166C23.9767 4.22567 25.3101 3.99968 26.645 3.77217C27.5423 3.6205 28.4396 3.46579 29.3368 3.31715C29.4191 3.3035 29.4631 3.25647 29.5042 3.19429C29.5174 3.17305 29.5307 3.13817 29.5483 3.13513C29.7407 3.09721 29.933 3.06234 30.1254 3.02745C30.1856 3.0684 30.2458 3.10784 30.306 3.1488C30.3516 3.09116 30.3956 3.032 30.4412 2.97437C30.7319 2.93038 31.0183 2.86213 31.312 2.8409C31.3311 2.83938 31.3516 2.8682 31.3722 2.88337C31.5088 2.97892 31.5866 2.97134 31.6733 2.84393C31.7041 2.79843 31.7305 2.75748 31.7775 2.7499C31.9229 2.7226 32.0698 2.70439 32.2137 2.67254C32.2915 2.65586 32.3561 2.67102 32.4119 2.72562C32.4516 2.76506 32.4927 2.78175 32.5412 2.77265C32.8085 2.72715 33.0742 2.68316 33.3415 2.63462C33.3606 2.63159 33.3782 2.6058 33.3929 2.5876C33.4237 2.54816 33.4502 2.5057 33.4796 2.46475C33.5192 2.49054 33.5633 2.51026 33.5956 2.54362C33.6367 2.58306 33.6749 2.58305 33.7307 2.57243C34.7968 2.38891 35.8644 2.20994 36.9306 2.0249C37.0216 2.00973 37.0613 2.07344 37.123 2.10681C37.1435 2.11894 37.1641 2.1341 37.1861 2.13713C37.2096 2.14017 37.2346 2.13107 37.2581 2.12652C38.0584 1.99002 38.8588 1.85502 39.6591 1.71851C39.7649 1.70031 39.7649 1.70031 39.922 1.79435C39.9411 1.80649 39.9661 1.82014 39.9866 1.81559C40.3508 1.75644 40.715 1.69274 41.0777 1.63207C41.1247 1.62449 41.1644 1.64875 41.207 1.68363C41.2907 1.75189 41.2965 1.75189 41.3582 1.65179C41.3876 1.60477 41.4184 1.57594 41.4669 1.56229C41.5197 1.54712 41.5624 1.55169 41.6035 1.57899C41.6622 1.61691 41.7048 1.6806 41.7944 1.66392C42.1821 1.59263 42.5712 1.53348 42.9575 1.46068C43.0456 1.44399 43.0926 1.49556 43.1513 1.53348C43.1719 1.54713 43.1909 1.56836 43.213 1.57292C43.235 1.57747 43.2614 1.56684 43.2849 1.56229C43.7696 1.48038 44.2556 1.40001 44.7388 1.31204C44.8298 1.29536 44.8695 1.36057 44.9312 1.39393C44.9517 1.40607 44.9752 1.42731 44.9943 1.42428C45.2851 1.37726 45.5773 1.32719 45.8681 1.27714C45.9724 1.25894 45.9723 1.26046 46.1309 1.35298C46.15 1.36511 46.175 1.37725 46.1956 1.37422C46.5348 1.3181 46.8755 1.26046 47.2147 1.20282C47.319 1.18462 47.319 1.18463 47.62 1.2635C47.6421 1.26956 47.6656 1.27868 47.6876 1.27564C48.0753 1.21042 48.4644 1.14671 48.8521 1.07694C48.93 1.06329 48.9946 1.07542 49.0504 1.13002C49.09 1.16946 49.1311 1.18615 49.1796 1.17705C49.6158 1.10273 50.0534 1.03145 50.4881 0.952579C50.5718 0.937412 50.6261 0.970766 50.6848 1.01475C50.7039 1.02992 50.723 1.05116 50.7451 1.05722C50.7671 1.06329 50.7921 1.05722 50.8156 1.05267C51.2517 0.97835 51.6893 0.908584 52.124 0.828197C52.2121 0.811513 52.2591 0.863079 52.3179 0.900997C52.3384 0.914647 52.3604 0.94195 52.3781 0.940433C52.5484 0.914649 52.7188 0.891906 52.8876 0.853988C52.9787 0.832754 53.0183 0.902511 53.08 0.935879C53.1006 0.946496 53.1241 0.969258 53.1432 0.966224C53.5074 0.907072 53.8716 0.844891 54.2343 0.781188C54.2857 0.772088 54.3239 0.785726 54.365 0.825161C54.4193 0.878246 54.4825 0.899481 54.5618 0.882797C54.7307 0.847912 54.901 0.823651 55.0714 0.794833C55.1712 0.778149 55.1712 0.778155 55.4767 0.857024C55.4987 0.863091 55.5222 0.872185 55.5442 0.869152C55.835 0.820616 56.1272 0.773601 56.4165 0.720515C56.4944 0.705348 56.559 0.718995 56.6148 0.773597C56.6544 0.813032 56.6941 0.829725 56.744 0.820624C57.0113 0.775123 57.2771 0.729617 57.5444 0.684115C57.6413 0.667431 57.7382 0.638606 57.8351 0.638606C57.9056 0.640123 57.957 0.712923 58.0202 0.749324C58.0378 0.759941 58.0672 0.747822 58.0907 0.744788C58.4299 0.687153 58.7706 0.634062 59.1083 0.568843C59.1965 0.552159 59.2435 0.603724 59.3022 0.641643C59.3228 0.655293 59.3448 0.682596 59.3624 0.681079C59.4843 0.664395 59.6047 0.641642 59.7266 0.621924C59.872 0.597657 60.0188 0.579456 60.1627 0.546088C60.2802 0.518787 60.3243 0.650738 60.4183 0.655288C60.4902 0.659838 60.5636 0.634058 60.6356 0.621924C60.781 0.597657 60.9264 0.570359 61.0718 0.549124C61.1232 0.541541 61.1628 0.517263 61.179 0.462661C61.1819 0.452043 61.157 0.429302 61.1408 0.415652C60.9455 0.260946 60.9455 0.260938 60.7487 0.294306C60.6268 0.31554 60.5064 0.336778 60.3845 0.354979C60.3639 0.358012 60.3404 0.345879 60.3199 0.336779C60.2611 0.310995 60.267 0.280663 60.3169 0.226061C60.3669 0.171459 60.405 0.104729 60.4476 0.0425428C60.5078 0.0819777 60.5666 0.121399 60.6268 0.160833C60.6753 0.15325 60.7237 0.144163 60.7722 0.136579C61.0145 0.0971442 61.2568 0.0561896 61.4991 0.0197882C61.5167 0.0167547 61.5388 0.0470937 61.5593 0.062261C61.6181 0.106246 61.6709 0.144154 61.7561 0.12747C61.9735 0.0834848 62.1923 0.0516335 62.4096 0.0137153C62.5051 -0.00296866 62.5051 -0.00296718 62.6725 0.0910699C62.6916 0.101687 62.7165 0.113822 62.7371 0.110788C62.9559 0.0759034 63.1732 0.0379896 63.392 0.00158819C63.439 -0.00599545 63.4846 0.0137213 63.5184 0.0577063C63.5316 0.0759071 63.5286 0.106236 63.5844 0.354979C63.7577 0.556704 63.8767 0.53548 63.9971 0.517279C64.0485 0.509695 64.094 0.502104 64.1278 0.47177C64.1454 0.455086 64.1674 0.430815 64.1674 0.411097C64.1674 0.39593 64.1351 0.371658 64.1146 0.368624C63.9692 0.33829 63.8311 0.402001 63.6887 0.415652C63.6226 0.421719 63.5653 0.368632 63.5536 0.282179C63.5507 0.257911 63.5462 0.232128 63.5418 0.207861C63.5374 0.183593 63.5345 0.15781 63.5301 0.133543C63.4728 0.125959 63.4391 0.153256 63.4141 0.204824C63.3935 0.247293 63.3641 0.295828 63.3245 0.318579C63.2848 0.342847 63.2305 0.338305 63.1821 0.345888C63.1351 0.353472 63.0837 0.373187 63.0396 0.36257C62.9956 0.350436 62.9603 0.306444 62.9192 0.279143C62.9001 0.265492 62.8766 0.245782 62.8575 0.248815C62.6886 0.2746 62.5212 0.300375 62.3538 0.333742C62.2657 0.351943 62.2216 0.28825 62.1658 0.248815C62.1218 0.218481 62.0777 0.226055 62.0704 0.295824C62.0513 0.462664 62.1188 0.53243 62.2686 0.500579C62.392 0.473278 62.5036 0.468742 62.6005 0.571879C62.6137 0.58553 62.6446 0.591594 62.6637 0.588561C62.7841 0.57036 62.903 0.547607 63.0234 0.529406C63.0455 0.526373 63.069 0.53243 63.0896 0.538497C63.3891 0.6204 63.3891 0.621925 63.4905 0.603724C63.5389 0.594624 63.5859 0.58704 63.5815 0.356497C63.674 0.109271 63.8209 0.0925896 63.9633 0.0561881C64.0558 0.0334372 64.0955 0.100176 64.1557 0.135061C64.1762 0.147195 64.1983 0.171458 64.2174 0.168424C64.5331 0.118372 64.8474 0.0652796 65.1616 0.00916071C65.2145 6.03503e-05 65.2527 0.00916219 65.2938 0.0485971C65.3466 0.0986491 65.4054 0.130507 65.4891 0.112306C65.6565 0.0759048 65.8269 0.0531591 65.9972 0.0228246C66.0839 0.00765731 66.0839 0.00764177 66.2586 0.101679C66.2777 0.112296 66.3027 0.12443 66.3232 0.121397C66.4936 0.0956127 66.6625 0.063771 66.8314 0.0364699C66.8784 0.0288863 66.9209 0.0501183 66.9576 0.0910699C66.9944 0.132022 67.0384 0.153253 67.0839 0.14567C67.2543 0.118369 67.4232 0.0880438 67.5921 0.0607428C67.6126 0.0577093 67.6376 0.0683257 67.6567 0.0789427C67.8358 0.17298 67.8358 0.172964 67.9181 0.157797C68.0385 0.135046 68.1618 0.124441 68.2808 0.0941063C68.3968 0.0637718 68.457 0.151735 68.5363 0.20027C68.7537 0.165385 68.9725 0.136575 69.1883 0.0941063C69.2764 0.0759056 69.3234 0.125953 69.3822 0.165388C69.4027 0.179039 69.4233 0.207859 69.4424 0.206343C69.5158 0.200276 69.5878 0.183595 69.6598 0.171461C69.7317 0.159327 69.8051 0.147195 69.8771 0.135061C69.9593 0.179046 70.0137 0.282182 70.1311 0.247297C70.2016 0.226063 70.2765 0.221513 70.3485 0.209379C70.4204 0.197245 70.4939 0.185113 70.5658 0.172979C70.6143 0.165395 70.6642 0.160839 70.7112 0.147188C70.7979 0.124437 70.8404 0.198766 70.9021 0.232134C70.9227 0.242751 70.9462 0.26094 70.9653 0.257906C71.1106 0.236672 71.2575 0.218473 71.3999 0.183588C71.5101 0.156287 71.585 0.201795 71.6628 0.265497C71.679 0.279148 71.7069 0.286731 71.7274 0.283697C71.8978 0.257913 72.0667 0.226053 72.2355 0.198752C72.2811 0.191168 72.3251 0.215435 72.3618 0.25487C72.4 0.295821 72.4426 0.315554 72.4896 0.30797C72.6585 0.280669 72.8288 0.250325 72.9977 0.223024C73.0183 0.219991 73.0432 0.232127 73.0623 0.244261C73.2268 0.338298 73.2268 0.339816 73.3237 0.321615C73.3472 0.317065 73.3722 0.31402 73.3957 0.30947C73.5161 0.288235 73.6409 0.280662 73.7584 0.244261C73.8935 0.203309 73.9919 0.25488 74.0874 0.341334C74.2078 0.323133 74.3311 0.312514 74.4486 0.282179C74.5367 0.259428 74.5837 0.317061 74.6425 0.354979C74.663 0.368629 74.685 0.39593 74.7027 0.392897C74.873 0.367113 75.0434 0.34437 75.2108 0.306452C75.3018 0.285218 75.3415 0.353458 75.4032 0.388342C75.4237 0.400476 75.4457 0.421722 75.4648 0.418688C75.5617 0.406554 75.6587 0.388345 75.7556 0.371661C75.8687 0.351943 75.8687 0.353458 76.0185 0.445979C76.089 0.489964 76.1595 0.455078 76.2285 0.444461C76.3019 0.432327 76.3709 0.423229 76.4297 0.485415C76.4664 0.52485 76.5104 0.549118 76.556 0.543052C76.6529 0.529401 76.7513 0.515757 76.8467 0.493006C76.9231 0.474806 76.9892 0.486933 77.045 0.543052C77.0846 0.582486 77.1258 0.602216 77.1742 0.593115C77.3916 0.556714 77.6104 0.518782 77.8277 0.483897C77.8468 0.480864 77.8732 0.494519 77.8908 0.50817C77.932 0.535471 77.9716 0.565799 78.0113 0.596133C78.1067 0.582483 78.2051 0.576431 78.2991 0.555197C78.399 0.533963 78.49 0.526377 78.5678 0.609797C78.584 0.627998 78.6075 0.653768 78.6266 0.652251C78.7 0.646185 78.772 0.631022 78.8439 0.618888C78.9159 0.606754 78.9893 0.594622 79.0613 0.582488C79.145 0.620406 79.1979 0.729609 79.3153 0.694724C79.3858 0.67349 79.4607 0.66894 79.5327 0.656806C79.6046 0.644672 79.6781 0.631023 79.75 0.620406C79.7735 0.617373 79.7999 0.609785 79.8205 0.615852C79.8425 0.621918 79.8616 0.643157 79.8807 0.658324C79.9394 0.702309 79.9938 0.7463 80.0775 0.720515C80.148 0.699281 80.2229 0.694729 80.2948 0.681079C80.3932 0.664395 80.3932 0.664398 80.5562 0.759952C80.6223 0.799387 80.6972 0.74782 80.7604 0.781188C80.8029 0.803939 80.8397 0.841849 80.8808 0.867633C80.8984 0.87825 80.9263 0.882794 80.9469 0.879761C81.0438 0.86611 81.1422 0.852466 81.2376 0.829715C81.3155 0.811514 81.3801 0.829713 81.4344 0.884315C81.4741 0.92375 81.5137 0.940443 81.5636 0.931343C81.8059 0.888874 82.0483 0.852461 82.2891 0.805442C82.3714 0.788758 82.4374 0.814549 82.4829 0.869152C82.5608 0.963189 82.6709 0.85247 82.7517 0.928306C82.8016 0.975325 82.8516 1.02993 82.9426 1.00718C83.11 0.967744 83.2804 0.946498 83.4492 0.919197C83.5095 0.960149 83.5697 1.00111 83.6313 1.04206C83.7283 1.02538 83.8252 1.00868 83.9221 0.993515C83.9941 0.981381 84.0675 0.967732 84.1394 0.957115C84.1629 0.954082 84.1879 0.948013 84.2099 0.955597C84.232 0.96318 84.2496 0.982902 84.2702 0.99807C84.3715 1.07239 84.3715 1.07391 84.5389 1.04358C84.6108 1.02993 84.6799 1.02083 84.7401 1.0815C84.7959 1.13762 84.862 1.14823 84.9383 1.13154C85.0822 1.10121 85.2276 1.07846 85.3745 1.05722C85.42 1.04964 85.4626 1.07543 85.5008 1.11486C85.558 1.17705 85.6286 1.17098 85.7005 1.1543C85.796 1.13306 85.8899 1.11183 85.9707 1.19677C85.9869 1.21497 86.0118 1.24074 86.0295 1.23922C86.1499 1.22709 86.2718 1.218 86.3892 1.18918C86.5067 1.16036 86.564 1.2544 86.6448 1.2999C86.7652 1.28018 86.8871 1.26046 87.0075 1.24074C87.031 1.23619 87.0589 1.22255 87.0794 1.23013C87.1661 1.26198 87.216 1.37574 87.335 1.34085C87.404 1.32113 87.4789 1.31507 87.5508 1.31052C87.5699 1.30901 87.5949 1.33478 87.6081 1.3545C87.6155 1.36511 87.6081 1.39393 87.5993 1.4091C87.5729 1.45157 87.5406 1.49101 87.5171 1.535C87.5141 1.54106 87.542 1.56835 87.5582 1.58049C87.5978 1.60779 87.6434 1.60325 87.6962 1.59111C87.7417 1.5805 87.7887 1.60173 87.8211 1.64723C87.8343 1.66543 87.8299 1.69577 87.8019 1.79587C87.8019 1.87019 87.8328 1.83681 87.8431 1.78828C87.8592 1.71851 87.8284 1.69576 87.7696 1.73368C87.7285 1.76098 87.708 1.80042 87.7183 1.83227C87.7241 1.84895 87.752 1.87019 87.8019 1.79587C87.9312 1.70487 88.0281 1.68819 88.1251 1.67151C88.15 1.66696 88.1794 1.65178 88.197 1.66088C88.2602 1.69728 88.3189 1.74127 88.3806 1.78222C88.4511 1.77312 88.5171 1.75036 88.5862 1.80951C88.6831 1.89293 88.6875 1.88535 88.7815 1.86867C88.8299 1.85957 88.8784 1.852 88.9269 1.84442C88.9753 1.83683 89.0135 1.85958 89.0561 1.89446C89.1427 1.96575 89.1501 1.96574 89.2073 1.86867C89.2411 1.80952 89.2646 1.7898 89.3072 1.81711C89.4482 1.90963 89.4496 1.91569 89.5701 1.88839C89.6699 1.86564 89.7639 1.85957 89.8373 1.94602C89.8873 2.00669 89.9034 1.99304 89.9431 1.92934C90.0488 1.76099 90.0973 1.76401 90.2955 1.88535C90.388 1.94299 90.4835 1.88081 90.5775 1.87322C90.6568 1.86716 90.7126 1.90355 90.7185 1.99911C90.7229 2.05826 90.7361 2.10073 90.789 2.12045C90.8095 2.12803 90.8345 2.13865 90.855 2.13561C90.9769 2.11741 91.0973 2.09618 91.2192 2.07494C91.2809 2.06432 91.3147 1.99305 91.3029 1.89902C91.2897 1.79891 91.3132 1.7625 91.4013 1.73368C91.4542 1.71699 91.4968 1.72004 91.5394 1.74734C91.5864 1.77768 91.5732 1.80498 91.532 1.85958C91.4336 1.99305 91.4454 2.07494 91.5717 2.16746C91.6157 2.19931 91.651 2.22814 91.6613 2.27516C91.6671 2.29943 91.6613 2.33128 91.6745 2.34948C91.7464 2.4511 91.8463 2.51633 91.9579 2.56486C92.0651 2.52391 92.1385 2.59215 92.2208 2.64675C92.2854 2.68922 92.3617 2.65283 92.4308 2.63766C92.5086 2.62098 92.5732 2.63311 92.629 2.68922C92.6687 2.72866 92.7098 2.74685 92.7582 2.73927C92.8552 2.72259 92.9536 2.71197 93.049 2.68771C93.1312 2.66647 93.1929 2.69681 93.2443 2.74838C93.309 2.8136 93.3809 2.76961 93.4485 2.77871C93.5395 2.78932 93.5851 2.92431 93.704 2.88791C93.7745 2.86667 93.8479 2.85909 93.9213 2.85302C93.9404 2.85151 93.9639 2.8773 93.9801 2.8955C94.0579 2.97892 94.149 2.97436 94.2488 2.9501C94.3178 2.93341 94.3854 2.91825 94.4529 2.97589C94.5645 3.07296 94.6879 3.1579 94.8054 3.24739C94.8216 3.31716 94.8098 3.39904 94.8935 3.44C94.9375 3.46123 94.9787 3.49309 95.0125 3.52798C95.0536 3.56893 95.0917 3.57955 95.1446 3.56893C95.2401 3.5477 95.34 3.54313 95.4339 3.51583C95.5206 3.49156 95.5749 3.54163 95.6278 3.58865C95.6703 3.62657 95.71 3.64476 95.7614 3.61746C95.8143 3.59168 95.8524 3.60835 95.895 3.64931C95.9552 3.70542 95.9597 3.69937 96.1594 3.71605C96.1799 3.71757 96.2049 3.74031 96.2166 3.76002C96.2225 3.77064 96.2093 3.80099 96.199 3.81616C96.1858 3.83436 96.1652 3.85558 96.1461 3.86013C95.9288 3.89957 95.71 3.93445 95.4927 3.97389C95.4706 3.97844 95.4472 3.98907 95.431 4.00423C95.4134 4.02092 95.3913 4.04365 95.3913 4.06489C95.3913 4.08005 95.4207 4.09826 95.4412 4.10888C95.5059 4.14376 95.5822 4.09068 95.6454 4.13011C95.688 4.1559 95.7232 4.19229 95.7658 4.21656C95.7834 4.22718 95.8113 4.22567 95.8334 4.22263C95.9068 4.21202 95.9788 4.19685 96.0522 4.18775C96.0727 4.18623 96.0962 4.20141 96.1153 4.21354C96.2563 4.30455 96.2563 4.30454 96.3782 4.28482C96.4267 4.27724 96.4781 4.25449 96.5236 4.26359C96.5676 4.27269 96.6058 4.31364 96.6455 4.33942C96.7277 4.39403 96.8055 4.44711 96.8114 4.56541C96.8143 4.61092 96.8628 4.65034 96.9112 4.65338C96.9582 4.65641 97.0082 4.63974 97.0566 4.63064C97.1712 4.61244 97.1712 4.61244 97.3195 4.70496C97.3606 4.73074 97.4047 4.73377 97.4575 4.71861C97.4781 4.71254 97.5031 4.71861 97.5251 4.7262C97.5971 4.74895 97.5971 4.77776 97.5501 4.83236C97.484 4.91275 97.4898 4.92033 97.6749 4.98859C97.7454 5.01437 97.7997 5.06291 97.8584 5.10538C97.9539 5.17363 97.9525 5.17362 97.8893 5.2631C97.8746 5.28282 97.8614 5.30406 97.8467 5.3253C97.8041 5.38445 97.7703 5.44815 97.6822 5.45421C97.5853 5.46028 97.4884 5.48456 97.3915 5.50124C97.2975 5.51793 97.2725 5.55431 97.2813 5.65745C97.2916 5.78182 97.3107 5.79548 97.4796 5.79396C97.5281 5.79396 97.5706 5.80609 97.6073 5.84704C97.5897 5.89558 97.5574 5.9335 97.5104 5.9426C97.39 5.96535 97.2681 5.98507 97.1477 6.00479C97.0508 6.02147 96.9539 6.03815 96.8569 6.05483C96.7967 6.06545 96.7585 6.14433 96.7747 6.2323C96.7835 6.28235 96.7908 6.3324 96.7982 6.38245C96.8143 6.48255 96.8452 6.50835 96.9436 6.5038C96.9685 6.50228 96.992 6.49013 97.0155 6.49317C97.111 6.50379 97.1565 6.62967 97.271 6.60389C97.3665 6.58265 97.4664 6.57811 97.5604 6.5508C97.647 6.52654 97.6954 6.58115 97.7557 6.62211C97.7762 6.63576 97.7983 6.66456 97.8159 6.66304C97.9378 6.64636 98.0597 6.62969 98.1786 6.60087C98.2344 6.58873 98.2682 6.59783 98.3122 6.63423C98.418 6.7222 98.4209 6.71765 98.578 6.69035C98.6926 6.66912 98.6941 6.67215 98.8409 6.76467C98.882 6.79045 98.9261 6.79045 98.979 6.77831C99.048 6.76315 99.1199 6.73888 99.1919 6.76163C99.2139 6.7677 99.2418 6.78591 99.2492 6.80562C99.2536 6.81927 99.233 6.85264 99.2154 6.86326C99.0862 6.94213 98.9349 6.92848 98.7939 6.96033C98.7499 6.96943 98.7058 6.94061 98.6691 6.89966C98.6309 6.85871 98.5898 6.84203 98.5399 6.84961C98.4429 6.8663 98.3446 6.87691 98.2491 6.90118C98.1669 6.92241 98.1096 6.88752 98.0523 6.8405C98.0332 6.82534 98.0112 6.79651 97.9921 6.79803C97.7748 6.82837 97.556 6.85871 97.3401 6.90118C97.2534 6.91938 97.2035 6.87085 97.1448 6.8299C97.1242 6.81625 97.1037 6.78742 97.0846 6.78894C97.0111 6.79501 96.9392 6.81169 96.8658 6.82382C96.5985 6.86932 96.3326 6.91483 96.0654 6.9573C96.0478 6.96033 96.0257 6.92847 96.0052 6.91482C95.9655 6.88752 95.9244 6.86173 95.8833 6.83595C95.8099 6.84808 95.7379 6.86325 95.6645 6.87235C95.6116 6.87842 95.5646 6.89966 95.5573 6.9573C95.5529 6.99521 95.6013 7.03009 95.6527 7.02706C95.7027 7.02403 95.7526 7.00582 95.7937 7.02554C95.9978 7.12261 95.9978 7.12413 96.1256 7.10441C96.2372 7.08621 96.2254 7.07104 96.3238 7.15446C96.3664 7.19086 96.4046 7.2121 96.4531 7.203C96.5735 7.18177 96.6954 7.16053 96.8173 7.14233C96.8364 7.1393 96.8613 7.15447 96.8804 7.1666C97.0243 7.25761 97.0243 7.26064 97.1433 7.23789C97.299 7.21059 97.3048 7.203 97.4091 7.29552C97.4811 7.35923 97.5471 7.31524 97.6161 7.3122C97.6954 7.37136 97.7821 7.42445 97.8541 7.49119C97.9392 7.57006 98.0288 7.55639 98.1257 7.53364C98.1977 7.51696 98.2682 7.51089 98.3269 7.57308C98.3827 7.63071 98.4503 7.63679 98.5266 7.62162C98.5957 7.60797 98.6662 7.57915 98.7381 7.61251C98.7572 7.62161 98.7866 7.64437 98.7851 7.65802C98.7836 7.67926 98.7645 7.7096 98.7454 7.7187C98.6103 7.78088 98.462 7.77936 98.3196 7.80818C98.3005 7.81273 98.2755 7.79604 98.2564 7.7839C98.2153 7.7566 98.1757 7.72476 98.136 7.69594C98.0641 7.70504 97.9906 7.70807 97.9202 7.72627C97.8658 7.73992 97.8247 7.73842 97.785 7.70201C97.7483 7.66865 97.7087 7.62769 97.6646 7.61707C97.6206 7.60645 97.5692 7.6292 97.5207 7.6383C97.4723 7.6474 97.4165 7.64285 97.3783 7.66711C97.3401 7.69138 97.3166 7.74447 97.2916 7.78694C97.2637 7.83396 97.2255 7.84914 97.1697 7.85369C97.1183 7.85824 97.0772 7.85216 97.039 7.8097C97.0229 7.79149 97.0008 7.77784 96.9788 7.7657C96.9582 7.75509 96.9348 7.7384 96.9157 7.74143C96.6968 7.77632 96.4795 7.81425 96.2607 7.85065C96.152 7.86885 96.1535 7.86884 95.9273 7.77935C95.9068 7.77177 95.8818 7.76115 95.8613 7.76419C95.7394 7.78239 95.619 7.80362 95.4971 7.82486C95.3737 7.84609 95.3752 7.84306 95.1652 7.7475C95.127 7.7293 95.0712 7.75357 95.0257 7.75054C94.9302 7.74296 94.8832 7.61556 94.7716 7.63982C94.6762 7.66106 94.5763 7.6656 94.4808 7.6929C94.3942 7.71717 94.3443 7.66409 94.2855 7.62314C94.265 7.60949 94.2429 7.57915 94.2253 7.58219C94.0065 7.61555 93.7892 7.65347 93.4984 7.65802C93.4264 7.65802 93.4587 7.68988 93.5057 7.7005C93.5733 7.71718 93.5953 7.68533 93.5586 7.62466C93.5322 7.58219 93.494 7.56094 93.4631 7.57156C93.447 7.57763 93.4264 7.60645 93.4984 7.65802C93.5748 7.71566 93.5704 7.7475 93.5836 7.7657C93.6159 7.80969 93.6614 7.82789 93.7084 7.82182C93.7818 7.81121 93.8538 7.79604 93.9272 7.78694C93.9478 7.78391 93.9727 7.79453 93.9918 7.80666C94.1534 7.9007 94.1548 7.90677 94.3267 7.87037C94.381 7.85975 94.4206 7.85975 94.4632 7.88857C94.522 7.928 94.5646 7.99473 94.6541 7.9735C94.7731 7.94468 94.895 7.92801 95.0169 7.91132C95.0359 7.90829 95.0565 7.93559 95.0785 7.94772C95.1387 7.98412 95.1828 8.05238 95.2724 8.02356C95.3414 8.00081 95.4163 7.99473 95.4897 7.99018C95.5088 7.98866 95.5382 8.01293 95.547 8.03265C95.5646 8.06753 95.5426 8.1085 95.4927 8.13731C95.4721 8.14945 95.4442 8.14641 95.4207 8.15096C95.3238 8.16764 95.2269 8.18584 95.1299 8.19949C95.0785 8.20707 95.0301 8.22983 95.0242 8.28595C95.0198 8.32387 95.0727 8.35723 95.1226 8.3542C95.196 8.34964 95.2694 8.33751 95.3399 8.31779C95.4648 8.28443 95.5734 8.29352 95.6748 8.38908C95.7467 8.45581 95.7423 8.43156 95.8187 8.62873C95.8378 8.67878 95.8951 8.68333 95.945 8.68029C96.0654 8.67271 96.1212 8.69547 96.1109 8.74249C96.0977 8.80012 96.0551 8.81831 96.0008 8.8259C95.9038 8.83803 95.8069 8.85776 95.71 8.87444C95.6865 8.87899 95.6601 8.88808 95.638 8.88505C95.616 8.88202 95.5955 8.86382 95.5764 8.85017C95.5353 8.82135 95.5 8.77736 95.4559 8.76674C95.4119 8.75612 95.3605 8.77888 95.312 8.78798C95.2636 8.79556 95.2122 8.81831 95.1681 8.8077C95.1241 8.79708 95.0873 8.75159 95.0477 8.72429C95.0286 8.71064 95.0051 8.68939 94.986 8.6909C94.8891 8.70304 94.7922 8.72276 94.6953 8.73793C94.5763 8.75765 94.5763 8.75765 94.4324 8.66361C94.3913 8.63631 94.3487 8.63783 94.2944 8.64997C94.1769 8.67424 94.1754 8.66967 93.961 8.5817C93.9404 8.5726 93.9154 8.56199 93.8949 8.56654C93.6761 8.60143 93.4587 8.63934 93.2414 8.67574C93.0549 8.70759 93.0549 8.7076 92.9521 8.85928C92.8757 8.97151 92.8743 8.97151 92.9492 9.02308C93.0094 9.06555 93.0637 9.12773 93.1298 9.15048C93.1915 9.17171 93.2678 9.10346 93.3354 9.17323C93.3692 9.20812 93.4132 9.24604 93.4558 9.2521C93.5233 9.25969 93.5953 9.2157 93.6599 9.28243C93.6922 9.3158 93.7407 9.3507 93.7818 9.35221C93.8538 9.35525 93.9272 9.33097 93.9992 9.32035C94.0212 9.31732 94.0462 9.31732 94.0667 9.3249C94.0888 9.334 94.1078 9.35221 94.1269 9.36738C94.1857 9.41895 94.2488 9.44321 94.3252 9.41742C94.45 9.37495 94.5616 9.39619 94.6585 9.49326C94.6718 9.50691 94.7041 9.50843 94.7246 9.50237C94.7775 9.4872 94.823 9.48568 94.8627 9.51449C94.8788 9.52663 94.9023 9.54785 94.8994 9.5615C94.895 9.58426 94.8773 9.61459 94.8582 9.62218C94.7202 9.67375 94.5719 9.67982 94.4295 9.70712C94.4104 9.71016 94.3869 9.69043 94.3678 9.67678C94.3267 9.64948 94.2914 9.60398 94.2474 9.59337C94.2033 9.58275 94.1519 9.60247 94.1034 9.61005C94.055 9.61763 94.0036 9.64039 93.9595 9.63129C93.9155 9.62067 93.8743 9.58274 93.8391 9.54938C93.798 9.51146 93.7583 9.50692 93.704 9.52209C93.6335 9.5418 93.5601 9.54483 93.4881 9.55545C93.4485 9.52663 93.4088 9.49477 93.3677 9.46747C93.3486 9.45382 93.3251 9.43714 93.3046 9.43866C93.2076 9.45079 93.1107 9.46898 93.0138 9.48567C92.9168 9.50235 92.9169 9.50237 92.7524 9.40833C92.7333 9.39771 92.7083 9.38558 92.6878 9.38861C92.5659 9.40681 92.4454 9.42955 92.3236 9.44775C92.2766 9.45533 92.234 9.4341 92.1958 9.39315C92.1591 9.3522 92.115 9.32945 92.0695 9.33703C91.8757 9.36888 91.6818 9.39922 91.488 9.43714C91.4101 9.45231 91.344 9.43866 91.2912 9.38406C91.2295 9.32187 91.1605 9.33704 91.0885 9.34918C90.9255 9.37951 90.9241 9.37798 90.8198 9.30063C90.7992 9.28546 90.7787 9.25664 90.7596 9.25816C90.5907 9.28091 90.4204 9.30215 90.253 9.33855C90.1648 9.35827 90.1178 9.30518 90.0591 9.26575C90.0385 9.2521 90.0165 9.22328 89.9989 9.22631C89.877 9.243 89.7551 9.25817 89.6361 9.2885C89.5172 9.31884 89.4717 9.17779 89.3821 9.1793C89.2602 9.18082 89.1398 9.21571 89.0194 9.23694C88.9224 9.25362 88.8255 9.2703 88.7286 9.28699C88.6317 9.30367 88.5348 9.31731 88.4378 9.33703C88.3864 9.34765 88.3483 9.33399 88.3057 9.29608C88.2514 9.24603 88.1867 9.20661 88.128 9.1611C88.0384 9.09589 88.0384 9.09588 87.9297 9.11408C87.9062 9.11863 87.8813 9.12165 87.8578 9.1262C87.6801 9.15957 87.6801 9.15655 87.4539 9.061C87.4436 9.05645 87.4172 9.07313 87.4069 9.08527C87.3761 9.1247 87.3482 9.16716 87.3203 9.20811C87.2807 9.18385 87.2322 9.1702 87.2058 9.13531C87.1309 9.03673 87.0134 9.17171 86.937 9.07464C86.9091 9.03824 86.8606 9.00639 86.8166 8.99729C86.771 8.98819 86.7197 9.00942 86.6727 9.01852C86.5508 9.04127 86.5508 9.03976 86.4465 9.17475C86.3936 9.24149 86.3173 9.22935 86.2483 9.24451C86.1763 9.2612 86.1073 9.2703 86.0471 9.20811C85.9927 9.15199 85.9267 9.13835 85.8488 9.15655C85.7534 9.1793 85.655 9.19294 85.5581 9.2066C85.5375 9.20963 85.5125 9.20205 85.492 9.19295C85.2673 9.10346 85.2673 9.10195 85.1586 9.12167C85.1101 9.13077 85.0602 9.13379 85.0132 9.14744C84.9339 9.17171 84.8737 9.13986 84.8165 9.09132C84.7974 9.07615 84.7753 9.04735 84.7562 9.04887C84.6593 9.05645 84.5639 9.0701 84.4684 9.08375C84.395 9.09437 84.3215 9.10043 84.2511 9.12167C84.1336 9.15655 84.0763 9.05795 83.9955 9.01245C83.8751 9.03217 83.7532 9.04582 83.6328 9.07312C83.577 9.08526 83.5403 9.08072 83.4977 9.04431C83.4434 8.99881 83.3934 8.94724 83.3053 8.97C83.1878 9.00033 83.0645 9.01095 82.9441 9.02915C82.8633 8.98213 82.8046 8.88657 82.6886 8.92145C82.6181 8.94268 82.5432 8.94723 82.4712 8.95937C82.3743 8.97605 82.2774 8.99123 82.1805 9.00943C82.0762 9.02763 82.0776 9.02308 81.9176 8.9336C81.8251 8.88051 81.7296 8.93966 81.6356 8.94876C81.5622 8.95634 81.5255 9.02611 81.5431 9.11559C81.5607 9.20508 81.521 9.27485 81.4535 9.28699C81.2846 9.3158 81.1143 9.34613 80.9454 9.37191C80.9248 9.37495 80.8999 9.36433 80.8808 9.35371C80.7002 9.25816 80.7001 9.25969 80.6194 9.27334C80.499 9.29609 80.3756 9.30821 80.2567 9.33703C80.1744 9.35675 80.1142 9.32491 80.0613 9.27334C80.0202 9.23391 79.982 9.2248 79.9292 9.2339C79.3476 9.33552 78.7661 9.42956 78.186 9.53421C78.0994 9.54938 78.0495 9.5054 77.9907 9.46445C77.9702 9.4508 77.951 9.42198 77.9305 9.42198C77.882 9.42198 77.8336 9.43563 77.7851 9.44473C77.5678 9.48113 77.3504 9.52511 77.1316 9.55241C77.0391 9.56455 77.0141 9.63432 76.9745 9.69196C76.9436 9.73594 76.9084 9.75414 76.8541 9.7602C76.8012 9.76627 76.763 9.75868 76.7219 9.71925C76.669 9.66768 76.6088 9.63582 76.5266 9.65706C76.4312 9.68133 76.3342 9.69196 76.2358 9.70864C76.1859 9.71622 76.1477 9.74352 76.1315 9.79812C76.1286 9.80722 76.1595 9.82998 76.1771 9.84363C76.2358 9.88913 76.2916 9.94222 76.3577 9.97407C76.4253 10.0059 76.4987 9.9695 76.5692 9.9604C76.5941 9.95737 76.6176 9.94828 76.6411 9.94979C76.6631 9.95131 76.6896 9.9589 76.7058 9.97255C76.7821 10.0408 76.8629 10.0878 76.9686 10.0469C77.0596 10.0666 77.1067 10.1925 77.2227 10.1591C77.2932 10.1394 77.3666 10.1303 77.44 10.1227C77.4591 10.1212 77.4797 10.1485 77.5002 10.1621C77.559 10.2001 77.606 10.2607 77.6941 10.2349C77.7881 10.2076 77.8879 10.2031 77.9834 10.1819C78.0362 10.1697 78.0744 10.1803 78.1155 10.2198C78.1684 10.2698 78.2286 10.3077 78.3109 10.2835C78.3813 10.2622 78.4562 10.2577 78.5282 10.244C78.6222 10.2273 78.6222 10.2289 78.7896 10.3229C78.8087 10.3335 78.8336 10.3457 78.8542 10.3426C78.9761 10.3244 79.0965 10.3017 79.2184 10.2835C79.2654 10.2759 79.3109 10.2956 79.3432 10.3396C79.3565 10.3578 79.352 10.3881 79.3564 10.4139C79.1141 10.4549 78.8718 10.4898 78.631 10.5398C78.5399 10.5595 78.4988 10.4973 78.4386 10.4624C78.418 10.4503 78.396 10.4245 78.3769 10.4276C78.2066 10.4534 78.0377 10.4806 77.8688 10.514C77.816 10.5246 77.7763 10.5186 77.7367 10.4746C77.6353 10.3578 77.512 10.4215 77.3974 10.4382C77.3093 10.4503 77.2814 10.4973 77.2917 10.5974C77.3049 10.7157 77.3578 10.7521 77.4929 10.7309C77.5413 10.7233 77.5898 10.7127 77.6383 10.7066C77.6852 10.7006 77.7279 10.7203 77.766 10.7612C77.8027 10.8022 77.8468 10.8234 77.8923 10.8174C77.9892 10.8037 78.0876 10.7901 78.1816 10.7673C78.2594 10.7491 78.3241 10.7643 78.3784 10.8204C78.4386 10.8826 78.5091 10.8689 78.5796 10.8553C78.7441 10.8249 78.7455 10.8265 78.8483 10.9023C78.8689 10.9175 78.8895 10.9463 78.9086 10.9448C79.0774 10.922 79.2478 10.9023 79.4137 10.8659C79.5004 10.8477 79.5503 10.8962 79.6076 10.9357C79.6281 10.9493 79.6487 10.9797 79.6678 10.9766C79.7897 10.9599 79.9115 10.9432 80.0305 10.9144C80.0863 10.9008 80.1201 10.9099 80.1656 10.9463C80.2743 11.0358 80.2772 11.0327 80.4314 11.0039C80.4784 10.9948 80.5298 10.9781 80.5738 10.9903C80.6179 11.0024 80.6532 11.0464 80.6943 11.0737C80.7134 11.0858 80.7369 11.1025 80.7574 11.0995C80.8543 11.0873 80.9513 11.0691 81.0482 11.0525C81.1392 11.0358 81.1392 11.0373 81.3096 11.1313C81.3786 11.1708 81.4506 11.1374 81.5196 11.1253C81.5945 11.1116 81.662 11.1116 81.7193 11.1708C81.7766 11.2299 81.8456 11.2269 81.919 11.2147C81.9881 11.2026 82.0585 11.1693 82.129 11.2102C82.2906 11.3042 82.2906 11.3057 82.3904 11.2875C82.5358 11.2618 82.6797 11.2375 82.8266 11.2147C82.8457 11.2117 82.8706 11.2299 82.8897 11.242C82.9308 11.2694 82.9661 11.3148 83.0102 11.3255C83.0542 11.3376 83.1056 11.3194 83.1526 11.3103C83.3039 11.2815 83.3141 11.2709 83.4155 11.371C83.5006 11.4529 83.6064 11.3346 83.6857 11.4286C83.7312 11.4817 83.7929 11.5242 83.878 11.4984C83.9485 11.4771 84.022 11.4711 84.0954 11.4589C84.2114 11.4392 84.2114 11.4407 84.3583 11.5317C84.3773 11.5439 84.4023 11.559 84.4214 11.556C84.5183 11.5439 84.6167 11.5333 84.7107 11.506C84.8209 11.4741 84.8913 11.5317 84.9736 11.5879C85.0382 11.6319 85.1146 11.5954 85.1836 11.5803C85.2585 11.5651 85.326 11.5697 85.3818 11.6288C85.4406 11.6895 85.5096 11.6819 85.583 11.6698C85.652 11.6591 85.7225 11.6243 85.793 11.6667C85.9443 11.7608 85.9443 11.7608 86.0544 11.7426C86.1513 11.7259 86.2483 11.7077 86.3452 11.6955C86.3643 11.6925 86.3878 11.7122 86.4068 11.7259C86.448 11.7532 86.4832 11.7987 86.5273 11.8093C86.5713 11.8199 86.6227 11.8002 86.6712 11.7926C86.7197 11.785 86.771 11.7623 86.8151 11.7714C86.8592 11.7805 86.9003 11.8184 86.9355 11.8518C86.9767 11.8912 87.0148 11.8958 87.0706 11.8806C87.1411 11.8609 87.2145 11.8563 87.2865 11.8457C87.3261 11.8745 87.3673 11.9033 87.4055 11.9352C87.4451 11.9686 87.4877 11.9655 87.542 11.9549C87.7226 11.9185 87.7241 11.9231 87.8754 12.0171C87.9444 12.0596 88.0164 12.0247 88.0854 12.0141C88.1588 12.0019 88.2278 11.9959 88.2851 12.0565C88.3409 12.1142 88.4099 12.1217 88.4834 12.1035C88.5304 12.0914 88.5803 12.0838 88.6288 12.0793C88.6508 12.0778 88.6772 12.0838 88.6934 12.096C88.7712 12.1597 88.8476 12.2173 88.9548 12.1764C89.0487 12.1885 89.0957 12.3129 89.2088 12.2886C89.3043 12.2674 89.4041 12.2628 89.4981 12.2355C89.5848 12.2112 89.6464 12.2537 89.6905 12.3068C89.7698 12.4008 89.8814 12.2734 89.9607 12.3659C90.0062 12.419 90.065 12.4615 90.1531 12.4387C90.25 12.4145 90.2808 12.4463 90.3087 12.5419C90.3249 12.5965 90.322 12.6405 90.2926 12.6829C90.2632 12.7269 90.2309 12.7193 90.1839 12.6693C90.1296 12.6132 90.065 12.6025 89.9871 12.6147C89.9108 12.6268 89.8638 12.548 89.8006 12.5176C89.7375 12.4858 89.6626 12.5389 89.5965 12.4979C89.4409 12.4023 89.4409 12.4023 89.3351 12.4205C89.2632 12.4327 89.1883 12.4388 89.1178 12.46C89.0341 12.4858 88.9797 12.4387 88.9225 12.3963C88.9019 12.3811 88.8813 12.3523 88.8637 12.3538C88.6948 12.3766 88.5245 12.3978 88.3571 12.4357C88.269 12.4554 88.222 12.4008 88.1632 12.3629C88.1427 12.3493 88.1206 12.322 88.103 12.325C87.9576 12.3462 87.8137 12.3735 87.6683 12.3993C87.6404 12.4403 87.6096 12.4797 87.5831 12.5237C87.5552 12.5692 87.5171 12.5889 87.4613 12.5874C87.3688 12.5874 87.2777 12.6511 87.1852 12.5707C87.0897 12.4888 87.0824 12.4933 86.9899 12.5131C86.8724 12.5389 86.7476 12.5328 86.6374 12.5919C86.6183 12.6026 86.5978 12.6314 86.5978 12.6526C86.5963 12.6662 86.6271 12.686 86.6462 12.6981C86.7109 12.7345 86.7857 12.6814 86.8503 12.7193C86.8929 12.7436 86.9282 12.78 86.9708 12.8058C86.9884 12.8164 87.0148 12.8149 87.0383 12.8134C87.0633 12.8119 87.0868 12.8012 87.1103 12.8028C87.1323 12.8043 87.1558 12.8134 87.1735 12.827C87.2542 12.8847 87.3394 12.9377 87.4113 13.006C87.4818 13.0727 87.5479 13.0272 87.6184 13.0242C87.9003 13.1304 87.9004 13.1319 88.0898 13.0985C88.1368 13.0909 88.1853 13.0818 88.2337 13.0834C88.2543 13.0834 88.2734 13.1106 88.2939 13.1258C88.3527 13.1713 88.4085 13.2123 88.4907 13.188C88.5612 13.1668 88.6361 13.1622 88.7081 13.1486C88.805 13.1319 88.805 13.1319 88.9695 13.2274C89.0106 13.2517 89.0546 13.2487 89.1075 13.2365C89.153 13.2259 89.2 13.2487 89.2323 13.2927C89.2455 13.3109 89.2411 13.3412 89.2455 13.367C89.1001 13.3913 88.9533 13.4079 88.8123 13.4443C88.7213 13.4671 88.6801 13.4019 88.6199 13.367C88.5994 13.3549 88.5774 13.3291 88.5583 13.3321C88.4144 13.3549 88.2704 13.3806 88.1265 13.411C88.1089 13.414 88.0869 13.4489 88.0854 13.4701C88.0825 13.5095 88.1192 13.5475 88.172 13.5459C88.2425 13.5444 88.3116 13.5186 88.3747 13.5808C88.4276 13.6354 88.4936 13.6597 88.5715 13.6354C88.6185 13.6218 88.6684 13.6218 88.7154 13.6097C88.8402 13.5733 88.9533 13.5808 89.0473 13.684C89.1192 13.7113 89.1897 13.6855 89.2588 13.6718C89.3102 13.6612 89.3601 13.6506 89.3968 13.6794C89.4746 13.7401 89.551 13.8008 89.6582 13.7598C89.7742 13.8023 89.8623 13.8918 89.9593 13.9646C90.0048 13.9995 90.04 14.0192 90.0929 13.9964C90.1149 13.9873 90.1413 13.9873 90.1648 13.9828C90.2133 13.9752 90.2647 13.9524 90.3087 13.9615C90.3528 13.9721 90.3895 14.0161 90.4292 14.0434C90.4483 14.0571 90.4703 14.0798 90.4894 14.0783C90.5628 14.0707 90.6348 14.0556 90.7067 14.0434C90.7787 14.0328 90.8506 14.0222 90.9226 14.0116C90.9828 14.051 91.0445 14.0905 91.1047 14.1299C91.2016 14.1132 91.2986 14.0965 91.394 14.0814C91.5012 14.0632 91.5012 14.0647 91.6554 14.1587C91.7244 14.2012 91.7978 14.1739 91.8639 14.1542C91.9741 14.1223 92.0475 14.18 92.1253 14.2406C92.1415 14.2528 92.1708 14.2603 92.1899 14.2543C92.2663 14.233 92.3324 14.2497 92.3882 14.3058C92.4278 14.3453 92.4675 14.3635 92.5159 14.3559C92.6848 14.3271 92.8537 14.2967 93.0226 14.2709C93.0431 14.2679 93.0666 14.2816 93.0857 14.2937C93.2355 14.3862 93.237 14.3908 93.3471 14.3665C93.4455 14.3453 93.5366 14.3362 93.6144 14.4196C93.6306 14.4378 93.6555 14.4636 93.6731 14.4621C93.7936 14.4469 93.9155 14.4302 94.0344 14.4044C94.0888 14.3923 94.1269 14.3968 94.1695 14.4317C94.2239 14.4757 94.2723 14.5288 94.3619 14.5091C94.6101 14.453 94.6115 14.462 94.9053 14.5667C94.9258 14.5743 94.9537 14.5622 94.9772 14.5561C95.0271 14.5409 95.0638 14.5622 95.1079 14.597C95.2063 14.6759 95.2092 14.6714 95.3032 14.6547C95.3752 14.641 95.4501 14.638 95.5206 14.6152C95.6292 14.5819 95.7012 14.641 95.782 14.6972C95.8466 14.7411 95.9215 14.7047 95.9905 14.6911C96.0654 14.6759 96.1329 14.6805 96.1887 14.7381C96.2269 14.7775 96.268 14.7988 96.3165 14.7912C96.4854 14.7639 96.6543 14.7335 96.8232 14.7062C96.8437 14.7032 96.8687 14.7153 96.8878 14.726C97.0552 14.82 97.0552 14.8246 97.2211 14.7897C97.274 14.7791 97.318 14.776 97.3577 14.8079C97.3959 14.8382 97.437 14.867 97.4766 14.8958C97.5486 14.8852 97.622 14.8822 97.6925 14.864C97.7469 14.8503 97.785 14.8564 97.8276 14.8883C97.8834 14.9292 97.9304 15.0005 98.0185 14.9656C98.064 14.9489 98.1169 14.9535 98.1624 14.9383C98.2168 14.9186 98.2535 14.9307 98.2961 14.9702C98.349 15.0172 98.4033 15.0657 98.4884 15.0414C98.5824 15.0141 98.6823 15.0096 98.7777 14.9884C98.8306 14.9762 98.8673 14.9884 98.9099 15.0278C98.9628 15.0778 99.023 15.1097 99.1053 15.09C99.2727 15.0521 99.2741 15.0596 99.4371 15.1552C99.4782 15.1795 99.5223 15.1764 99.5752 15.1643C99.6207 15.1537 99.6677 15.1764 99.7 15.2204C99.7308 15.269 99.7279 15.2993 99.7308 15.3251ZM86.6448 1.64571C86.5963 1.6533 86.5478 1.6624 86.4773 1.53044C86.4729 1.50769 86.4759 1.4804 86.4656 1.46068C86.4421 1.41973 86.4054 1.39091 86.3614 1.38636C86.2821 1.38029 86.1866 1.43185 86.188 1.47129C86.1895 1.50466 86.2145 1.53347 86.2629 1.56077C86.2835 1.57139 86.2997 1.58959 86.3188 1.60172C86.3746 1.63661 86.4186 1.70487 86.4994 1.66999C86.4847 1.57595 86.492 1.62297 86.4994 1.66999C86.492 1.72762 86.5141 1.76858 86.5669 1.78526C86.5816 1.78981 86.6037 1.78677 86.6154 1.77767C86.6609 1.7443 86.6683 1.69881 86.6345 1.57899C86.6286 1.59871 86.633 1.63358 86.6462 1.64268C86.6595 1.65178 86.6917 1.6442 86.7079 1.63359C86.749 1.60477 86.7696 1.56685 86.7593 1.535C86.7534 1.51831 86.7255 1.49708 86.7079 1.49708C86.6771 1.49708 86.6492 1.53044 86.6448 1.64571ZM98.5193 19.2352C98.4121 19.264 98.2887 19.2534 98.1815 19.3125C98.1625 19.3232 98.1434 19.3505 98.1419 19.3717C98.1404 19.3854 98.1698 19.4051 98.1874 19.4157C98.2271 19.44 98.2711 19.4324 98.3225 19.4248C98.4004 19.4142 98.4459 19.4839 98.5061 19.5188C98.5252 19.5294 98.5501 19.537 98.5707 19.534C98.6896 19.5158 98.8071 19.4961 98.9261 19.4748C98.9466 19.4703 98.9687 19.4597 98.9863 19.446C99.045 19.402 99.0392 19.3732 98.9819 19.3399C98.9187 19.3035 98.8688 19.2428 98.8042 19.214C98.7117 19.173 98.6177 19.2276 98.5193 19.2352ZM90.1795 20.3424C90.1076 20.3545 90.037 20.3667 89.9651 20.3788C89.9416 20.3834 89.9166 20.3849 89.8946 20.3909C89.8491 20.4016 89.8153 20.4334 89.7933 20.4835C89.8271 20.5229 89.8682 20.5456 89.9137 20.5411C89.9857 20.532 90.0562 20.5123 90.1281 20.5077C90.2059 20.5017 90.2515 20.5699 90.3117 20.6048C90.3308 20.6154 90.3543 20.6169 90.3763 20.6184C90.485 20.6245 90.551 20.5456 90.5305 20.4349C90.5158 20.3485 90.46 20.2969 90.3925 20.3075C90.322 20.3181 90.25 20.3303 90.1795 20.3424ZM99.0215 16.9935C99.0392 16.9677 99.0583 16.9495 99.0671 16.9267C99.0935 16.8494 99.0832 16.7917 99.0347 16.7311C98.976 16.6568 98.9041 16.7068 98.838 16.7144C98.8218 16.7159 98.8042 16.7478 98.7954 16.7675C98.7895 16.7811 98.7895 16.81 98.7983 16.8175C98.8703 16.8782 98.9466 16.9343 99.0215 16.9935ZM86.282 12.5131C86.2116 12.5252 86.1396 12.5343 86.0691 12.551C86.0515 12.5555 86.0353 12.5843 86.025 12.6041C86.006 12.6405 86.0265 12.6905 86.0867 12.6951C86.1557 12.7011 86.2277 12.6754 86.2996 12.6632C86.3907 12.6481 86.445 12.5919 86.4113 12.5434C86.379 12.4964 86.3349 12.4873 86.282 12.5131ZM8.98005 9.27182C9.02704 9.26424 9.0755 9.25817 9.12249 9.24755C9.16655 9.23693 9.20035 9.20357 9.22238 9.15351C9.18567 9.11408 9.14453 9.09284 9.09901 9.09739C9.02705 9.1065 8.95657 9.11863 8.88608 9.13379C8.84202 9.1429 8.79945 9.17626 8.78917 9.22783C8.77889 9.26727 8.87725 9.29002 8.98005 9.27182ZM80.0716 9.03824C80.0907 9.05189 80.1098 9.0792 80.1289 9.0792C80.1759 9.0792 80.2244 9.07009 80.2684 9.05492C80.2875 9.04886 80.3022 9.02156 80.311 9.00032C80.3168 8.98667 80.3154 8.96241 80.3066 8.95028C80.264 8.87747 80.0936 8.90326 80.0657 8.98668C80.0628 9.00184 80.0702 9.02156 80.0716 9.03824ZM75.4384 0.732642C75.4428 0.75691 75.4443 0.781175 75.4502 0.805442C75.4619 0.850944 75.4942 0.884319 75.5412 0.90707C75.5779 0.869152 75.597 0.82669 75.5955 0.781188C75.5941 0.75692 75.5897 0.732637 75.5838 0.70837C75.572 0.662868 75.5397 0.629512 75.4928 0.606761C75.456 0.643162 75.4384 0.685624 75.4384 0.732642ZM102.415 20.6063C102.402 20.626 102.389 20.6458 102.374 20.664C102.414 20.7079 102.451 20.7216 102.478 20.6973C102.496 20.6822 102.506 20.6594 102.52 20.6397C102.48 20.5957 102.445 20.5836 102.415 20.6063ZM101.502 20.8126C101.521 20.8262 101.539 20.8444 101.559 20.8535C101.593 20.8687 101.624 20.8429 101.647 20.7883C101.628 20.7747 101.611 20.7565 101.59 20.7474C101.556 20.7322 101.525 20.758 101.502 20.8126ZM102.08 20.535C102.07 20.5714 102.091 20.6018 102.145 20.6276C102.158 20.6078 102.176 20.5896 102.185 20.5684C102.199 20.5335 102.174 20.5017 102.122 20.4774C102.107 20.4956 102.094 20.5153 102.08 20.535ZM98.9804 18.9C98.9701 18.9364 98.9907 18.9667 99.045 18.9925C99.0582 18.9728 99.0759 18.9546 99.0847 18.9334C99.0994 18.8985 99.0744 18.8666 99.0215 18.8424C99.0069 18.8606 98.9936 18.8803 98.9804 18.9ZM94.7569 8.16764C94.7437 8.18736 94.7305 8.20708 94.7158 8.22528C94.7555 8.26926 94.7922 8.28291 94.8201 8.25864C94.8377 8.24347 94.848 8.22072 94.8612 8.201C94.8215 8.15702 94.7863 8.14489 94.7569 8.16764ZM90.7111 2.47384C90.7464 2.48446 90.7757 2.46323 90.8007 2.40711C90.7816 2.39346 90.764 2.37526 90.7434 2.36616C90.7096 2.35099 90.6788 2.37679 90.6553 2.43139C90.6744 2.44655 90.6935 2.46019 90.7111 2.47384ZM88.5627 2.11741C88.5495 2.13713 88.5362 2.15685 88.5216 2.17505C88.5612 2.21904 88.5979 2.23268 88.6258 2.20841C88.6434 2.19325 88.6537 2.1705 88.6669 2.15078C88.6273 2.10679 88.592 2.09618 88.5627 2.11741ZM73.9934 0.731124C73.9802 0.750842 73.9669 0.77056 73.9523 0.788761C73.9919 0.832746 74.0286 0.846392 74.0565 0.822124C74.0742 0.806957 74.0844 0.784205 74.0976 0.764488C74.058 0.720503 74.0228 0.70989 73.9934 0.731124ZM1.44942 13.0712C1.43033 13.0576 1.41126 13.0439 1.39363 13.0288C1.35105 13.0697 1.33783 13.1076 1.36133 13.1364C1.37602 13.1546 1.39803 13.1653 1.41712 13.1789C1.46117 13.138 1.47145 13.1015 1.44942 13.0712Z" fill="#FFE492"/>
</svg>
