<svg width="319" height="31" viewBox="0 0 319 31" fill="none" xmlns="http://www.w3.org/2000/svg">
<path d="M298.175 15.9124C297.741 15.9376 297.302 15.955 296.876 15.9928C296.599 16.0164 296.481 15.9471 296.296 15.9109C296.235 15.8983 296.169 15.8731 296.112 15.8762C295.681 15.9014 295.251 15.9298 294.821 15.9581C294.689 16.0195 294.606 16.1014 294.404 16.1313C294.206 16.1597 293.973 16.1597 293.754 16.1739C293.464 16.1912 293.174 16.2085 292.885 16.2243C292.74 16.2321 292.621 16.2621 292.573 16.3188C292.564 16.3282 292.661 16.3518 292.713 16.366C292.889 16.4132 293.06 16.4668 293.253 16.503C293.438 16.5377 293.666 16.481 293.864 16.5251C294.307 16.6243 294.312 16.6227 294.65 16.6038C294.939 16.5865 295.229 16.5676 295.519 16.555C295.576 16.5518 295.642 16.5755 295.703 16.5881C295.888 16.6227 296.006 16.7014 296.279 16.6715C296.485 16.6479 296.713 16.6432 296.928 16.6306C297.108 16.6762 297.275 16.7282 297.468 16.7644C297.648 16.7991 297.701 16.8259 297.605 16.8715C297.517 16.9141 297.394 16.9314 297.231 16.9345C297.086 16.9361 296.941 16.9503 296.797 16.9581C296.722 16.9629 296.652 16.966 296.581 16.9708C296.305 16.9881 296.305 16.9881 295.8 16.8873C295.602 16.8479 295.378 16.903 295.19 16.8652C295.062 16.84 294.953 16.8022 294.83 16.7755C294.777 16.7644 294.694 16.7629 294.628 16.766C294.408 16.777 294.189 16.7849 293.978 16.8054C293.829 16.8196 293.741 16.8637 293.758 16.9078C293.763 16.9251 293.868 16.9503 293.93 16.9519C294.07 16.955 294.219 16.9329 294.355 16.944C294.487 16.955 294.623 16.9865 294.72 17.0211C294.917 17.0936 295.141 17.029 295.33 17.0479C295.528 17.0684 295.69 17.1314 295.879 17.1692C295.927 17.1786 296.019 17.1629 296.094 17.1582C296.309 17.1471 296.524 17.1377 296.74 17.1267C296.92 17.1723 297.113 17.2133 297.275 17.2653C297.569 17.3597 297.886 17.396 298.268 17.3503C298.483 17.3251 298.693 17.3345 298.865 17.396C299.04 17.459 299.242 17.4527 299.466 17.4401C299.673 17.4275 299.883 17.3928 300.094 17.4369C300.551 17.5345 300.555 17.5393 301.095 17.5015C301.258 17.4905 301.38 17.4873 301.503 17.5235C301.617 17.5566 301.74 17.5849 301.859 17.6164C302.074 17.6054 302.294 17.5944 302.509 17.5818C302.785 17.5645 302.939 17.5865 303.005 17.6747C303.044 17.7283 303.062 17.7771 303.159 17.8133C303.273 17.8574 303.396 17.8558 303.562 17.8432C303.721 17.8322 303.835 17.8149 303.901 17.7582C303.927 17.7346 303.98 17.7125 304.028 17.6936C304.067 17.6794 304.129 17.6574 304.164 17.6605C304.23 17.6668 304.318 17.6842 304.34 17.7046C304.555 17.8952 304.555 17.8968 304.774 17.9519C305.016 18.0133 305.266 18.0684 305.486 18.1377C305.683 18.1991 305.881 18.1724 306.096 18.1724C306.258 18.1724 306.364 18.2133 306.351 18.2543C306.342 18.2779 306.28 18.3125 306.228 18.3157C305.797 18.3472 305.363 18.3739 304.928 18.396C304.875 18.3991 304.81 18.3708 304.748 18.3566C304.625 18.3283 304.515 18.2842 304.384 18.2747C304.252 18.2653 304.098 18.2889 303.953 18.2968C303.808 18.3046 303.655 18.3251 303.523 18.3125C303.391 18.2999 303.286 18.2543 303.163 18.2243C303.106 18.2102 303.027 18.1897 302.979 18.1944C302.658 18.2322 302.421 18.1802 302.193 18.1109C302.144 18.0968 302.061 18.0873 302 18.0905C301.49 18.1172 300.985 18.1487 300.476 18.1787C300.27 18.1913 300.103 18.1361 300.059 18.0432C300.037 17.9913 299.993 17.9393 299.993 17.8873C299.993 17.7928 299.752 17.7409 299.576 17.7519C299.286 17.7676 298.992 17.7802 298.707 17.8038C298.474 17.8227 298.276 17.8038 298.118 17.7471C297.934 17.6826 297.723 17.6952 297.512 17.7125C297.354 17.7251 297.31 17.7771 297.319 17.9078C297.328 18.0133 297.253 18.0464 296.968 18.0637C296.608 18.0857 296.243 18.1078 295.879 18.1251C295.822 18.1283 295.756 18.1015 295.699 18.0873C295.576 18.059 295.466 18.0133 295.335 18.0039C295.203 17.9928 295.049 18.0165 294.904 18.0259C294.759 18.0338 294.606 18.0558 294.474 18.0448C294.342 18.0338 294.232 17.9865 294.114 17.9566C294.057 17.9424 293.987 17.922 293.93 17.9251C293.64 17.9377 293.35 17.9566 293.06 17.9739C292.735 17.9928 292.735 17.9928 292.274 17.8952C292.064 17.8511 291.853 17.8857 291.646 17.8983C291.427 17.9109 291.22 17.9172 291.049 17.8542C290.935 17.8133 290.808 17.7881 290.672 17.796C290.307 17.8149 289.947 17.8385 289.583 17.8574C289.521 17.8605 289.438 17.8527 289.39 17.8385C289.157 17.7724 288.929 17.7204 288.604 17.7535C288.323 17.7818 288.02 17.7834 287.739 17.8101C287.585 17.8243 287.515 17.8747 287.546 17.9141C287.563 17.9346 287.655 17.9582 287.717 17.9582C287.857 17.9598 288.011 17.9361 288.143 17.9456C288.415 17.9645 288.551 18.0968 288.907 18.0605C289.117 18.0385 289.337 18.0306 289.556 18.0243C289.614 18.0227 289.675 18.0527 289.736 18.0684C289.912 18.1109 290.066 18.1661 290.32 18.1377C290.531 18.1157 290.755 18.1094 290.97 18.0968C291.313 18.0763 291.313 18.0779 291.756 18.1739C291.967 18.2196 292.178 18.1834 292.384 18.1724C292.538 18.1645 292.683 18.1487 292.806 18.1708C292.994 18.2039 293.13 18.2794 293.363 18.2747C293.583 18.27 293.798 18.248 294.017 18.2401C294.153 18.2354 294.281 18.2606 294.391 18.3031C294.505 18.3456 294.628 18.3645 294.777 18.355C294.992 18.3424 295.212 18.3267 295.431 18.3188C295.493 18.3172 295.563 18.3314 295.62 18.344C295.743 18.3724 295.861 18.4054 295.98 18.4354C296.195 18.4259 296.415 18.4228 296.625 18.4039C296.788 18.3897 296.902 18.396 297.034 18.4275C297.201 18.47 297.337 18.5456 297.609 18.5094C297.745 18.4921 297.903 18.4968 298.039 18.481C298.206 18.4606 298.32 18.4684 298.439 18.5157C298.663 18.6054 298.944 18.607 299.233 18.5724C299.55 18.5346 299.787 18.5787 300.024 18.648C300.274 18.7204 300.274 18.7188 300.467 18.8937C300.524 18.944 300.687 18.9677 300.823 18.9582C301.051 18.9425 301.249 18.9503 301.416 19.0102C301.591 19.0748 301.802 19.0669 302.017 19.0496C302.302 19.0259 302.588 19.0055 302.821 19.0968C302.935 19.1409 303.058 19.1519 303.211 19.1409C303.646 19.1125 304.085 19.0952 304.511 19.0606C304.77 19.0385 304.919 19.0889 305.095 19.1315C305.332 19.1897 305.591 19.2417 305.591 19.3661C305.591 19.3866 305.652 19.4102 305.705 19.426C305.819 19.459 305.942 19.4874 306.061 19.5189C306.236 19.5661 306.408 19.6055 306.649 19.5803C306.86 19.5598 307.084 19.5535 307.299 19.5393C307.514 19.5252 307.712 19.5173 307.905 19.5771C308.129 19.6449 308.366 19.7094 308.621 19.7598C308.801 19.796 309.038 19.7346 309.231 19.7834C309.349 19.8134 309.464 19.848 309.591 19.8732C309.643 19.8842 309.727 19.8764 309.797 19.8732C309.942 19.8669 310.091 19.8622 310.232 19.8464C310.394 19.8291 310.517 19.8323 310.64 19.8685C310.754 19.9016 310.869 19.9472 311 19.9567C311.198 19.9709 311.417 19.9079 311.615 19.9803C311.716 20.0165 311.843 20.0512 311.975 20.0622C312.107 20.0732 312.26 20.0496 312.401 20.0512C312.462 20.0512 312.537 20.0764 312.572 20.0968C312.594 20.1079 312.563 20.1378 312.533 20.1535C312.493 20.1724 312.436 20.1976 312.379 20.2008C311.944 20.2291 311.51 20.2528 311.075 20.2795C310.816 20.2953 310.816 20.2953 310.293 20.1961C310.17 20.1724 310.034 20.1772 309.881 20.1882C309.674 20.2024 309.464 20.2291 309.248 20.2008C308.967 20.0937 308.621 20.0842 308.252 20.1252C308.098 20.1425 307.958 20.1425 307.843 20.1126C307.602 20.0527 307.347 19.9976 307.132 19.9268C306.965 19.8716 306.886 19.8669 306.816 19.9425C306.794 19.9661 306.772 19.9913 306.776 20.0134C306.803 20.0921 306.851 20.1693 306.877 20.248C306.886 20.2701 306.851 20.2953 306.829 20.3189C306.759 20.385 306.667 20.3803 306.513 20.3252C306.359 20.2701 306.175 20.2339 305.929 20.2591C305.718 20.2811 305.49 20.278 305.279 20.3016C304.954 20.3362 304.726 20.2858 304.493 20.2181C304.445 20.2039 304.362 20.1961 304.3 20.1992C303.646 20.2354 302.996 20.2764 302.342 20.3126C302.202 20.3205 302.074 20.2969 301.964 20.2543C301.85 20.2118 301.723 20.1898 301.582 20.1976C301.003 20.2307 300.423 20.2606 299.844 20.3016C299.607 20.3189 299.418 20.2984 299.255 20.2433C299.132 20.2023 299.018 20.1898 298.865 20.1945C298.698 20.1992 298.579 20.215 298.496 20.2606C298.417 20.3047 298.474 20.3315 298.649 20.3661C298.838 20.4039 299.014 20.4528 299.194 20.4969C299.339 20.4906 299.484 20.4779 299.624 20.4795C299.686 20.4795 299.743 20.5079 299.804 20.5236C299.98 20.5693 300.142 20.615 300.393 20.5898C300.603 20.5677 300.827 20.563 301.042 20.5488C301.341 20.5315 301.341 20.5315 301.824 20.6307C301.947 20.6559 302.078 20.6543 302.237 20.6402C302.373 20.6291 302.513 20.6512 302.61 20.6984C302.649 20.7173 302.636 20.7488 302.553 20.8528C302.553 20.93 302.645 20.8953 302.676 20.8449C302.724 20.7725 302.632 20.7488 302.456 20.7882C302.333 20.8166 302.272 20.8575 302.302 20.8906C302.32 20.9079 302.403 20.93 302.553 20.8528C302.939 20.7583 303.233 20.7473 303.514 20.7221C303.681 20.7079 303.786 20.7142 303.918 20.7551C304.076 20.8039 304.234 20.8559 304.493 20.8307C304.774 20.8024 305.073 20.7992 305.358 20.7756C305.622 20.7535 305.758 20.8229 305.925 20.8638C306.127 20.9126 306.351 20.8575 306.535 20.8858C306.728 20.9142 306.864 20.9835 307.088 20.9961C307.413 20.9536 307.619 21.0323 307.865 21.0843C308.059 21.1237 308.287 21.089 308.493 21.0717C308.726 21.0528 308.919 21.0701 309.082 21.1268C309.266 21.1914 309.472 21.1772 309.683 21.163C310.175 21.1315 310.192 21.1268 310.478 21.2134C310.684 21.2764 310.882 21.2481 311.088 21.2402C311.268 21.2827 311.444 21.3284 311.633 21.3662C311.681 21.3756 311.773 21.3599 311.848 21.3552C312.063 21.3426 312.282 21.33 312.497 21.3174C312.642 21.3095 312.796 21.2859 312.928 21.2953C313.059 21.3063 313.169 21.352 313.288 21.3819C313.406 21.4119 313.529 21.4418 313.643 21.4733C313.819 21.5205 313.986 21.5599 314.232 21.5363C314.442 21.5158 314.662 21.5095 314.882 21.4953C315.158 21.478 315.149 21.4827 315.663 21.5772C315.94 21.6292 316.225 21.5662 316.506 21.5599C316.647 21.5567 316.783 21.5741 316.879 21.6197C316.919 21.6386 316.906 21.6701 316.919 21.6969C316.194 21.7394 315.465 21.7756 314.75 21.8276C314.473 21.8481 314.328 21.7914 314.179 21.7441C313.933 21.6685 313.608 21.7788 313.376 21.6811C313.235 21.6229 313.033 21.5898 312.792 21.6182C312.651 21.6339 312.502 21.6323 312.357 21.6465C311.988 21.6811 311.65 21.6827 311.356 21.5741C311.255 21.5363 311.11 21.5158 311.005 21.4796C310.882 21.4402 310.763 21.4181 310.618 21.426C309.964 21.4638 309.314 21.5016 308.664 21.5426C308.607 21.5457 308.55 21.5693 308.502 21.5867C308.379 21.6308 308.419 21.6654 308.616 21.6938C308.682 21.7032 308.735 21.7237 308.796 21.7394C308.915 21.7693 309.024 21.8166 309.156 21.8276C309.288 21.8386 309.442 21.8166 309.587 21.8087C309.731 21.8008 309.885 21.7772 310.017 21.7867C310.149 21.7977 310.258 21.8434 310.381 21.8717C310.438 21.8859 310.509 21.9095 310.566 21.9079C310.855 21.8985 311.141 21.8812 311.431 21.867C311.611 21.9095 311.764 21.9709 311.979 21.9851C312.116 21.9945 312.26 21.9772 312.401 21.9804C312.462 21.9819 312.541 22.0056 312.572 22.026C312.59 22.0386 312.533 22.0701 312.489 22.0859C312.322 22.1457 312.094 22.1347 311.887 22.1536C311.663 22.1741 311.461 22.1678 311.29 22.1064C311.176 22.0654 311.048 22.0434 310.908 22.0512C310.544 22.0717 310.184 22.0953 309.819 22.1127C309.758 22.1158 309.683 22.1016 309.626 22.0906C309.165 21.9946 309.165 21.9914 308.84 22.0119C308.361 22.0418 308.362 22.0418 308.041 21.9583C307.98 21.9426 307.914 21.9127 307.861 21.9142C307.352 21.9394 306.847 21.9646 306.342 22.0008C306.175 22.0119 306.061 22.0119 305.938 21.9709C305.833 21.9363 305.71 21.8969 305.578 21.8875C305.442 21.878 305.292 21.9016 305.148 21.9095C305.003 21.9174 304.849 21.9379 304.722 21.9253C304.59 21.9127 304.476 21.8686 304.362 21.8371C304.243 21.804 304.116 21.8056 303.953 21.8182C303.453 21.8544 303.448 21.8497 302.952 21.752C302.895 21.741 302.821 21.7284 302.759 21.7315C302.395 21.7504 302.035 21.7741 301.67 21.793C301.53 21.8008 301.394 21.7804 301.297 21.7347C301.257 21.7158 301.271 21.6843 301.244 21.6229C301.214 21.6087 301.249 21.6339 301.257 21.6575C301.323 21.6544 301.402 21.6575 301.451 21.6449C301.574 21.615 301.635 21.5756 301.604 21.5426C301.587 21.5252 301.503 21.5032 301.451 21.5032C301.354 21.5032 301.271 21.5378 301.244 21.6229C300.968 21.6748 300.673 21.6859 300.388 21.7111C300.221 21.7268 300.116 21.719 299.984 21.678C299.826 21.6276 299.664 21.5788 299.405 21.604C299.124 21.6323 298.825 21.6371 298.535 21.6591C298.202 21.6843 298.057 21.5426 297.776 21.5457C297.486 21.5489 297.196 21.5756 296.906 21.5945C296.652 21.6103 296.652 21.6103 296.125 21.5079C295.932 21.4701 295.703 21.5252 295.515 21.4859C295.387 21.4607 295.277 21.4229 295.155 21.3961C295.102 21.3851 295.018 21.3851 294.953 21.3882C294.588 21.4071 294.219 21.4197 293.868 21.4544C293.469 21.4953 293.166 21.4512 292.88 21.3583C292.52 21.3756 292.156 21.3851 291.8 21.415C291.541 21.437 291.392 21.3851 291.216 21.3426C291.155 21.3284 291.102 21.3048 291.036 21.2985C290.97 21.2922 290.891 21.3048 290.821 21.3095C290.531 21.3268 290.233 21.3347 289.952 21.363C289.605 21.3993 289.473 21.2701 289.205 21.2544C289.025 21.3315 288.929 21.437 288.573 21.4449C288.283 21.4512 287.993 21.4764 287.704 21.4937C287.559 21.5016 287.414 21.5111 287.269 21.5189C287.036 21.5331 286.927 21.5945 286.975 21.689C287.001 21.741 287.023 21.793 287.045 21.8449C287.089 21.9379 286.979 22.0166 286.795 22.0276C286.285 22.0575 285.781 22.089 285.271 22.1158C285.135 22.1237 285.003 22.0969 284.894 22.0544C284.779 22.0119 284.652 21.993 284.512 22.0008C284.002 22.0308 283.497 22.0623 282.988 22.089C282.931 22.0922 282.856 22.0764 282.799 22.0638C282.676 22.0355 282.558 22.0024 282.439 21.9725C282.15 21.9867 281.864 21.9961 281.579 22.015C281.118 22.0434 281.118 22.0449 280.78 21.9583C280.718 21.9426 280.657 21.9127 280.6 21.9142C280.38 21.9205 280.165 21.9363 279.945 21.9505C279.3 21.9914 279.3 21.9914 279.111 21.9442C278.94 21.9001 278.786 21.8465 278.527 21.8717C278.246 21.9001 277.948 21.9095 277.658 21.9253C277.443 21.9363 277.228 21.9489 277.012 21.952C276.955 21.9536 276.894 21.9237 276.833 21.9079C276.657 21.8591 276.486 21.8197 276.244 21.8465C276.104 21.8623 275.954 21.8654 275.809 21.8733C275.432 21.8953 275.432 21.8953 274.813 21.8008C274.751 21.7914 274.677 21.7804 274.615 21.7851C274.106 21.8134 273.601 21.8449 273.092 21.8717C273.03 21.8749 272.956 21.8654 272.894 21.8575C272.2 21.7662 272.2 21.7662 271.463 21.8103C271.182 21.826 271.173 21.8323 270.879 21.7489C270.747 21.7126 270.637 21.6953 270.484 21.7063C269.904 21.7441 269.32 21.7693 268.745 21.8134C268.486 21.8323 268.337 21.7851 268.161 21.7426C268.1 21.7284 268.034 21.6969 267.981 21.6985C267.402 21.7284 266.822 21.7646 266.242 21.7945C266.19 21.7977 266.124 21.7662 266.062 21.752C265.944 21.7237 265.83 21.6812 265.698 21.6717C265.562 21.6623 265.412 21.6859 265.263 21.6938C264.899 21.7142 264.899 21.7127 264.477 21.6197C264.42 21.6071 264.346 21.5898 264.289 21.593C263.709 21.6245 263.125 21.6512 262.55 21.6969C262.221 21.7221 261.997 21.6764 261.764 21.6103C261.716 21.5961 261.632 21.5898 261.571 21.593C260.917 21.6292 260.267 21.6701 259.613 21.7063C259.476 21.7142 259.345 21.6874 259.235 21.6465C259.059 21.5819 258.853 21.5898 258.633 21.604C258.129 21.637 258.124 21.6355 257.826 21.5599C257.764 21.5441 257.711 21.5237 257.646 21.5158C257.584 21.5079 257.505 21.5126 257.439 21.5158C257.149 21.5315 256.86 21.5489 256.57 21.5662C256.28 21.5835 255.986 21.593 255.7 21.6197C255.349 21.6528 255.182 21.5504 254.936 21.5032C254.576 21.5237 254.208 21.5363 253.852 21.5693C253.58 21.5945 253.453 21.5252 253.273 21.489C253.211 21.4764 253.145 21.4496 253.088 21.4528C252.434 21.4874 251.78 21.5252 251.13 21.5678C250.972 21.5772 250.866 21.5646 250.735 21.5268C250.441 21.4418 250.427 21.4449 249.936 21.4764C249.72 21.4906 249.514 21.5032 249.33 21.4386C249.167 21.3804 248.97 21.3662 248.737 21.3851C248.452 21.4087 248.157 21.4213 247.868 21.437C247.578 21.4544 247.288 21.478 246.998 21.4859C246.766 21.4937 246.625 21.4197 246.441 21.3819C246.384 21.3709 246.305 21.3693 246.239 21.3725C245.949 21.3867 245.65 21.3977 245.369 21.4244C245.027 21.4575 244.838 21.3709 244.597 21.3205C244.544 21.3095 244.456 21.3158 244.39 21.3205C243.881 21.3489 243.376 21.3803 242.867 21.4103C242.687 21.3678 242.502 21.3268 242.322 21.2843C242.032 21.3 241.743 21.3174 241.453 21.3331C241.233 21.3457 241.009 21.3504 240.803 21.3741C240.535 21.4056 240.404 21.3315 240.224 21.2953C240.162 21.2827 240.096 21.2559 240.039 21.2591C239.675 21.2764 239.31 21.2953 238.95 21.3221C238.608 21.3489 238.472 21.2071 238.191 21.2087C237.901 21.2103 237.602 21.2307 237.321 21.2591C236.996 21.2922 236.768 21.2418 236.535 21.174C236.487 21.1599 236.404 21.152 236.342 21.1551C235.978 21.174 235.618 21.1977 235.253 21.2166C235.192 21.2197 235.117 21.2118 235.056 21.2024C234.362 21.1095 234.362 21.1079 234.059 21.1268C233.844 21.1394 233.625 21.1552 233.405 21.163C233.344 21.1662 233.269 21.152 233.212 21.1394C232.755 21.0433 232.755 21.0418 232.426 21.0607C232.136 21.078 231.846 21.0953 231.556 21.1126C231.376 21.0701 231.192 21.0292 231.012 20.9866C230.652 21.0071 230.283 21.0229 229.928 21.0512C229.761 21.0638 229.651 21.0591 229.524 21.0197C229.366 20.9725 229.208 20.9173 228.944 20.9441C228.663 20.9725 228.365 20.9756 228.079 20.9992C227.737 21.0276 227.596 20.8843 227.32 20.8858C227.03 20.8874 226.731 20.9079 226.45 20.9362C226.125 20.9693 225.897 20.9189 225.664 20.8512C225.616 20.837 225.533 20.8292 225.471 20.8323C224.672 20.878 223.877 20.9236 223.078 20.9725C222.587 21.0024 222.587 21.004 221.651 20.9173C221.585 20.911 221.515 20.9048 221.449 20.9079C221.159 20.9221 220.861 20.9331 220.58 20.9599C220.237 20.9929 220.049 20.9079 219.807 20.8559C219.755 20.8449 219.671 20.8512 219.601 20.8543C219.381 20.8654 219.166 20.8796 218.947 20.8922C218.657 20.9095 218.367 20.9268 218.077 20.9441C217.897 20.9032 217.713 20.8606 217.533 20.8197C217.173 20.8402 216.804 20.8512 216.448 20.8843C216.176 20.9095 216.049 20.8433 215.869 20.8055C215.807 20.7929 215.742 20.7662 215.684 20.7677C215.03 20.8024 214.376 20.8386 213.726 20.8827C213.458 20.9016 213.335 20.8307 213.155 20.7945C213.094 20.7835 213.024 20.763 212.967 20.7662C212.532 20.7882 212.097 20.815 211.663 20.8417C211.417 20.8575 211.417 20.8575 210.881 20.7599C210.82 20.7488 210.749 20.7378 210.688 20.741C209.309 20.8197 207.935 20.9032 206.556 20.9819C206.416 20.9898 206.289 20.9662 206.179 20.9236C206.065 20.8811 205.937 20.8591 205.797 20.867C205.217 20.9 204.633 20.93 204.058 20.9709C203.821 20.9882 203.632 20.9677 203.47 20.9126C203.347 20.8717 203.233 20.8559 203.079 20.8654C202.789 20.8843 202.499 20.9 202.21 20.9173C201.92 20.9347 201.63 20.952 201.34 20.9693C201.051 20.9866 200.756 20.9961 200.471 21.0229C200.12 21.0559 199.949 20.9583 199.707 20.9095C199.272 20.9331 198.838 20.9567 198.407 20.9819C197.828 21.015 197.248 21.0512 196.669 21.0827C196.616 21.0859 196.55 21.0575 196.489 21.0433C196.309 21.004 196.177 20.9488 195.909 20.9662C194.609 21.0496 193.301 21.1205 191.997 21.2024C191.725 21.2197 191.606 21.152 191.422 21.1158C191.36 21.1047 191.29 21.0827 191.233 21.0859C190.509 21.1252 189.784 21.1693 189.06 21.2118C188.766 21.2292 188.766 21.2292 188.274 21.1315C188.217 21.1205 188.142 21.1063 188.081 21.1095C187.137 21.163 186.197 21.2197 185.253 21.2748C185.113 21.2827 184.985 21.2607 184.871 21.2181C184.761 21.1756 184.63 21.152 184.494 21.1599C183.624 21.2103 182.75 21.2591 181.886 21.3142C181.653 21.33 181.46 21.3158 181.293 21.2591C181.174 21.2181 181.056 21.2008 180.906 21.2103C179.602 21.2874 178.298 21.3615 176.994 21.4434C176.744 21.4591 176.568 21.4292 176.41 21.3772C176.283 21.3363 176.173 21.3284 176.015 21.3347C175.848 21.3426 175.747 21.3599 175.655 21.4071C175.537 21.4685 175.462 21.5457 175.181 21.5504C174.891 21.5552 174.597 21.5741 174.312 21.6008C174.039 21.6276 173.912 21.5567 173.741 21.5142C173.614 21.4843 173.495 21.4796 173.333 21.4937C173.183 21.5063 173.091 21.5331 173.003 21.5835C172.81 21.6906 172.793 21.6906 172.555 21.6229C172.428 21.5867 172.314 21.5583 172.173 21.5646C171.594 21.5961 171.014 21.6308 170.435 21.667C170.101 21.6874 170.097 21.6906 169.846 21.6119C169.724 21.5725 169.605 21.5536 169.46 21.563C167.866 21.6575 166.273 21.7489 164.679 21.8481C164.433 21.8638 164.266 21.8308 164.09 21.7835C164.033 21.7678 163.976 21.7457 163.91 21.7394C163.845 21.7331 163.77 21.7394 163.7 21.7426C162.541 21.8103 161.377 21.8749 160.222 21.9505C159.959 21.9678 159.818 21.9174 159.638 21.8764C159.577 21.8623 159.524 21.8402 159.458 21.8339C159.392 21.8292 159.313 21.8402 159.243 21.8449C158.084 21.9127 156.921 21.9772 155.766 22.0528C155.489 22.0701 155.371 22.004 155.191 21.9694C155.129 21.9568 155.063 21.9331 155.006 21.9363C154.642 21.9536 154.282 21.9772 153.917 21.9977C153.048 22.0497 152.179 22.0985 151.309 22.152C150.976 22.1725 150.831 22.0323 150.55 22.0386C150.185 22.0465 149.825 22.078 149.461 22.1001C149.171 22.1174 148.881 22.1331 148.591 22.152C148.306 22.1694 148.306 22.1694 147.595 22.078C147.533 22.0701 147.459 22.0591 147.397 22.0623C146.383 22.1205 145.364 22.1788 144.355 22.2418C144.122 22.256 143.929 22.2481 143.762 22.1898C143.643 22.1489 143.52 22.1284 143.375 22.1379C141.852 22.2276 140.333 22.3174 138.809 22.4056C138.752 22.4087 138.677 22.393 138.62 22.3804C138.497 22.352 138.379 22.319 138.26 22.2891C138.173 22.3253 138.058 22.3583 138.001 22.3993C137.922 22.4544 137.817 22.4702 137.65 22.4796C137.483 22.4891 137.378 22.4859 137.246 22.445C137.088 22.3946 136.926 22.3552 136.667 22.3709C135.073 22.4701 133.479 22.5599 131.885 22.6576C131.622 22.6733 131.499 22.604 131.314 22.5678C131.253 22.5568 131.183 22.5395 131.126 22.5426C130.471 22.5788 129.822 22.6182 129.167 22.656C127.354 22.7631 125.541 22.8655 123.732 22.9788C123.403 22.9993 123.179 22.9599 122.946 22.8922C122.898 22.878 122.814 22.8702 122.753 22.8733C120.215 23.0214 117.677 23.171 115.144 23.3206C115.008 23.3284 114.876 23.3033 114.766 23.2623C114.652 23.2198 114.525 23.1993 114.384 23.2072C113.225 23.2749 112.066 23.3426 110.907 23.4119C110.617 23.4293 110.613 23.4308 110.314 23.3552C110.253 23.3395 110.187 23.3096 110.139 23.3127C110.038 23.3206 109.941 23.3599 109.871 23.4135C109.8 23.4702 109.691 23.4859 109.528 23.497C109.361 23.508 109.252 23.5033 109.124 23.4655C108.962 23.4182 108.813 23.3726 108.549 23.3883C105.217 23.5899 101.884 23.7836 98.5517 23.9836C98.2838 23.9993 98.1609 23.9332 97.9765 23.897C97.915 23.886 97.8536 23.8702 97.7877 23.867C97.7175 23.8639 97.6428 23.8734 97.5726 23.8781C92.137 24.1978 86.7015 24.519 81.2659 24.8387C80.941 24.8576 80.9454 24.8576 80.5897 25.0025C80.5458 25.0199 80.4887 25.0435 80.4272 25.0466C78.7632 25.1474 77.0948 25.245 75.4264 25.3427C74.7019 25.3852 73.9775 25.4293 73.253 25.4703C72.994 25.4844 72.994 25.4844 72.3749 25.6545C72.3222 25.6687 72.2607 25.6876 72.1992 25.6907C69.3014 25.8624 66.4036 26.0341 63.5014 26.2026C63.2731 26.2152 63.0887 26.2435 62.9833 26.3191C62.9087 26.3727 62.8121 26.4042 62.6672 26.4136C60.6387 26.5333 58.6103 26.6546 56.5775 26.7711C56.336 26.7853 56.191 26.8294 56.0725 26.8955C56.033 26.9176 55.9978 26.9427 55.9408 26.9585C55.8881 26.9727 55.8091 26.9774 55.7432 26.9821C54.0045 27.0845 52.2659 27.19 50.5228 27.2877C50.2638 27.3018 50.1583 27.3601 50.031 27.4215C49.9871 27.442 49.9563 27.4703 49.8993 27.4845C49.8422 27.4971 49.7588 27.4971 49.6885 27.5003C48.2396 27.5853 46.7908 27.6719 45.3419 27.757C45.0609 27.7491 44.9994 27.8404 44.8633 27.8955C44.815 27.9144 44.7799 27.9396 44.7228 27.9522C44.6614 27.9648 44.5822 27.9633 44.5076 27.9664C43.3485 28.0341 42.1894 28.1066 41.0259 28.1696C40.758 28.1837 40.7053 28.2641 40.5604 28.3192C40.5121 28.3365 40.4639 28.3633 40.4068 28.368C39.6824 28.4137 38.9579 28.4562 38.2335 28.4971C37.992 28.5113 37.992 28.5097 37.5661 28.6657C37.5178 28.683 37.4607 28.7019 37.3992 28.7066C36.3147 28.7727 35.2259 28.8357 34.137 28.9003C33.9965 28.9082 33.8999 28.946 33.8297 28.9995C33.7594 29.0531 33.6585 29.0877 33.518 29.0956C32.6486 29.1476 31.7792 29.2011 30.9099 29.2483C30.6684 29.2609 30.5104 29.3003 30.405 29.3712C30.326 29.4247 30.2294 29.4515 30.0757 29.4609C29.2064 29.5113 28.337 29.5665 27.4633 29.6106C27.2086 29.6232 27.0769 29.6767 26.9715 29.7429C26.8881 29.7964 26.7915 29.8153 26.629 29.8248C25.0352 29.9161 23.4371 30.0074 21.8477 30.1082C21.5799 30.1255 21.4437 30.0704 21.2681 30.031C21.0178 29.9759 20.7852 29.9161 20.7852 29.7932C20.7852 29.7743 20.7105 29.7523 20.6579 29.7365C20.2671 29.6184 20.2671 29.6184 20.2056 29.4925C20.1705 29.4153 20.131 29.3365 20.1002 29.2578C20.0432 29.1287 19.9026 29.0956 19.4987 29.1192C19.3538 29.1271 19.2089 29.1381 19.064 29.1444C18.8489 29.1554 18.6864 29.1035 18.6469 29.009C18.625 28.957 18.5987 28.905 18.5767 28.8531C18.7962 28.8405 18.7918 28.8389 19.1782 28.6483C19.3406 28.568 19.3407 28.568 19.029 28.4877C18.9104 28.4578 18.7962 28.4247 18.6689 28.3963C18.6118 28.3837 18.5372 28.3759 18.4757 28.379C18.1113 28.3979 17.7513 28.42 17.3913 28.442C16.8117 28.4767 16.8116 28.4767 16.2233 28.316C16.175 28.3034 16.1004 28.2798 16.1091 28.2672C16.1574 28.2089 16.276 28.1837 16.4252 28.1774C16.6448 28.168 16.8599 28.1522 17.075 28.1396C17.2199 28.1318 17.3648 28.1223 17.5097 28.1145C17.6458 28.0546 17.7864 27.9963 17.9137 27.9349C18.1157 27.8404 18.1156 27.8373 17.839 27.7711C17.6634 27.727 17.4746 27.6877 17.2946 27.6467C17.0794 27.6593 16.8599 27.6735 16.6448 27.6845C16.3726 27.6987 16.2628 27.6688 16.1925 27.5664C16.1311 27.4766 16.2057 27.3995 16.4165 27.3806C16.6316 27.3617 16.8336 27.3491 16.9434 27.2688C17.0488 27.1916 17.2332 27.1617 17.4615 27.1554C17.6064 27.1506 17.7513 27.1396 17.8961 27.1302C18.0849 27.1176 18.186 27.0372 18.1464 26.9475C18.1245 26.8892 18.0806 26.8404 17.9093 26.8278C17.1497 26.7727 17.1409 26.7742 16.7633 26.6672C16.7282 26.6577 16.7019 26.6294 16.7151 26.6152C16.737 26.5916 16.7854 26.5569 16.838 26.5522C17.343 26.5175 17.8479 26.4861 18.3528 26.4624C18.5196 26.4546 18.6426 26.4435 18.6997 26.3852C18.7787 26.3049 18.7436 26.2309 18.5899 26.1758C18.5416 26.1585 18.4625 26.1364 18.4098 26.138C17.8302 26.1663 17.2551 26.2026 16.6755 26.2309C16.6229 26.2341 16.5263 26.2073 16.5044 26.1868C16.4604 26.149 16.5263 26.0986 16.6799 26.0813C16.8819 26.0577 17.0883 26.0561 17.2244 25.9774C17.4132 25.8655 17.6458 25.7632 17.8566 25.6561C17.8917 25.6372 17.9489 25.601 17.9357 25.5978C17.8259 25.5632 17.6986 25.5364 17.5844 25.5033C17.3912 25.4482 17.3912 25.371 17.4351 25.297C17.4702 25.2372 17.6019 25.2136 17.7644 25.2136C17.8347 25.2136 17.9225 25.2136 17.9795 25.1994C18.1288 25.1647 18.1771 25.1206 18.1025 25.0876C18.0586 25.0687 17.9796 25.0419 17.9269 25.0451C16.9873 25.097 16.0433 25.1474 15.1081 25.212C14.8315 25.2309 14.7042 25.171 14.5374 25.1285C14.41 25.0954 14.2914 25.0828 14.1334 25.1065C13.9841 25.1285 13.8392 25.1159 13.747 25.064C13.6724 25.0214 13.8041 24.9852 14.1597 24.9443C14.2256 24.9364 14.3002 24.9317 14.3485 24.9159C14.8578 24.7458 14.8578 24.7443 15.209 24.7222C15.5515 24.7017 15.5516 24.7002 15.7316 24.6088C15.815 24.5663 15.9072 24.5238 15.9862 24.4797C16.0169 24.4623 16.0697 24.4308 16.0521 24.4214C15.9555 24.3726 15.8237 24.3616 15.6701 24.3726C15.3276 24.3994 14.9237 24.3773 14.7437 24.5269C14.6735 24.5836 14.5637 24.5994 14.4056 24.6088C12.8162 24.7002 11.2268 24.7978 9.63298 24.886C9.37393 24.9002 9.25545 24.9584 9.15447 25.023C9.06666 25.0766 8.97004 25.0923 8.8032 25.1017C8.63636 25.1112 8.50457 25.1159 8.40798 25.064C8.3509 25.0325 8.39921 24.9884 8.53093 24.9443C8.71973 24.8813 8.68458 24.8025 8.62312 24.7285C8.57921 24.6797 8.4431 24.645 8.29821 24.6482C8.08307 24.6545 7.87677 24.6718 7.69676 24.6088C7.59138 24.5726 7.45964 24.5474 7.34109 24.5159C7.11278 24.4513 6.88446 24.3852 6.56394 24.4277C6.34441 24.412 6.19074 24.3553 6.01512 24.3112C5.72095 24.2387 5.6946 24.2277 5.90535 24.1505C6.14245 24.0639 5.95801 23.9505 6.08972 23.8655C6.23022 23.7741 6.42347 23.6938 6.59471 23.6088C6.63861 23.5867 6.67815 23.5663 6.72205 23.5442C6.62107 23.5127 6.52888 23.4733 6.41034 23.4513C6.25667 23.423 6.17763 23.3883 6.18641 23.2907C6.15568 23.2765 6.16876 23.3127 6.20388 23.3222C6.2434 23.3316 6.34007 23.3237 6.38836 23.3127C6.5113 23.2828 6.5727 23.2434 6.54197 23.2103C6.52441 23.193 6.44105 23.171 6.38836 23.171C6.29177 23.171 6.20836 23.2056 6.18202 23.2907C5.69027 23.3552 5.18088 23.3867 4.67156 23.4119C4.61888 23.4151 4.55306 23.3836 4.49159 23.3678C4.28962 23.3143 4.28959 23.3158 3.69686 23.3001C3.63539 23.2985 3.55201 23.2765 3.52128 23.2544C3.39395 23.1584 3.39838 23.0529 3.33691 22.9505C3.45106 22.8843 3.56513 22.8198 3.68368 22.7552C3.92077 22.6245 4.22818 22.5095 4.41259 22.3662C4.37307 22.2891 4.32038 22.2119 4.51356 22.1489C5.06239 22.0701 5.05803 22.0702 5.20731 21.9946C5.6332 21.7804 6.05468 21.5646 6.49813 21.3536C6.61667 21.2985 6.61669 21.2685 6.40594 21.2449C6.34008 21.2386 6.26974 21.237 6.19949 21.2402C5.97996 21.2512 5.76043 21.2796 5.54529 21.2733C5.33015 21.2685 5.17209 21.1992 4.99647 21.1567C4.81645 21.1126 4.63644 21.067 4.45643 21.0213C4.25007 21.026 4.04375 21.0701 3.83739 20.9992C3.67933 20.9441 3.48176 20.9047 3.30175 20.8591C3.43786 20.7394 3.69255 20.648 3.89013 20.5425C4.07015 20.4465 4.07444 20.448 4.5574 20.374C4.78572 20.3394 4.86475 20.1614 4.67156 20.1094C4.43886 20.0464 4.19304 19.9882 3.95595 19.9283C3.74959 19.933 3.53888 19.9756 3.3413 19.9047C3.18763 19.8512 3.01197 19.8149 2.75732 19.8354C2.32704 19.8701 1.88799 19.8874 1.45332 19.9157C1.30404 19.9252 1.14154 19.9189 1.07568 19.8653C1.03177 19.8275 1.15911 19.7756 1.304 19.7646C1.52353 19.7488 1.72109 19.7299 1.83085 19.6512C1.93623 19.5724 2.12939 19.5488 2.3577 19.5378C2.41917 19.5346 2.48947 19.5157 2.52021 19.4968C2.67827 19.4055 2.85391 19.3267 3.19198 19.3299C3.33248 19.2984 3.40708 19.259 3.36317 19.2212C3.33683 19.2007 3.24467 19.174 3.19198 19.1771C2.82756 19.1929 2.46316 19.2086 2.10752 19.237C1.94067 19.2496 1.81328 19.2527 1.7079 19.2055C1.63326 19.174 1.67277 19.1314 1.81327 19.0858C1.93621 19.0464 1.97137 19.0007 1.96259 18.9472C1.94064 18.8228 1.80889 18.7866 1.3874 18.7944C1.08444 18.8007 1.0098 18.7803 0.943939 18.6732C0.926376 18.648 0.882547 18.6133 0.913282 18.596C1.10208 18.4889 1.22502 18.3566 1.58066 18.3062C1.72116 18.2873 1.87038 18.2873 1.9582 18.2464C2.04601 18.2054 2.12508 18.1582 2.21728 18.1188C2.33144 18.0716 2.41039 18.0275 2.3577 17.9976C2.26989 17.944 2.12944 17.9393 1.96699 17.9582C1.82649 17.9739 1.67721 17.9755 1.53232 17.985C1.27327 18.0023 1.06257 17.9613 1.03184 17.892C0.948415 17.7094 0.860577 17.5283 0.785937 17.3456C0.777156 17.3235 0.799049 17.2952 0.834174 17.2763C0.957111 17.2101 1.08888 17.1471 1.21621 17.0826C1.36549 17.0085 1.60262 17.0227 1.80459 17.0085C2.08998 16.9881 2.08988 16.9896 2.47186 16.8385C2.62114 16.7786 2.8802 16.8022 3.03387 16.7487C3.08217 16.7314 3.15681 16.703 3.14364 16.6873C3.12608 16.6668 3.03831 16.651 2.97245 16.6416C2.91098 16.6321 2.83636 16.6274 2.7705 16.6322C1.97141 16.6778 1.17673 16.7266 0.37764 16.7707C0.241531 16.7786 0.0922457 16.744 0.043949 16.6952C-0.00434774 16.6495 0.00878122 16.5943 0 16.5424C0.127328 16.4778 0.272162 16.418 0.381928 16.3487C0.465349 16.2951 0.56196 16.2715 0.728803 16.2684C0.948334 16.2636 1.1635 16.2447 1.40937 16.2306C1.86599 16.0006 2.31381 15.7597 2.80555 15.5298C3.00313 15.4368 2.95491 15.3423 2.99443 15.2431C3.03394 15.1518 3.3281 15.166 3.52567 15.1392C3.68374 15.1171 3.73636 15.0667 3.67489 15.0321C3.63976 15.0116 3.56077 14.988 3.49931 14.988C3.35442 14.988 3.20953 15.0022 3.06464 15.01C2.91975 15.0179 2.75291 15.0132 2.63437 15.04C2.52021 15.0652 2.44553 15.1187 2.37089 15.1644C2.28747 15.2148 2.17778 15.2321 2.01093 15.2353C1.79579 15.2384 1.58067 15.2526 1.36553 15.2636C1.12843 15.2022 0.882509 15.1423 0.654197 15.0778C0.610291 15.0652 0.601462 15.029 0.605853 15.0053C0.614634 14.9439 0.548792 14.9061 0.403902 14.8762C0.280965 14.851 0.179972 14.8148 0.0658163 14.7833C0.153629 14.7408 0.250256 14.6998 0.320506 14.6541C0.474178 14.5581 0.667386 14.4888 1.00107 14.4919C1.13279 14.4305 1.23814 14.3549 1.40937 14.3124C1.57182 14.2714 1.84844 14.3124 1.97138 14.2195C2.03285 14.1738 2.1251 14.1218 2.24365 14.1029C2.43245 14.073 2.67832 14.0888 2.78808 14.0006C2.85394 13.9502 2.9505 13.9045 3.07782 13.8919C3.22271 13.8777 3.37196 13.8746 3.47733 13.8447C3.53441 13.8289 3.59589 13.8037 3.59589 13.7817C3.59589 13.7675 3.50814 13.7454 3.44667 13.736C3.3896 13.725 3.31487 13.7171 3.24901 13.7202C3.02948 13.7297 2.81434 13.747 2.59481 13.7565C2.53334 13.7596 2.46312 13.7486 2.39726 13.7391C2.20407 13.7139 2.21722 13.6824 2.37089 13.6258C2.52456 13.5706 2.63438 13.4998 2.76171 13.4352C2.90221 13.4242 3.07781 13.4289 3.1744 13.399C3.33686 13.3501 3.45098 13.2793 3.5827 13.2179C3.72759 13.2084 3.87686 13.2053 4.01297 13.1879C4.07005 13.1816 4.09642 13.147 4.14471 13.1265C4.23252 13.0871 4.30723 13.0305 4.42577 13.0116C4.61896 12.9832 4.85605 12.9942 4.9702 12.9076C5.03606 12.8572 5.13701 12.8037 5.25995 12.8005C5.60241 12.7942 5.74731 12.7076 5.92293 12.6257C6.05465 12.5643 6.33566 12.5958 6.48055 12.5344C6.57714 12.495 6.64743 12.4462 6.74403 12.4084C6.78354 12.3926 6.86694 12.3848 6.93279 12.38C7.29282 12.3564 7.65723 12.3391 8.01726 12.3139C8.07434 12.3092 8.12707 12.2855 8.17098 12.2667C8.26318 12.2257 8.32019 12.169 8.43435 12.1422C8.54851 12.1155 8.71094 12.1155 8.85144 12.1076C9.30367 12.084 9.33883 12.0903 9.54519 11.9564C9.71203 11.8477 10.1204 11.9249 10.2565 11.8052C10.3355 11.7359 10.4804 11.6792 10.7394 11.6713C11.1038 11.6603 11.4639 11.6304 11.8283 11.6099C12.1532 11.591 12.1488 11.591 12.5001 11.4446C12.6581 11.3784 12.8909 11.3879 13.0972 11.3753C13.3168 11.3627 13.5187 11.3438 13.6241 11.265C13.7295 11.1879 13.9226 11.1627 14.1465 11.1516C14.3529 11.1406 14.5857 11.1485 14.7481 11.0855C15.1433 10.9343 15.1389 10.9327 15.4155 10.917C15.8502 10.8918 16.2848 10.8666 16.7195 10.8398C17.0093 10.8225 17.3122 10.8193 17.5844 10.7847C17.782 10.7595 17.8698 10.6713 17.9971 10.6099C18.3571 10.5863 18.7172 10.5626 19.0772 10.5406C19.5821 10.5091 20.0914 10.4808 20.6007 10.4508C20.8202 10.391 20.8511 10.2587 21.2199 10.2524C21.4394 10.2492 21.6545 10.2288 21.8741 10.2162C22.2385 10.1941 22.5985 10.1658 22.9629 10.1548C23.2395 10.1469 23.2878 10.0618 23.4326 10.0083C23.4809 9.98939 23.5249 9.96263 23.582 9.9579C24.1527 9.91381 24.741 9.90436 25.2987 9.83979C25.3557 9.83349 25.4084 9.80041 25.4216 9.77679C25.4304 9.76419 25.3557 9.74058 25.3074 9.72956C25.2504 9.71696 25.1758 9.70436 25.1143 9.70751C23.301 9.81302 21.4877 9.92011 19.6744 10.0256C19.4197 10.0414 19.4197 10.0398 18.8006 10.213C18.7479 10.2272 18.6864 10.2429 18.6206 10.2477C18.3308 10.2666 18.0366 10.2776 17.7512 10.3012C17.5185 10.3201 17.3254 10.3012 17.1585 10.2445C17.04 10.2036 16.917 10.191 16.7677 10.1941C16.6009 10.1989 16.4912 10.2162 16.3946 10.2587C16.2673 10.317 16.2014 10.3926 15.9335 10.4083C14.6998 10.476 13.466 10.5516 12.2366 10.6241C12.0653 10.602 11.9819 10.5689 12.0258 10.5296C12.0522 10.506 12.1049 10.4745 12.1576 10.4713C12.6625 10.4382 13.1718 10.4099 13.6767 10.3784C13.747 10.3737 13.8435 10.3768 13.8831 10.3611C14.0762 10.2902 14.1466 10.1752 14.511 10.1674C14.7217 10.1626 14.9369 10.139 15.1388 10.117C15.1959 10.1107 15.2486 10.0776 15.2618 10.054C15.2662 10.0414 15.1959 10.0177 15.1432 10.0067C14.95 9.96104 14.7262 10.0162 14.533 9.98468C14.4671 9.97366 14.3748 9.9579 14.3617 9.939C14.3529 9.92168 14.4275 9.89333 14.4802 9.87601C14.5285 9.86026 14.5943 9.84609 14.6602 9.84136C15.2398 9.80514 15.8194 9.76734 16.399 9.73899C16.6361 9.72797 16.8029 9.68859 16.9083 9.61615C16.9873 9.56261 17.0839 9.53427 17.2332 9.52639C18.2474 9.46812 19.2616 9.40355 20.2802 9.35001C20.5349 9.33741 20.6666 9.28545 20.772 9.21773C20.8554 9.16418 20.952 9.14528 21.1145 9.13583C22.5678 9.05394 24.0123 8.9626 25.4656 8.88386C25.7334 8.86968 25.8125 8.80196 25.9486 8.74369C25.9969 8.72322 26.0275 8.69802 26.089 8.68542C26.1505 8.67282 26.2295 8.67439 26.3041 8.67124C27.4632 8.60352 28.6224 8.53109 29.786 8.46809C30.0582 8.45392 30.1108 8.37516 30.2513 8.32005C30.2996 8.30272 30.3435 8.27438 30.4006 8.26966C31.2699 8.21611 32.1393 8.16572 33.0086 8.11375C33.5882 8.0791 34.1677 8.04445 34.7473 8.01138C35.0326 7.99563 35.0327 7.99405 35.419 7.84443C35.4629 7.82711 35.5245 7.80663 35.5815 7.80191C37.25 7.70112 38.914 7.60507 40.5824 7.50586C40.7229 7.49798 40.8239 7.46174 40.8941 7.4082C40.9644 7.35465 41.0654 7.31843 41.2015 7.31056C42.5056 7.23181 43.8095 7.15465 45.1179 7.08063C45.355 7.06803 45.5218 7.03023 45.6272 6.95936C45.7062 6.90582 45.8028 6.87748 45.9521 6.86961C47.2561 6.79401 48.5602 6.71368 49.8686 6.64124C50.1189 6.62707 50.2418 6.57353 50.3647 6.51053C50.4086 6.48849 50.4438 6.45226 50.4964 6.44911C51.1463 6.40502 51.7916 6.35934 52.4458 6.32942C52.7181 6.31682 52.8103 6.25067 52.9201 6.18768C53.0079 6.13728 53.1089 6.11997 53.2757 6.11367C53.6402 6.09949 54.0002 6.07273 54.3558 6.04596C54.4085 6.04123 54.4744 6.00658 54.4788 5.98454C54.4875 5.94359 54.3865 5.91524 54.2197 5.90106C52.481 6.00343 50.738 6.10579 48.9993 6.20815C48.7139 6.22548 48.7139 6.22549 48.3275 6.3751C48.2836 6.39242 48.2221 6.4129 48.1606 6.41762C46.4922 6.51684 44.8282 6.61448 43.1597 6.7137C43.0192 6.72157 42.9183 6.75779 42.848 6.81134C42.7778 6.86488 42.6767 6.9011 42.5406 6.90898C40.9468 7.00347 39.3531 7.09954 37.7549 7.18931C37.5178 7.20191 37.351 7.23811 37.2456 7.31056C37.1666 7.3641 37.07 7.39246 36.9207 7.40033C35.3972 7.48852 33.8779 7.58143 32.35 7.66647C32.1963 7.67435 32.0822 7.62868 32.091 7.58616C32.0954 7.56411 32.1612 7.5279 32.2139 7.52475C33.0086 7.47278 33.799 7.41923 34.598 7.37986C34.8659 7.36726 34.9448 7.29796 35.081 7.23969C35.1249 7.21922 35.16 7.19245 35.2171 7.18143C35.2786 7.16883 35.3576 7.17041 35.4322 7.16726C37.3158 7.05544 39.1994 6.94206 41.0874 6.83654C41.3596 6.82079 41.4122 6.74361 41.5527 6.68849C41.601 6.6696 41.645 6.64126 41.702 6.63811C42.2816 6.60031 42.8611 6.56723 43.4407 6.53416C44.4549 6.47432 45.4691 6.41447 46.4878 6.35462C46.7819 6.3373 46.7819 6.33729 47.1595 6.18926C47.2034 6.17193 47.265 6.1499 47.322 6.14675C50.0047 5.98769 52.6874 5.82863 55.3701 5.67114C55.5106 5.66327 55.6115 5.62705 55.6818 5.5735C55.752 5.52153 55.853 5.48373 55.9891 5.47428C59.6157 5.2601 63.238 5.04591 66.8647 4.83488C67.1017 4.82071 67.2686 4.78763 67.3739 4.71361C67.4486 4.66007 67.5495 4.63173 67.6988 4.62228C71.6855 4.38763 75.6722 4.15297 79.6632 3.91675C82.3459 3.75926 85.0286 3.59862 87.7113 3.44429C87.9572 3.43011 88.0888 3.38128 88.2118 3.31672C88.2513 3.29467 88.2908 3.25844 88.3435 3.25529C88.9187 3.21592 89.4938 3.17971 90.069 3.14348C90.249 3.18601 90.429 3.22696 90.609 3.26948C90.7451 3.20964 90.8769 3.14821 91.013 3.08837C91.8824 3.0427 92.7385 2.97183 93.6166 2.94978C93.6737 2.94821 93.7351 2.97813 93.7966 2.99388C94.2049 3.0931 94.4377 3.08522 94.6967 2.95293C94.7889 2.90569 94.8679 2.86317 95.0084 2.85529C95.4431 2.82695 95.8822 2.80805 96.3125 2.77497C96.5452 2.75765 96.7383 2.77339 96.9052 2.83009C97.0237 2.87104 97.1467 2.88837 97.2916 2.87892C98.0907 2.83167 98.8854 2.786 99.6845 2.7356C99.7416 2.73245 99.7942 2.70567 99.8381 2.68677C99.9303 2.64583 100.009 2.60174 100.097 2.55922C100.216 2.58599 100.347 2.60647 100.444 2.64111C100.567 2.68206 100.681 2.68205 100.848 2.67103C104.036 2.48047 107.228 2.29464 110.415 2.10251C110.687 2.08676 110.806 2.15291 110.99 2.18755C111.052 2.20015 111.113 2.21589 111.179 2.21904C111.249 2.22219 111.324 2.21275 111.394 2.20803C113.787 2.06629 116.18 1.92612 118.573 1.78438C118.889 1.76548 118.889 1.76548 119.359 1.86312C119.416 1.87572 119.491 1.8899 119.552 1.88517C120.641 1.82375 121.73 1.75762 122.814 1.69462C122.955 1.68675 123.073 1.71194 123.201 1.74816C123.451 1.81903 123.468 1.81904 123.653 1.7151C123.741 1.66628 123.833 1.63634 123.978 1.62217C124.136 1.60642 124.263 1.61116 124.386 1.63951C124.562 1.67888 124.689 1.74501 124.957 1.72769C126.116 1.65367 127.279 1.59226 128.434 1.51666C128.698 1.49934 128.838 1.55288 129.014 1.59225C129.075 1.60643 129.132 1.62848 129.198 1.6332C129.264 1.63793 129.343 1.62689 129.413 1.62217C130.862 1.53712 132.315 1.45367 133.76 1.36233C134.032 1.34501 134.151 1.41271 134.335 1.44736C134.397 1.45996 134.467 1.48202 134.524 1.47887C135.393 1.43005 136.267 1.37806 137.136 1.32609C137.448 1.30719 137.448 1.30877 137.922 1.40483C137.979 1.41743 138.054 1.43003 138.116 1.42688C139.13 1.36862 140.148 1.30877 141.163 1.24892C141.474 1.23003 141.474 1.23003 142.374 1.31192C142.44 1.31822 142.51 1.32768 142.576 1.32453C143.735 1.25682 144.899 1.19066 146.058 1.11822C146.291 1.10404 146.484 1.11664 146.651 1.17333C146.769 1.21428 146.892 1.23161 147.037 1.22216C148.341 1.145 149.65 1.07098 150.949 0.989089C151.2 0.97334 151.362 1.00797 151.538 1.05364C151.595 1.06939 151.652 1.09145 151.718 1.09774C151.783 1.10404 151.858 1.09774 151.928 1.09302C153.232 1.01585 154.541 0.943407 155.84 0.859939C156.104 0.842616 156.244 0.896158 156.42 0.93553C156.481 0.949703 156.547 0.978052 156.6 0.976478C157.109 0.949705 157.619 0.92609 158.123 0.886719C158.396 0.864671 158.514 0.937101 158.699 0.971748C158.76 0.982772 158.83 1.00641 158.887 1.00326C159.976 0.941838 161.065 0.877273 162.15 0.811129C162.303 0.80168 162.418 0.81584 162.54 0.856787C162.703 0.911907 162.892 0.933956 163.129 0.916632C163.634 0.88041 164.143 0.85522 164.652 0.825297C164.951 0.807974 164.951 0.807979 165.864 0.889872C165.93 0.896171 166 0.905613 166.066 0.902464C166.935 0.852068 167.809 0.803251 168.674 0.748131C168.907 0.732382 169.1 0.746552 169.267 0.803247C169.385 0.844193 169.504 0.861526 169.653 0.852077C170.452 0.804831 171.247 0.757581 172.046 0.710336C172.336 0.693012 172.626 0.663082 172.916 0.663082C173.126 0.664657 173.28 0.740247 173.469 0.778044C173.521 0.789068 173.609 0.776483 173.679 0.773334C174.694 0.713489 175.712 0.658364 176.722 0.590645C176.986 0.573321 177.126 0.626863 177.302 0.666235C177.363 0.680409 177.429 0.708758 177.482 0.707183C177.846 0.689859 178.206 0.666234 178.571 0.645761C179.005 0.620563 179.444 0.601665 179.875 0.567018C180.226 0.538671 180.358 0.675679 180.639 0.680403C180.854 0.685128 181.073 0.65836 181.288 0.645761C181.723 0.620563 182.158 0.592219 182.592 0.570171C182.746 0.562297 182.865 0.537088 182.913 0.480393C182.922 0.469369 182.847 0.445756 182.799 0.431582C182.215 0.270947 182.215 0.270939 181.626 0.305586C181.262 0.327634 180.902 0.349686 180.538 0.368584C180.476 0.371734 180.406 0.359136 180.344 0.349687C180.169 0.322914 180.186 0.29142 180.336 0.234725C180.485 0.17803 180.599 0.108743 180.726 0.0441733C180.906 0.0851196 181.082 0.126051 181.262 0.166998C181.407 0.159123 181.552 0.149688 181.697 0.141814C182.421 0.100867 183.146 0.0583432 183.87 0.0205466C183.923 0.0173969 183.989 0.0488987 184.05 0.0646473C184.226 0.110318 184.384 0.149679 184.638 0.132355C185.288 0.0866845 185.942 0.0536125 186.592 0.014241C186.878 -0.00308244 186.878 -0.0030809 187.378 0.0945604C187.435 0.105584 187.51 0.118184 187.571 0.115034C188.226 0.0788125 188.875 0.0394457 189.53 0.00164906C189.67 -0.00622524 189.806 0.0142472 189.907 0.0599181C189.947 0.0788164 189.938 0.110307 190.105 0.368584C190.623 0.57804 190.978 0.556003 191.339 0.537105C191.492 0.529231 191.628 0.521349 191.729 0.489851C191.782 0.472528 191.848 0.447326 191.848 0.426853C191.848 0.411105 191.751 0.385902 191.69 0.382753C191.255 0.351255 190.842 0.417409 190.416 0.431582C190.219 0.437882 190.048 0.382761 190.013 0.292994C190.004 0.267796 189.991 0.241025 189.977 0.215828C189.964 0.19063 189.956 0.163859 189.942 0.138661C189.771 0.130787 189.67 0.15913 189.595 0.212675C189.534 0.256771 189.446 0.307166 189.328 0.330789C189.209 0.355987 189.047 0.351271 188.902 0.359145C188.761 0.367019 188.608 0.38749 188.476 0.376466C188.344 0.363867 188.239 0.318189 188.116 0.289841C188.059 0.275668 187.988 0.255202 187.931 0.258352C187.426 0.285124 186.926 0.311887 186.425 0.346534C186.162 0.365432 186.03 0.299298 185.863 0.258352C185.732 0.226855 185.6 0.234719 185.578 0.307162C185.521 0.480397 185.723 0.552837 186.171 0.519765C186.54 0.491417 186.873 0.486707 187.163 0.593798C187.203 0.607971 187.295 0.614268 187.352 0.611119C187.712 0.59222 188.067 0.568595 188.427 0.549697C188.493 0.546547 188.564 0.552837 188.625 0.559136C189.521 0.644178 189.521 0.645762 189.824 0.626863C189.969 0.617414 190.109 0.609539 190.096 0.370161C190.373 0.113459 190.812 0.0961383 191.238 0.0583417C191.514 0.0347188 191.633 0.104016 191.813 0.140237C191.874 0.152836 191.94 0.178029 191.997 0.17488C192.941 0.122909 193.881 0.0677816 194.82 0.00951182C194.978 6.26634e-05 195.092 0.00951335 195.215 0.0504597C195.373 0.10243 195.549 0.135509 195.799 0.116611C196.3 0.0788141 196.809 0.0551966 197.318 0.0236994C197.578 0.0079508 197.578 0.00793465 198.1 0.105576C198.157 0.1166 198.232 0.1292 198.293 0.12605C198.802 0.0992772 199.308 0.0662152 199.812 0.0378677C199.953 0.0299934 200.08 0.0520392 200.19 0.0945604C200.3 0.137082 200.431 0.159127 200.568 0.151253C201.077 0.122906 201.582 0.0914183 202.087 0.0630709C202.148 0.0599211 202.223 0.0709444 202.28 0.0819684C202.816 0.17961 202.816 0.179593 203.061 0.163845C203.421 0.140222 203.79 0.12921 204.146 0.0977131C204.493 0.066216 204.673 0.15755 204.91 0.207946C205.56 0.171724 206.214 0.141809 206.859 0.0977131C207.123 0.0788148 207.263 0.130781 207.439 0.171727C207.5 0.185901 207.562 0.215826 207.619 0.214251C207.838 0.207952 208.054 0.190631 208.269 0.178032C208.484 0.165434 208.703 0.152836 208.919 0.140237C209.164 0.185908 209.327 0.292997 209.678 0.256775C209.889 0.234727 210.113 0.230003 210.328 0.217404C210.543 0.204805 210.763 0.192208 210.978 0.179609C211.123 0.171735 211.272 0.167003 211.412 0.152829C211.671 0.129206 211.799 0.206384 211.983 0.241031C212.045 0.252055 212.115 0.270941 212.172 0.267791C212.607 0.245743 213.046 0.226846 213.472 0.190624C213.801 0.162277 214.025 0.209529 214.257 0.275673C214.306 0.289847 214.389 0.29772 214.451 0.294571C214.96 0.267798 215.465 0.234717 215.97 0.206369C216.106 0.198495 216.238 0.223692 216.347 0.264638C216.462 0.307159 216.589 0.327648 216.729 0.319774C217.234 0.291426 217.744 0.25992 218.249 0.231572C218.31 0.228423 218.385 0.241024 218.442 0.253623C218.934 0.351264 218.934 0.35284 219.223 0.333942C219.294 0.329217 219.368 0.326055 219.438 0.321331C219.798 0.299283 220.172 0.291419 220.523 0.253623C220.927 0.211101 221.221 0.264649 221.506 0.354416C221.866 0.335518 222.235 0.324491 222.586 0.292994C222.85 0.269371 222.99 0.329213 223.166 0.368584C223.228 0.382758 223.293 0.411105 223.346 0.407956C223.855 0.381183 224.365 0.357569 224.865 0.318197C225.137 0.296149 225.256 0.367005 225.44 0.403227C225.502 0.415825 225.568 0.437885 225.625 0.434735C225.915 0.422136 226.204 0.403229 226.494 0.385905C226.832 0.365432 226.832 0.367006 227.28 0.463072C227.491 0.508743 227.702 0.47252 227.908 0.461496C228.127 0.448897 228.334 0.439451 228.509 0.50402C228.619 0.544966 228.751 0.570165 228.887 0.563865C229.177 0.549691 229.471 0.535525 229.756 0.511902C229.985 0.493003 230.182 0.505595 230.349 0.563865C230.468 0.604812 230.591 0.625297 230.735 0.615848C231.385 0.578051 232.039 0.538665 232.689 0.502443C232.746 0.499294 232.825 0.513473 232.878 0.527647C233.001 0.555994 233.12 0.587484 233.238 0.618981C233.523 0.604808 233.818 0.598524 234.099 0.576476C234.397 0.554428 234.669 0.546552 234.902 0.633169C234.95 0.652067 235.021 0.678825 235.078 0.67725C235.297 0.670951 235.512 0.655207 235.728 0.642608C235.943 0.630009 236.162 0.617412 236.377 0.604813C236.628 0.644185 236.786 0.757573 237.137 0.721351C237.348 0.699303 237.572 0.694579 237.787 0.68198C238.002 0.669381 238.221 0.655209 238.437 0.644185C238.507 0.641035 238.586 0.633156 238.647 0.639455C238.713 0.645755 238.77 0.667807 238.827 0.683556C239.003 0.729227 239.165 0.774903 239.416 0.748131C239.626 0.726083 239.85 0.721357 240.066 0.707183C240.36 0.689859 240.36 0.689862 240.847 0.789079C241.045 0.830025 241.269 0.776482 241.457 0.811129C241.585 0.834752 241.694 0.874115 241.817 0.900887C241.87 0.911911 241.953 0.916629 242.015 0.913479C242.305 0.899306 242.599 0.885139 242.884 0.861516C243.117 0.842618 243.31 0.861514 243.473 0.918208C243.591 0.959155 243.71 0.976488 243.859 0.967038C244.583 0.922942 245.308 0.885133 246.028 0.836313C246.274 0.818989 246.471 0.845769 246.607 0.902464C246.84 1.00011 247.17 0.885143 247.411 0.963886C247.56 1.01271 247.71 1.0694 247.982 1.04578C248.482 1.00484 248.992 0.982775 249.497 0.954427C249.677 0.996948 249.857 1.03948 250.041 1.082C250.331 1.06468 250.621 1.04734 250.91 1.03159C251.125 1.01899 251.345 1.00482 251.56 0.993799C251.63 0.990649 251.705 0.984348 251.771 0.992222C251.837 1.0001 251.889 1.02057 251.951 1.03632C252.254 1.11349 252.254 1.11507 252.754 1.08358C252.969 1.0694 253.176 1.05995 253.356 1.12295C253.523 1.18122 253.72 1.19223 253.949 1.17491C254.379 1.14341 254.814 1.11979 255.253 1.09774C255.389 1.08987 255.516 1.11664 255.63 1.15759C255.801 1.22216 256.012 1.21586 256.227 1.19854C256.513 1.17649 256.794 1.15445 257.035 1.24264C257.083 1.26154 257.158 1.28829 257.211 1.28672C257.571 1.27412 257.935 1.26468 258.287 1.23476C258.638 1.20483 258.809 1.30247 259.051 1.34972C259.411 1.32925 259.775 1.30877 260.135 1.2883C260.205 1.28357 260.289 1.26941 260.35 1.27728C260.609 1.31035 260.758 1.42846 261.114 1.39224C261.32 1.37177 261.544 1.36548 261.76 1.36075C261.817 1.35918 261.891 1.38594 261.931 1.40641C261.953 1.41743 261.931 1.44735 261.904 1.4631C261.825 1.5072 261.729 1.54816 261.659 1.59383C261.65 1.60013 261.733 1.62846 261.781 1.64106C261.9 1.66941 262.036 1.6647 262.194 1.6521C262.33 1.64107 262.471 1.66312 262.567 1.71037C262.607 1.72927 262.594 1.76076 262.51 1.8647C262.51 1.94187 262.603 1.90721 262.633 1.85682C262.682 1.78437 262.589 1.76075 262.414 1.80013C262.291 1.82847 262.229 1.86942 262.26 1.9025C262.278 1.91982 262.361 1.94187 262.51 1.8647C262.897 1.77021 263.187 1.75289 263.476 1.73557C263.551 1.73085 263.639 1.71509 263.691 1.72454C263.88 1.76233 264.056 1.80801 264.24 1.85053C264.451 1.84108 264.649 1.81745 264.855 1.87887C265.145 1.96549 265.158 1.95761 265.439 1.94029C265.584 1.93084 265.729 1.92298 265.874 1.91511C266.018 1.90723 266.133 1.93085 266.26 1.96707C266.519 2.04109 266.541 2.04108 266.712 1.94029C266.813 1.87887 266.883 1.8584 267.011 1.88675C267.432 1.98282 267.437 1.98911 267.797 1.96076C268.095 1.93714 268.376 1.93084 268.596 2.02061C268.745 2.0836 268.793 2.06943 268.912 2.00329C269.228 1.82848 269.373 1.83162 269.966 1.95761C270.242 2.01746 270.528 1.95289 270.809 1.94502C271.046 1.93872 271.213 1.97651 271.23 2.07573C271.243 2.13715 271.283 2.18125 271.441 2.20172C271.502 2.2096 271.577 2.22062 271.638 2.21747C272.003 2.19857 272.363 2.17652 272.727 2.15447C272.912 2.14344 273.013 2.06944 272.978 1.9718C272.938 1.86786 273.008 1.83005 273.272 1.80013C273.43 1.7828 273.557 1.78597 273.684 1.81431C273.825 1.84581 273.785 1.87416 273.663 1.93085C273.368 2.06944 273.403 2.15447 273.781 2.25053C273.913 2.28361 274.018 2.31354 274.049 2.36236C274.066 2.38756 274.049 2.42063 274.088 2.43953C274.304 2.54504 274.602 2.61277 274.936 2.66316C275.256 2.62064 275.476 2.6915 275.722 2.74819C275.915 2.79229 276.143 2.7545 276.35 2.73875C276.582 2.72143 276.775 2.73402 276.942 2.79229C277.061 2.83324 277.184 2.85213 277.329 2.84426C277.618 2.82693 277.913 2.81592 278.198 2.79072C278.444 2.76867 278.628 2.80017 278.782 2.85372C278.975 2.92144 279.19 2.87576 279.392 2.88521C279.664 2.89623 279.801 3.03639 280.156 2.99859C280.367 2.97654 280.587 2.96867 280.806 2.96237C280.863 2.9608 280.933 2.98757 280.982 3.00647C281.214 3.09309 281.487 3.08836 281.785 3.06317C281.991 3.04584 282.193 3.0301 282.395 3.08995C282.729 3.19074 283.098 3.27893 283.449 3.37185C283.497 3.44429 283.462 3.52932 283.713 3.57184C283.844 3.59389 283.967 3.62697 284.068 3.6632C284.191 3.70572 284.305 3.71674 284.463 3.70572C284.749 3.68367 285.047 3.67893 285.328 3.65058C285.587 3.62539 285.75 3.67737 285.908 3.72619C286.035 3.76557 286.154 3.78445 286.307 3.75611C286.466 3.72933 286.58 3.74665 286.707 3.78917C286.887 3.84744 286.9 3.84115 287.497 3.85848C287.559 3.86005 287.633 3.88366 287.669 3.90413C287.686 3.91516 287.647 3.94667 287.616 3.96242C287.576 3.98132 287.515 4.00336 287.458 4.00808C286.808 4.04903 286.154 4.08525 285.504 4.1262C285.438 4.13092 285.368 4.14196 285.32 4.1577C285.267 4.17503 285.201 4.19864 285.201 4.22068C285.201 4.23643 285.289 4.25534 285.35 4.26636C285.543 4.30258 285.772 4.24746 285.961 4.28841C286.088 4.31518 286.193 4.35297 286.321 4.37817C286.373 4.38919 286.457 4.38762 286.523 4.38447C286.742 4.37345 286.957 4.35771 287.177 4.34826C287.238 4.34668 287.309 4.36244 287.366 4.37504C287.787 4.46953 287.787 4.46952 288.152 4.44905C288.296 4.44117 288.45 4.41755 288.586 4.427C288.718 4.43645 288.832 4.47897 288.951 4.50574C289.197 4.56244 289.429 4.61756 289.447 4.74039C289.456 4.78764 289.6 4.82858 289.745 4.83173C289.886 4.83488 290.035 4.81757 290.18 4.80812C290.522 4.78922 290.522 4.78922 290.966 4.88529C291.089 4.91206 291.22 4.91521 291.379 4.89946C291.44 4.89316 291.515 4.89946 291.581 4.90734C291.796 4.93096 291.796 4.96088 291.655 5.01757C291.458 5.10104 291.475 5.10892 292.028 5.17979C292.239 5.20656 292.402 5.25696 292.577 5.30105C292.863 5.37192 292.858 5.37191 292.669 5.46483C292.626 5.4853 292.586 5.50735 292.542 5.5294C292.415 5.59082 292.314 5.65696 292.05 5.66326C291.761 5.66956 291.471 5.69477 291.181 5.71209C290.9 5.72941 290.825 5.76719 290.852 5.87428C290.882 6.00342 290.94 6.0176 291.444 6.01603C291.589 6.01603 291.717 6.02862 291.826 6.07114C291.774 6.12154 291.677 6.16091 291.537 6.17036C291.177 6.19398 290.812 6.21446 290.452 6.23493C290.162 6.25226 289.873 6.26957 289.583 6.2869C289.403 6.29792 289.289 6.37982 289.337 6.47116C289.363 6.52313 289.385 6.5751 289.407 6.62707C289.455 6.73101 289.548 6.75779 289.842 6.75307C289.917 6.75149 289.987 6.73888 290.057 6.74203C290.342 6.75306 290.478 6.88377 290.821 6.857C291.106 6.83495 291.405 6.83023 291.686 6.80188C291.945 6.77668 292.09 6.83339 292.27 6.87591C292.331 6.89009 292.397 6.91999 292.45 6.91842C292.814 6.90109 293.179 6.88378 293.534 6.85386C293.701 6.84126 293.802 6.85071 293.934 6.8885C294.25 6.97985 294.259 6.97512 294.729 6.94677C295.071 6.92473 295.076 6.92787 295.515 7.02394C295.638 7.05071 295.769 7.05071 295.927 7.03811C296.134 7.02236 296.349 6.99716 296.564 7.02079C296.63 7.02709 296.713 7.04599 296.735 7.06646C296.748 7.08064 296.687 7.11528 296.634 7.12631C296.248 7.2082 295.796 7.19403 295.374 7.2271C295.242 7.23655 295.111 7.20663 295.001 7.1641C294.887 7.12158 294.764 7.10427 294.615 7.11214C294.325 7.12946 294.031 7.14048 293.745 7.16568C293.499 7.18773 293.328 7.1515 293.157 7.10268C293.1 7.08693 293.034 7.05701 292.977 7.05858C292.327 7.09008 291.673 7.12158 291.027 7.16568C290.768 7.18458 290.619 7.13419 290.443 7.09167C290.382 7.07749 290.321 7.04757 290.263 7.04914C290.044 7.05544 289.829 7.07276 289.609 7.08536C288.81 7.13261 288.015 7.17985 287.216 7.22395C287.164 7.2271 287.098 7.19402 287.036 7.17985C286.918 7.1515 286.795 7.12473 286.672 7.09795C286.452 7.11055 286.237 7.1263 286.018 7.13575C285.86 7.14205 285.719 7.1641 285.697 7.22395C285.684 7.26332 285.829 7.29954 285.983 7.29639C286.132 7.29324 286.281 7.27434 286.404 7.29481C287.014 7.3956 287.014 7.39718 287.396 7.37671C287.73 7.35781 287.695 7.34205 287.989 7.42867C288.116 7.46647 288.231 7.48852 288.375 7.47908C288.735 7.45703 289.1 7.43498 289.464 7.41608C289.521 7.41293 289.596 7.42868 289.653 7.44128C290.083 7.53577 290.083 7.53892 290.439 7.51529C290.904 7.48695 290.922 7.47907 291.234 7.57514C291.449 7.64128 291.646 7.59561 291.853 7.59246C292.09 7.65388 292.349 7.70901 292.564 7.7783C292.819 7.8602 293.087 7.84601 293.376 7.82238C293.591 7.80506 293.802 7.79876 293.978 7.86333C294.145 7.92318 294.347 7.92949 294.575 7.91374C294.781 7.89956 294.992 7.86963 295.207 7.90428C295.264 7.91373 295.352 7.93736 295.348 7.95153C295.343 7.97358 295.286 8.00508 295.229 8.01453C294.825 8.0791 294.382 8.07752 293.956 8.10744C293.899 8.11217 293.824 8.09484 293.767 8.08224C293.644 8.05389 293.526 8.02083 293.407 7.99091C293.192 8.00035 292.972 8.0035 292.762 8.02239C292.599 8.03657 292.476 8.03501 292.358 7.99721C292.248 7.96256 292.129 7.92003 291.998 7.90901C291.866 7.89799 291.712 7.92161 291.567 7.93106C291.423 7.94051 291.256 7.93577 291.142 7.96097C291.027 7.98617 290.957 8.0413 290.882 8.08539C290.799 8.13421 290.685 8.14997 290.518 8.1547C290.364 8.15942 290.241 8.15312 290.127 8.10902C290.079 8.09012 290.013 8.07594 289.947 8.06334C289.886 8.05232 289.816 8.03499 289.758 8.03814C289.104 8.07436 288.454 8.11375 287.8 8.15154C287.475 8.17044 287.48 8.17043 286.804 8.07751C286.742 8.06964 286.667 8.05862 286.606 8.06177C286.242 8.08066 285.882 8.10272 285.517 8.12476C285.148 8.14681 285.153 8.14366 284.525 8.04445C284.411 8.02555 284.244 8.05075 284.108 8.0476C283.822 8.03972 283.682 7.90744 283.348 7.93264C283.063 7.95468 282.764 7.9594 282.479 7.98775C282.22 8.01295 282.071 7.95784 281.895 7.91532C281.833 7.90114 281.768 7.86964 281.715 7.87279C281.061 7.90744 280.411 7.94681 279.542 7.95153C279.326 7.95153 279.423 7.98461 279.563 7.99563C279.765 8.01296 279.831 7.97989 279.722 7.91689C279.643 7.8728 279.528 7.85073 279.436 7.86176C279.388 7.86806 279.326 7.89799 279.542 7.95153C279.77 8.01138 279.757 8.04444 279.796 8.06334C279.893 8.10901 280.029 8.12791 280.169 8.12161C280.389 8.11059 280.604 8.09484 280.824 8.08539C280.885 8.08224 280.96 8.09327 281.017 8.10587C281.5 8.20351 281.504 8.20981 282.018 8.17202C282.18 8.16099 282.299 8.16099 282.426 8.19092C282.602 8.23186 282.729 8.30115 282.997 8.2791C283.353 8.24918 283.717 8.23187 284.081 8.21454C284.138 8.21139 284.2 8.23974 284.266 8.25234C284.446 8.29013 284.578 8.361 284.845 8.33108C285.052 8.30746 285.276 8.30114 285.495 8.29642C285.552 8.29484 285.64 8.32005 285.666 8.34052C285.719 8.37674 285.653 8.41927 285.504 8.44919C285.443 8.46179 285.359 8.45864 285.289 8.46336C284.999 8.48069 284.709 8.49958 284.419 8.51375C284.266 8.52162 284.121 8.54526 284.103 8.60353C284.09 8.6429 284.248 8.67754 284.398 8.67439C284.617 8.66966 284.837 8.65707 285.047 8.63659C285.421 8.60195 285.745 8.61139 286.048 8.71061C286.264 8.7799 286.25 8.75472 286.479 8.95945C286.536 9.01142 286.707 9.01614 286.856 9.01299C287.216 9.00511 287.383 9.02874 287.352 9.07756C287.313 9.13741 287.186 9.15629 287.023 9.16417C286.733 9.17677 286.444 9.19725 286.154 9.21457C286.084 9.2193 286.004 9.22874 285.939 9.22559C285.873 9.22244 285.811 9.20354 285.754 9.18937C285.631 9.15945 285.526 9.11377 285.394 9.10275C285.262 9.09172 285.109 9.11535 284.964 9.1248C284.819 9.13267 284.665 9.15629 284.534 9.14527C284.402 9.13425 284.292 9.08701 284.174 9.05866C284.117 9.04449 284.046 9.02243 283.989 9.024C283.699 9.0366 283.41 9.05708 283.12 9.07283C282.764 9.09331 282.764 9.09331 282.334 8.99567C282.211 8.96732 282.084 8.9689 281.921 8.9815C281.57 9.00669 281.566 9.00196 280.925 8.91062C280.863 8.90117 280.788 8.89015 280.727 8.89487C280.073 8.93109 279.423 8.97046 278.773 9.00826C278.216 9.04133 278.216 9.04134 277.908 9.19883C277.68 9.31537 277.675 9.31536 277.899 9.36891C278.079 9.413 278.242 9.47757 278.439 9.50119C278.624 9.52324 278.852 9.45237 279.054 9.52482C279.155 9.56104 279.287 9.60041 279.414 9.60671C279.616 9.61459 279.831 9.56891 280.025 9.6382C280.121 9.67285 280.266 9.70908 280.389 9.71066C280.604 9.71381 280.824 9.6886 281.039 9.67757C281.105 9.67442 281.179 9.67443 281.241 9.6823C281.307 9.69175 281.364 9.71065 281.421 9.7264C281.596 9.77995 281.785 9.80514 282.013 9.77837C282.387 9.73427 282.72 9.75632 283.01 9.85711C283.05 9.87128 283.146 9.87287 283.208 9.86657C283.366 9.85082 283.502 9.84924 283.62 9.87916C283.669 9.89176 283.739 9.9138 283.73 9.92797C283.717 9.95159 283.664 9.98309 283.607 9.99097C283.194 10.0445 282.751 10.0508 282.325 10.0792C282.268 10.0823 282.198 10.0618 282.141 10.0477C282.018 10.0193 281.912 9.97208 281.781 9.96105C281.649 9.95003 281.495 9.9705 281.35 9.97838C281.206 9.98625 281.052 10.0099 280.92 10.0004C280.788 9.9894 280.666 9.95002 280.56 9.91538C280.437 9.87601 280.319 9.87129 280.156 9.88704C279.945 9.90751 279.726 9.91066 279.511 9.92168C279.392 9.89176 279.274 9.85868 279.151 9.83033C279.094 9.81616 279.023 9.79884 278.962 9.80042C278.672 9.81301 278.382 9.8319 278.093 9.84923C277.803 9.86655 277.803 9.86657 277.311 9.76893C277.254 9.7579 277.179 9.7453 277.118 9.74845C276.753 9.76735 276.393 9.79096 276.029 9.80986C275.888 9.81773 275.761 9.79568 275.647 9.75316C275.537 9.71064 275.406 9.68702 275.269 9.69489C274.69 9.72797 274.11 9.75947 273.531 9.79884C273.298 9.81459 273.1 9.80042 272.942 9.74372C272.758 9.67915 272.552 9.69491 272.337 9.70751C271.849 9.739 271.845 9.73742 271.533 9.6571C271.472 9.64135 271.41 9.61142 271.353 9.613C270.848 9.63662 270.339 9.65867 269.838 9.69647C269.575 9.71694 269.434 9.66183 269.259 9.62088C269.197 9.60671 269.131 9.57678 269.079 9.57993C268.714 9.59726 268.35 9.61301 267.994 9.64451C267.639 9.676 267.502 9.52955 267.235 9.53112C266.87 9.5327 266.51 9.56892 266.15 9.59097C265.86 9.60829 265.571 9.62561 265.281 9.64293C264.991 9.66025 264.701 9.67442 264.411 9.69489C264.258 9.70592 264.144 9.69174 264.016 9.65237C263.854 9.6004 263.661 9.55947 263.485 9.51222C263.217 9.4445 263.217 9.4445 262.892 9.46339C262.822 9.46812 262.747 9.47126 262.677 9.47599C262.146 9.51063 262.146 9.50749 261.47 9.40828C261.439 9.40355 261.36 9.42088 261.329 9.43348C261.237 9.47443 261.154 9.51851 261.07 9.56104C260.952 9.53584 260.807 9.52167 260.728 9.48545C260.504 9.38308 260.153 9.52324 259.924 9.42245C259.841 9.38465 259.696 9.35158 259.564 9.34213C259.428 9.33268 259.274 9.35473 259.134 9.36418C258.77 9.3878 258.77 9.38623 258.458 9.52639C258.3 9.59569 258.071 9.58308 257.865 9.59883C257.65 9.61615 257.444 9.6256 257.264 9.56104C257.101 9.50276 256.904 9.4886 256.671 9.50749C256.385 9.53112 256.091 9.54528 255.802 9.55946C255.74 9.56261 255.665 9.55474 255.604 9.54529C254.932 9.45237 254.932 9.4508 254.607 9.47128C254.462 9.48073 254.313 9.48386 254.173 9.49804C253.935 9.52323 253.755 9.49016 253.584 9.43977C253.527 9.42402 253.461 9.39411 253.404 9.39569C253.114 9.40356 252.829 9.41773 252.544 9.4319C252.324 9.44293 252.105 9.44923 251.894 9.47128C251.543 9.5075 251.371 9.40512 251.13 9.35787C250.77 9.37834 250.405 9.39252 250.045 9.42087C249.879 9.43347 249.769 9.42875 249.641 9.39096C249.479 9.34371 249.33 9.29017 249.066 9.31379C248.715 9.34529 248.346 9.35631 247.986 9.37521C247.745 9.32639 247.569 9.22716 247.222 9.26338C247.012 9.28543 246.788 9.29016 246.572 9.30276C246.283 9.32008 245.993 9.33584 245.703 9.35474C245.391 9.37364 245.396 9.36891 244.917 9.276C244.641 9.22087 244.355 9.28229 244.074 9.29174C243.855 9.29961 243.745 9.37205 243.798 9.46497C243.85 9.55789 243.732 9.63033 243.53 9.64293C243.025 9.67285 242.515 9.70434 242.011 9.73111C241.949 9.73426 241.874 9.72324 241.817 9.71222C241.277 9.613 241.277 9.61459 241.036 9.62876C240.676 9.65238 240.307 9.66497 239.951 9.69489C239.705 9.71537 239.525 9.68231 239.367 9.62876C239.244 9.58782 239.13 9.57837 238.972 9.58781C237.234 9.69333 235.495 9.79097 233.761 9.89963C233.502 9.91538 233.352 9.86972 233.177 9.8272C233.115 9.81302 233.058 9.7831 232.997 9.7831C232.852 9.7831 232.707 9.79727 232.562 9.80672C231.912 9.84452 231.262 9.89018 230.608 9.91853C230.332 9.93113 230.257 10.0036 230.138 10.0634C230.046 10.1091 229.941 10.128 229.778 10.1343C229.62 10.1406 229.506 10.1327 229.383 10.0918C229.225 10.0382 229.045 10.0051 228.799 10.0272C228.514 10.0524 228.224 10.0634 227.93 10.0807C227.781 10.0886 227.666 10.117 227.618 10.1737C227.609 10.1831 227.702 10.2067 227.754 10.2209C227.93 10.2682 228.097 10.3233 228.294 10.3563C228.496 10.3894 228.716 10.3516 228.926 10.3422C229.001 10.339 229.071 10.3296 229.142 10.3311C229.207 10.3327 229.287 10.3406 229.335 10.3548C229.563 10.4256 229.805 10.4745 230.121 10.4319C230.393 10.4524 230.534 10.5831 230.88 10.5485C231.091 10.528 231.311 10.5186 231.53 10.5107C231.587 10.5091 231.649 10.5375 231.71 10.5516C231.886 10.591 232.026 10.654 232.29 10.6272C232.571 10.5989 232.869 10.5941 233.155 10.5721C233.313 10.5595 233.427 10.5705 233.55 10.6115C233.708 10.6634 233.888 10.7028 234.134 10.6776C234.345 10.6556 234.568 10.6508 234.784 10.6367C235.065 10.6193 235.065 10.6209 235.565 10.7186C235.622 10.7296 235.697 10.7422 235.758 10.739C236.123 10.7201 236.483 10.6965 236.847 10.6776C236.988 10.6697 237.124 10.6902 237.22 10.7359C237.26 10.7548 237.247 10.7863 237.26 10.8131C236.535 10.8556 235.811 10.8918 235.091 10.9438C234.819 10.9642 234.696 10.8997 234.516 10.8634C234.454 10.8508 234.388 10.8241 234.331 10.8272C233.822 10.854 233.317 10.8823 232.812 10.917C232.654 10.928 232.536 10.9217 232.417 10.876C232.114 10.7548 231.745 10.8209 231.403 10.8382C231.139 10.8508 231.056 10.8997 231.087 11.0036C231.126 11.1264 231.284 11.1642 231.688 11.1422C231.833 11.1343 231.978 11.1233 232.123 11.117C232.263 11.1107 232.391 11.1312 232.505 11.1737C232.615 11.2162 232.746 11.2383 232.882 11.232C233.172 11.2178 233.466 11.2036 233.747 11.18C233.98 11.1611 234.173 11.1768 234.336 11.2351C234.516 11.2997 234.727 11.2855 234.937 11.2713C235.429 11.2398 235.433 11.2414 235.741 11.3202C235.802 11.3359 235.864 11.3658 235.921 11.3643C236.426 11.3406 236.935 11.3202 237.431 11.2824C237.69 11.2635 237.84 11.3139 238.011 11.3548C238.072 11.369 238.134 11.4005 238.191 11.3973C238.555 11.38 238.92 11.3627 239.275 11.3328C239.442 11.3186 239.543 11.328 239.679 11.3658C240.004 11.4587 240.013 11.4556 240.474 11.4257C240.614 11.4162 240.768 11.3989 240.9 11.4115C241.031 11.4241 241.137 11.4698 241.26 11.4981C241.317 11.5107 241.387 11.528 241.449 11.5249C241.738 11.5123 242.028 11.4934 242.318 11.4761C242.59 11.4587 242.59 11.4603 243.099 11.558C243.306 11.5989 243.521 11.5643 243.727 11.5517C243.951 11.5375 244.153 11.5375 244.324 11.5989C244.496 11.6603 244.702 11.6572 244.922 11.6446C245.128 11.632 245.339 11.5973 245.549 11.6399C246.032 11.7375 246.032 11.7391 246.331 11.7202C246.766 11.6934 247.196 11.6682 247.635 11.6446C247.692 11.6414 247.767 11.6603 247.824 11.6729C247.947 11.7013 248.052 11.7485 248.184 11.7595C248.315 11.7721 248.469 11.7532 248.61 11.7438C249.062 11.7139 249.093 11.7028 249.396 11.8068C249.65 11.8918 249.966 11.769 250.203 11.8666C250.34 11.9218 250.524 11.9658 250.779 11.9391C250.989 11.917 251.209 11.9107 251.428 11.8981C251.775 11.8776 251.775 11.8792 252.214 11.9737C252.271 11.9863 252.346 12.0021 252.403 11.9989C252.693 11.9863 252.987 11.9753 253.268 11.9469C253.597 11.9139 253.808 11.9737 254.054 12.032C254.247 12.0777 254.476 12.0399 254.682 12.0241C254.906 12.0084 255.108 12.0131 255.275 12.0745C255.45 12.1375 255.657 12.1296 255.876 12.117C256.082 12.106 256.293 12.0698 256.504 12.1139C256.956 12.2115 256.956 12.2115 257.285 12.1926C257.575 12.1753 257.865 12.1564 258.155 12.1438C258.212 12.1407 258.282 12.1611 258.339 12.1753C258.462 12.2036 258.568 12.2509 258.699 12.2619C258.831 12.2729 258.985 12.2525 259.13 12.2446C259.274 12.2367 259.428 12.2131 259.56 12.2225C259.692 12.232 259.814 12.2714 259.92 12.306C260.043 12.347 260.157 12.3517 260.324 12.3359C260.535 12.3155 260.754 12.3107 260.969 12.2997C261.088 12.3296 261.211 12.3596 261.325 12.3926C261.443 12.4273 261.571 12.4241 261.733 12.4131C262.273 12.3753 262.278 12.38 262.73 12.4777C262.936 12.5218 263.151 12.4855 263.358 12.4745C263.577 12.4619 263.784 12.4556 263.955 12.5186C264.122 12.5785 264.328 12.5863 264.548 12.5674C264.688 12.5548 264.837 12.547 264.982 12.5423C265.048 12.5407 265.127 12.547 265.175 12.5596C265.408 12.6257 265.636 12.6856 265.957 12.643C266.238 12.6556 266.378 12.7848 266.717 12.7596C267.002 12.7375 267.3 12.7328 267.581 12.7044C267.841 12.6792 268.025 12.7234 268.157 12.7785C268.394 12.8761 268.727 12.7438 268.965 12.8399C269.101 12.895 269.276 12.9391 269.54 12.9155C269.829 12.8903 269.922 12.9234 270.005 13.0226C270.053 13.0793 270.045 13.1249 269.957 13.169C269.869 13.2147 269.772 13.2068 269.632 13.1549C269.47 13.0966 269.276 13.0856 269.044 13.0982C268.815 13.1108 268.675 13.0289 268.486 12.9974C268.297 12.9643 268.073 13.0194 267.876 12.9769C267.41 12.8777 267.41 12.8777 267.094 12.8966C266.879 12.9092 266.655 12.9155 266.444 12.9375C266.194 12.9643 266.032 12.9155 265.86 12.8714C265.799 12.8556 265.737 12.8257 265.685 12.8273C265.18 12.8509 264.67 12.873 264.17 12.9123C263.907 12.9328 263.766 12.8761 263.59 12.8367C263.529 12.8226 263.463 12.7942 263.41 12.7974C262.976 12.8194 262.545 12.8478 262.111 12.8745C262.027 12.9171 261.935 12.958 261.856 13.0037C261.773 13.0509 261.659 13.0714 261.492 13.0698C261.215 13.0698 260.943 13.136 260.666 13.0525C260.381 12.9675 260.359 12.9722 260.082 12.9927C259.731 13.0194 259.358 13.0131 259.029 13.0746C258.971 13.0856 258.91 13.1155 258.91 13.1375C258.906 13.1517 258.998 13.1722 259.055 13.1848C259.248 13.2226 259.472 13.1675 259.665 13.2068C259.793 13.232 259.898 13.2698 260.025 13.2966C260.078 13.3076 260.157 13.3061 260.227 13.3045C260.302 13.3029 260.372 13.2919 260.442 13.2935C260.508 13.295 260.579 13.3045 260.631 13.3186C260.873 13.3785 261.127 13.4336 261.342 13.5045C261.553 13.5738 261.751 13.5265 261.961 13.5234C262.804 13.6336 262.805 13.6352 263.371 13.6006C263.511 13.5927 263.656 13.5832 263.801 13.5848C263.863 13.5848 263.92 13.6131 263.981 13.6289C264.157 13.6761 264.324 13.7187 264.57 13.6935C264.78 13.6714 265.004 13.6667 265.219 13.6525C265.509 13.6352 265.509 13.6352 266.001 13.7344C266.124 13.7596 266.256 13.7565 266.414 13.7439C266.55 13.7328 266.69 13.7565 266.787 13.8021C266.826 13.821 266.813 13.8525 266.826 13.8793C266.392 13.9045 265.953 13.9218 265.531 13.9596C265.259 13.9832 265.136 13.9155 264.956 13.8793C264.894 13.8667 264.829 13.8399 264.772 13.8431C264.341 13.8667 263.911 13.8935 263.481 13.925C263.428 13.9281 263.362 13.9643 263.358 13.9864C263.349 14.0273 263.459 14.0667 263.617 14.0651C263.827 14.0636 264.034 14.0368 264.223 14.1013C264.381 14.158 264.578 14.1833 264.811 14.1581C264.951 14.1439 265.101 14.1439 265.241 14.1313C265.615 14.0935 265.953 14.1014 266.234 14.2084C266.449 14.2368 266.659 14.21 266.866 14.1959C267.02 14.1848 267.169 14.1738 267.279 14.2037C267.511 14.2667 267.74 14.3297 268.06 14.2872C268.407 14.3313 268.67 14.4242 268.96 14.4998C269.096 14.536 269.202 14.5565 269.36 14.5329C269.426 14.5234 269.505 14.5234 269.575 14.5187C269.72 14.5108 269.873 14.4872 270.005 14.4966C270.137 14.5077 270.247 14.5533 270.365 14.5817C270.422 14.5959 270.488 14.6195 270.545 14.6179C270.765 14.61 270.98 14.5943 271.195 14.5817C271.41 14.5707 271.625 14.5596 271.84 14.5486C272.02 14.5896 272.205 14.6305 272.385 14.6715C272.675 14.6541 272.964 14.6368 273.25 14.6211C273.57 14.6022 273.57 14.6037 274.031 14.7014C274.238 14.7455 274.457 14.7171 274.655 14.6966C274.984 14.6636 275.204 14.7234 275.436 14.7864C275.485 14.799 275.572 14.8069 275.629 14.8006C275.858 14.7785 276.055 14.7959 276.222 14.8541C276.341 14.8951 276.459 14.914 276.604 14.9061C277.109 14.8762 277.614 14.8447 278.119 14.8179C278.18 14.8148 278.251 14.8289 278.308 14.8415C278.756 14.9376 278.76 14.9423 279.089 14.9171C279.383 14.8951 279.656 14.8856 279.888 14.9722C279.937 14.9911 280.011 15.0179 280.064 15.0163C280.424 15.0006 280.788 14.9833 281.144 14.9565C281.307 14.9439 281.421 14.9486 281.548 14.9849C281.71 15.0305 281.855 15.0857 282.123 15.0652C282.865 15.0069 282.87 15.0163 283.748 15.125C283.809 15.1329 283.893 15.1203 283.963 15.114C284.112 15.0982 284.222 15.1203 284.354 15.1565C284.648 15.2384 284.657 15.2337 284.938 15.2164C285.153 15.2022 285.377 15.199 285.587 15.1754C285.912 15.1408 286.127 15.2022 286.369 15.2605C286.562 15.3061 286.786 15.2683 286.992 15.2542C287.216 15.2384 287.418 15.2431 287.585 15.303C287.699 15.3439 287.822 15.366 287.967 15.3581C288.472 15.3298 288.977 15.2982 289.482 15.2699C289.543 15.2667 289.618 15.2793 289.675 15.2904C290.176 15.388 290.176 15.3927 290.672 15.3565C290.83 15.3455 290.961 15.3423 291.08 15.3754C291.194 15.4069 291.317 15.4368 291.436 15.4668C291.651 15.4557 291.87 15.4526 292.081 15.4337C292.244 15.4195 292.358 15.4258 292.485 15.4589C292.652 15.5014 292.792 15.5754 293.056 15.5392C293.192 15.5219 293.35 15.5266 293.486 15.5109C293.649 15.4904 293.758 15.503 293.886 15.5439C294.044 15.5927 294.206 15.6431 294.461 15.6179C294.742 15.5896 295.04 15.5849 295.326 15.5628C295.484 15.5502 295.594 15.5628 295.721 15.6038C295.879 15.6557 296.059 15.6888 296.305 15.6683C296.805 15.629 296.81 15.6368 297.297 15.736C297.42 15.7612 297.552 15.7581 297.71 15.7455C297.846 15.7345 297.986 15.7581 298.083 15.8038C298.175 15.8542 298.166 15.8857 298.175 15.9124ZM259.051 1.70879C258.906 1.71667 258.761 1.72611 258.55 1.5891C258.537 1.56548 258.546 1.53714 258.515 1.51666C258.445 1.47414 258.335 1.44422 258.203 1.4395C257.966 1.4332 257.681 1.48673 257.685 1.52768C257.689 1.56233 257.764 1.59224 257.909 1.62059C257.97 1.63161 258.019 1.65051 258.076 1.66311C258.243 1.69934 258.374 1.77022 258.616 1.73399C258.572 1.63635 258.594 1.68517 258.616 1.73399C258.594 1.79384 258.66 1.83636 258.818 1.85368C258.862 1.85841 258.928 1.85525 258.963 1.8458C259.099 1.81116 259.121 1.76392 259.02 1.63951C259.002 1.65998 259.015 1.69619 259.055 1.70564C259.094 1.71509 259.191 1.70722 259.239 1.6962C259.362 1.66628 259.424 1.6269 259.393 1.59383C259.375 1.57651 259.292 1.55446 259.239 1.55446C259.147 1.55446 259.064 1.5891 259.051 1.70879ZM294.553 19.9724C294.232 20.0023 293.864 19.9913 293.543 20.0527C293.486 20.0638 293.429 20.0921 293.425 20.1142C293.42 20.1283 293.508 20.1488 293.561 20.1598C293.679 20.185 293.811 20.1772 293.965 20.1693C294.197 20.1583 294.333 20.2307 294.514 20.2669C294.571 20.2779 294.645 20.2858 294.707 20.2827C295.062 20.2638 295.414 20.2433 295.769 20.2213C295.831 20.2165 295.897 20.2055 295.949 20.1913C296.125 20.1457 296.107 20.1157 295.936 20.0811C295.747 20.0433 295.598 19.9803 295.405 19.9504C295.128 19.9079 294.847 19.9646 294.553 19.9724ZM269.619 21.1221C269.404 21.1347 269.193 21.1473 268.978 21.1599C268.907 21.1646 268.833 21.1662 268.767 21.1725C268.631 21.1835 268.53 21.2166 268.464 21.2685C268.565 21.3095 268.688 21.3331 268.824 21.3284C269.039 21.3189 269.25 21.2985 269.465 21.2937C269.698 21.2874 269.834 21.3583 270.014 21.3945C270.071 21.4056 270.141 21.4071 270.207 21.4087C270.532 21.415 270.73 21.3331 270.668 21.2181C270.624 21.1284 270.457 21.0748 270.255 21.0859C270.045 21.0969 269.83 21.1095 269.619 21.1221ZM296.055 17.6448C296.107 17.618 296.164 17.5991 296.191 17.5755C296.27 17.4952 296.239 17.4353 296.094 17.3723C295.918 17.2952 295.703 17.3471 295.506 17.355C295.458 17.3566 295.405 17.3897 295.378 17.4101C295.361 17.4243 295.361 17.4542 295.387 17.4621C295.602 17.5251 295.831 17.5834 296.055 17.6448ZM257.966 12.9927C257.755 13.0053 257.54 13.0147 257.329 13.032C257.277 13.0368 257.228 13.0667 257.198 13.0871C257.141 13.1249 257.202 13.1769 257.382 13.1816C257.588 13.1879 257.804 13.1612 258.019 13.1486C258.291 13.1328 258.453 13.0745 258.352 13.0241C258.256 12.9753 258.124 12.9659 257.966 12.9927ZM26.8486 9.62719C26.9891 9.61931 27.1339 9.61301 27.2744 9.60198C27.4061 9.59096 27.5072 9.55631 27.5731 9.50434C27.4633 9.4634 27.3403 9.44135 27.2042 9.44607C26.9891 9.45552 26.7784 9.46812 26.5676 9.48387C26.4359 9.49332 26.3086 9.52796 26.2779 9.58151C26.2471 9.62245 26.5412 9.64608 26.8486 9.62719ZM239.398 9.38465C239.455 9.39882 239.512 9.42718 239.569 9.42718C239.71 9.42718 239.855 9.41772 239.987 9.40197C240.044 9.39567 240.087 9.36733 240.114 9.34528C240.131 9.33111 240.127 9.30591 240.101 9.29332C239.973 9.21772 239.464 9.24449 239.381 9.33111C239.372 9.34686 239.394 9.36733 239.398 9.38465ZM225.546 0.760723C225.559 0.78592 225.563 0.811115 225.581 0.836313C225.616 0.883559 225.713 0.918212 225.853 0.941835C225.963 0.902464 226.02 0.858375 226.016 0.811129C226.011 0.785931 225.998 0.760717 225.98 0.735519C225.945 0.688274 225.849 0.653639 225.708 0.630016C225.598 0.667813 225.546 0.711902 225.546 0.760723ZM306.201 21.3961C306.162 21.4166 306.122 21.437 306.078 21.4559C306.197 21.5016 306.307 21.5158 306.39 21.4906C306.443 21.4748 306.474 21.4512 306.513 21.4307C306.395 21.3851 306.289 21.3725 306.201 21.3961ZM303.47 21.6103C303.527 21.6245 303.58 21.6434 303.642 21.6528C303.743 21.6686 303.835 21.6418 303.905 21.5851C303.848 21.5709 303.795 21.552 303.734 21.5426C303.633 21.5268 303.541 21.5536 303.47 21.6103ZM305.2 21.3221C305.169 21.3599 305.231 21.3914 305.393 21.4182C305.433 21.3977 305.486 21.3788 305.512 21.3567C305.556 21.3205 305.481 21.2874 305.323 21.2622C305.279 21.2811 305.24 21.3016 305.2 21.3221ZM295.932 19.6244C295.901 19.6622 295.962 19.6937 296.125 19.7204C296.164 19.7 296.217 19.6811 296.243 19.659C296.287 19.6228 296.213 19.5897 296.055 19.5645C296.011 19.5834 295.971 19.6039 295.932 19.6244ZM283.304 8.48068C283.265 8.50116 283.225 8.52163 283.181 8.54053C283.3 8.5862 283.41 8.60037 283.493 8.57517C283.546 8.55942 283.576 8.5358 283.616 8.51533C283.497 8.46966 283.392 8.45706 283.304 8.48068ZM271.208 2.56866C271.313 2.57968 271.401 2.55764 271.476 2.49937C271.419 2.4852 271.366 2.4663 271.305 2.45685C271.204 2.4411 271.112 2.46788 271.041 2.52458C271.098 2.54032 271.155 2.55448 271.208 2.56866ZM264.785 2.19857C264.745 2.21904 264.706 2.23952 264.662 2.25841C264.78 2.30409 264.89 2.31825 264.973 2.29306C265.026 2.27731 265.057 2.25368 265.096 2.23321C264.978 2.18754 264.873 2.17652 264.785 2.19857ZM221.225 0.759146C221.186 0.779619 221.146 0.800093 221.102 0.818992C221.221 0.864663 221.331 0.878832 221.414 0.853634C221.467 0.837885 221.498 0.814262 221.537 0.793788C221.419 0.748118 221.313 0.737098 221.225 0.759146ZM4.33348 13.5722C4.2764 13.558 4.21937 13.5439 4.16669 13.5281C4.03936 13.5706 3.99986 13.61 4.07011 13.6399C4.11401 13.6588 4.17982 13.6698 4.2369 13.684C4.36862 13.6415 4.39934 13.6037 4.33348 13.5722Z" fill="#FFE492"/>
<path d="M29.7981 8.01117C29.2932 8.04109 28.7927 8.07888 28.2878 8.09778C28.02 8.10723 27.9234 8.17495 27.8137 8.23794C27.7259 8.28834 27.6249 8.30408 27.4624 8.31353C26.0925 8.3907 24.727 8.4726 23.3615 8.55291C23.1903 8.53244 23.1069 8.49937 23.1464 8.46C23.1683 8.43638 23.2211 8.40331 23.2737 8.40016C24.2089 8.34189 25.1397 8.28204 26.0793 8.23637C26.3471 8.22377 26.4218 8.15447 26.5579 8.09778C26.6018 8.07888 26.637 8.05053 26.694 8.03951C26.7511 8.02691 26.8345 8.02849 26.9092 8.02534C28.4196 7.93557 29.93 7.84739 31.4403 7.75762C31.6116 7.77809 31.695 7.81116 31.6555 7.85053C31.6335 7.87416 31.5808 7.90723 31.5281 7.91038C30.9486 7.94345 30.3733 7.97652 29.7981 8.01117Z" fill="#FFE492"/>
<path d="M306.259 16.3976C306.03 16.4165 305.741 16.4433 305.504 16.3519C305.389 16.3078 305.266 16.2937 305.117 16.3031C304.902 16.3188 304.683 16.3314 304.463 16.3409C304.406 16.3425 304.331 16.3251 304.274 16.311C304.151 16.2826 304.046 16.2354 303.914 16.2228C303.782 16.2102 303.624 16.2448 303.488 16.2369C303.308 16.2259 303.234 16.1834 303.282 16.144C303.308 16.122 303.361 16.0905 303.418 16.0858C304.23 16.0275 304.235 16.0275 304.463 16.0842C304.639 16.1283 304.801 16.1771 305.051 16.1503C305.262 16.1283 305.486 16.1235 305.701 16.1094C306 16.0905 306 16.0921 306.483 16.1913C306.606 16.2165 306.737 16.2149 306.895 16.2007C307.032 16.1897 307.163 16.2149 307.273 16.2574C307.203 16.311 307.102 16.3456 306.966 16.3551C306.746 16.3708 306.531 16.3818 306.259 16.3976Z" fill="#FFE492"/>
<path d="M298.176 15.9124C298.729 15.8793 299.287 15.851 299.84 15.8132C300.068 15.7974 300.248 15.8148 300.406 15.8683C300.577 15.9266 300.771 15.9218 300.981 15.9108C301.113 15.9045 301.241 15.9297 301.328 15.9738C301.363 15.9911 301.355 16.0226 301.368 16.0478C300.885 16.0762 300.398 16.1061 299.91 16.1313C299.853 16.1344 299.783 16.1187 299.73 16.1061C299.612 16.0793 299.511 16.0321 299.383 16.0226C299.111 16.0006 298.839 16.0431 298.562 16.051C298.43 16.0541 298.303 16.0305 298.215 15.988C298.18 15.9675 298.189 15.9376 298.176 15.9124Z" fill="#FFE492"/>
<path d="M98.2492 2.37166C98.8244 2.33701 99.3995 2.30395 99.9747 2.26931C100.146 2.29135 100.225 2.32285 100.19 2.36222C100.168 2.38584 100.115 2.41891 100.062 2.42206C98.9121 2.49293 97.7619 2.56064 96.6159 2.62836C96.4447 2.60631 96.3656 2.57482 96.4008 2.53545C96.4227 2.51183 96.4754 2.47875 96.5281 2.4756C97.0989 2.43938 97.674 2.4063 98.2492 2.37166Z" fill="#FFE492"/>
<path d="M9.62087 11.1233C9.36183 11.1265 9.08966 11.1848 8.79988 11.1407C8.74281 11.1328 8.66375 11.1076 8.66814 11.0934C8.67693 11.0698 8.72962 11.0399 8.7867 11.0304C9.03696 10.991 9.34873 10.9863 9.47606 10.8761C9.53752 10.8194 9.65168 10.8005 9.80535 10.7895C9.9678 10.7769 10.0819 10.7816 10.2093 10.8146C10.3761 10.8572 10.5166 10.9359 10.7801 10.895C10.7932 10.9202 10.8239 10.9485 10.8107 10.9721C10.7975 10.9958 10.7406 11.0178 10.6879 11.0351C10.6396 11.0509 10.5736 11.065 10.5122 11.0698C10.2224 11.0887 9.93261 11.1044 9.62087 11.1233Z" fill="#FFE492"/>
<path d="M237.967 10.807C238.182 10.7945 238.406 10.7881 238.617 10.7661C238.784 10.7488 238.889 10.7598 239.021 10.7976C239.245 10.8637 239.258 10.8574 239.807 10.8669C239.868 10.8685 239.943 10.8921 239.978 10.9126C240 10.9236 239.969 10.9535 239.943 10.9693C239.903 10.9897 239.846 11.0165 239.793 11.0165C239.447 11.0212 239.095 11.1141 238.757 11.0071C238.586 10.9535 238.397 10.9283 238.165 10.9519C238.024 10.9661 237.875 10.9724 237.73 10.9787C237.589 10.985 237.445 10.9677 237.357 10.9204C237.229 10.8511 237.304 10.8244 237.532 10.8291C237.677 10.8322 237.822 10.8149 237.967 10.807Z" fill="#FFE492"/>
<path d="M317.542 21.6622C317.819 21.6465 318.096 21.6276 318.377 21.615C318.434 21.6119 318.504 21.6292 318.557 21.6402C318.767 21.6875 318.737 21.7678 318.745 21.8386C318.75 21.9126 318.262 21.9725 318.056 21.9221C317.828 21.8654 317.621 21.8008 317.305 21.8355C317.182 21.8481 317.037 21.8197 316.958 21.7741C316.84 21.7079 316.906 21.6811 317.13 21.6859C317.261 21.689 317.402 21.6717 317.542 21.6622Z" fill="#FFE492"/>
<path d="M178.149 0.226879C178.435 0.209556 178.72 0.182796 179.006 0.181222C179.172 0.179647 179.256 0.231607 179.216 0.269404C179.194 0.293027 179.142 0.326099 179.089 0.329249C178.518 0.367046 177.947 0.398548 177.377 0.433195C177.21 0.411147 177.126 0.378081 177.166 0.340284C177.188 0.316661 177.241 0.285163 177.293 0.280439C177.579 0.258391 177.864 0.244203 178.149 0.226879Z" fill="#FFE492"/>
<path d="M312.067 16.536C312.343 16.5203 312.624 16.4966 312.901 16.4888C313.046 16.4856 313.16 16.5218 313.178 16.5628C313.186 16.5817 313.116 16.6147 313.059 16.6226C312.664 16.6762 312.238 16.6825 311.825 16.7092C311.694 16.7171 311.553 16.6919 311.474 16.6478C311.356 16.5801 311.421 16.5549 311.645 16.5596C311.786 16.5612 311.926 16.5439 312.067 16.536Z" fill="#FFE492"/>
<path d="M245.22 11.0196C245.36 11.0117 245.505 10.9912 245.641 10.9975C245.786 11.0054 245.878 11.051 245.922 11.0967C245.97 11.1487 245.966 11.1975 245.922 11.2416C245.852 11.3172 245.782 11.3141 245.619 11.2637C245.369 11.1849 245.351 11.1944 244.855 11.1975C244.798 11.1975 244.728 11.1739 244.684 11.1534C244.618 11.1219 244.653 11.0731 244.807 11.0448C244.921 11.0243 245.079 11.0274 245.22 11.0196Z" fill="#FFE492"/>
<path d="M301.78 16.0195C301.986 16.0069 302.193 15.9865 302.399 15.9865C302.544 15.9849 302.658 16.0211 302.671 16.0605C302.676 16.0794 302.61 16.1109 302.557 16.1203C302.307 16.1628 302.026 16.166 301.754 16.1802C301.626 16.1865 301.486 16.1613 301.407 16.1172C301.288 16.051 301.359 16.0211 301.574 16.0305C301.64 16.0337 301.71 16.0242 301.78 16.0195Z" fill="#FFE492"/>
<path d="M269.303 14.0873C268.996 14.1062 268.706 14.0826 268.728 14.0417C268.758 13.9881 268.886 13.9535 269.017 13.944C269.228 13.9283 269.439 13.9157 269.654 13.9062C269.79 13.8999 269.913 13.9235 270.023 13.9645C269.957 14.0149 269.856 14.0511 269.724 14.0621C269.588 14.0731 269.443 14.0794 269.303 14.0873Z" fill="#FFE492"/>
<path d="M267.286 13.8857C267.492 13.8731 267.699 13.8526 267.905 13.8526C268.05 13.8511 268.164 13.8873 268.177 13.9267C268.182 13.9456 268.116 13.9771 268.063 13.9865C267.813 14.029 267.532 14.0322 267.26 14.0464C267.132 14.0526 266.992 14.0274 266.913 13.9834C266.794 13.9172 266.864 13.8873 267.08 13.8967C267.145 13.8999 267.216 13.8904 267.286 13.8857Z" fill="#FFE492"/>
<path d="M242.731 11.0069C242.938 10.9943 243.144 10.9738 243.35 10.9723C243.495 10.9707 243.609 11.0069 243.623 11.0463C243.627 11.0652 243.561 11.0951 243.508 11.1061C243.258 11.1487 242.977 11.1518 242.705 11.166C242.578 11.1723 242.437 11.1471 242.358 11.103C242.24 11.0369 242.31 11.0069 242.525 11.0164C242.591 11.0195 242.661 11.0101 242.731 11.0069Z" fill="#FFE492"/>
<path d="M241.575 10.9138C241.794 10.9013 241.865 10.8934 241.935 10.8934C242.067 10.8934 242.203 10.9123 242.282 10.9579C242.4 11.0241 242.33 11.043 242.115 11.0462C241.838 11.0493 241.566 11.0824 241.29 11.0887C241.145 11.0918 241.03 11.054 241.022 11.0146C241.017 10.9957 241.083 10.9627 241.136 10.9564C241.32 10.9328 241.522 10.9186 241.575 10.9138Z" fill="#FFE492"/>
<path d="M265.499 1.64897C265.359 1.65685 265.21 1.6789 265.078 1.67102C264.902 1.66 264.832 1.61748 264.876 1.57811C264.902 1.55606 264.951 1.52457 265.003 1.51984C265.284 1.4978 265.57 1.48361 265.851 1.46786C266.018 1.49148 266.092 1.52455 266.048 1.56393C266.022 1.58597 265.974 1.61589 265.921 1.62219C265.785 1.63794 265.64 1.6411 265.499 1.64897Z" fill="#FFE492"/>
<path d="M95.1004 2.55757C95.2366 2.55599 95.3594 2.57647 95.4648 2.61584C95.3989 2.66623 95.3024 2.6993 95.1707 2.71348C95.1048 2.71978 95.0302 2.72449 94.9599 2.72607C94.8238 2.72922 94.7008 2.70717 94.5955 2.6678C94.6613 2.61741 94.7623 2.58433 94.8896 2.57016C94.9555 2.56386 95.0302 2.56229 95.1004 2.55757Z" fill="#FFE492"/>
<path d="M310.566 16.5299C310.562 16.4842 310.83 16.4323 311.071 16.4339C311.199 16.4354 311.33 16.4575 311.405 16.5C311.519 16.5646 311.453 16.5898 311.238 16.585C311.106 16.5819 310.966 16.6087 310.834 16.6039C310.685 16.6024 310.597 16.5677 310.566 16.5299Z" fill="#FFE492"/>
<path d="M246.492 11.21C246.488 11.1926 246.466 11.1722 246.479 11.1564C246.562 11.0698 247.067 11.043 247.199 11.1186C247.221 11.1328 247.23 11.1564 247.212 11.1706C247.186 11.1926 247.137 11.221 247.085 11.2273C246.949 11.243 246.808 11.2509 246.668 11.2525C246.606 11.2525 246.549 11.2257 246.492 11.21Z" fill="#FFE492"/>
<path d="M11.1826 10.8714C10.6645 10.9044 10.6557 10.9013 10.7479 10.8225C10.8313 10.7517 10.985 10.7092 11.2089 10.7092C11.2748 10.7092 11.345 10.706 11.4021 10.7123C11.4636 10.7202 11.5514 10.7359 11.5646 10.7548C11.591 10.791 11.5162 10.8304 11.3845 10.8572C11.3274 10.8698 11.2528 10.8667 11.1826 10.8714Z" fill="#FFE492"/>
<path d="M101.587 2.33575C101.433 2.36252 101.301 2.35308 101.205 2.30268C101.108 2.25228 101.262 2.19243 101.53 2.17826C101.6 2.17511 101.675 2.16252 101.74 2.16882C101.806 2.17355 101.872 2.19243 101.912 2.21133C101.982 2.24282 101.938 2.28536 101.798 2.32158C101.741 2.33575 101.657 2.3326 101.587 2.33575Z" fill="#FFE492"/>
<path d="M309.652 16.4114C309.691 16.3909 309.731 16.3704 309.775 16.3515C309.937 16.3783 310.007 16.4098 309.963 16.446C309.937 16.4681 309.884 16.487 309.845 16.5074C309.682 16.4807 309.617 16.4476 309.652 16.4114Z" fill="#FFE492"/>
<path d="M18.1367 28.7995C18.1367 28.7806 18.1982 28.7507 18.2465 28.7444C18.3387 28.7334 18.4528 28.7554 18.5318 28.7995C18.6416 28.8625 18.5758 28.8956 18.3738 28.8783C18.2333 28.8657 18.1367 28.8342 18.1367 28.7995Z" fill="#FFE492"/>
<path d="M248.282 9.74375C248.339 9.75793 248.396 9.77211 248.448 9.78786C248.374 9.84613 248.282 9.87131 248.185 9.85556C248.123 9.84611 248.071 9.82721 248.014 9.81304C248.088 9.75477 248.176 9.73273 248.282 9.74375Z" fill="#FFE492"/>
<path d="M246.761 9.67276C246.849 9.64913 246.954 9.66175 247.077 9.70742C247.038 9.72789 247.003 9.75152 246.954 9.76726C246.871 9.79246 246.761 9.77985 246.643 9.7326C246.678 9.7137 246.717 9.69323 246.761 9.67276Z" fill="#FFE492"/>
<path d="M245.596 9.74192C245.653 9.7561 245.71 9.77028 245.763 9.78602C245.688 9.84429 245.6 9.86948 245.499 9.85373C245.438 9.84428 245.385 9.82538 245.328 9.81121C245.403 9.75294 245.491 9.72933 245.596 9.74192Z" fill="#FFE492"/>
<path d="M244.742 9.65856C244.808 9.69005 244.773 9.72784 244.646 9.77037C244.589 9.75619 244.523 9.74518 244.479 9.72628C244.409 9.69636 244.444 9.65698 244.575 9.61446C244.628 9.6302 244.685 9.64438 244.742 9.65856Z" fill="#FFE492"/>
</svg>
